{
.appVersion = "3217";
DisplayStrings = (
"/javiyani-thaana"
);
classes = (
{
code = "allah-ar haa-thaana shaviyani-thaana noonu-thaana raa-thaana baa-thaana lhaviyani-thaana kaafu-thaana alifu-thaana vaavu-thaana meemu-thaana faafu-thaana dhaalu-thaana thaa-thaana laamu-thaana gaafu-thaana gnaviyani-thaana seenu-thaana daviyani-thaana zaviyani-thaana taviyani-thaana yaa-thaana paviyani-thaana javiyani-thaana chaviyani-thaana ttaa-thaana hhaa-thaana khaa-thaana thaalu-thaana zaa-thaana sheenu-thaana saadhu-thaana daadhu-thaana to-thaana zo-thaana ainu-thaana ghainu-thaana qaafu-thaana waavu-thaana naa-thaana colon  exclam parenleft parenright period quotedblleft quotedblright quoteleft quoteright  fullstop-ar comma-ar semicolon-ar question-ar asterisk-ar parenleft-ar parenright-ar quotedbl quotesingle bismillah-ar percent-ar\012";
name = AllLetters;
},
{
code = "zero-ar one-ar two-ar three-ar four-ar five-ar six-ar seven-ar eight-ar nine-ar";
name = Numbers;
}
);
copyright = "Copyright 2022 The Noto Project Authors (https://github.com/notofonts/thaana)";
customParameters = (
{
name = hheaAscender;
value = 1069;
},
{
name = hheaDescender;
value = -424;
},
{
name = hheaLineGap;
value = 0;
},
{
name = fsType;
value = (
);
},
{
name = typoAscender;
value = 1069;
},
{
name = typoDescender;
value = -424;
},
{
name = typoLineGap;
value = 0;
},
{
name = unicodeRanges;
value = (
72
);
},
{
name = strikeoutSize;
value = 50;
},
{
name = strikeoutPosition;
value = 322;
},
{
name = subscriptXSize;
value = 650;
},
{
name = subscriptYSize;
value = 600;
},
{
name = subscriptXOffset;
value = 0;
},
{
name = subscriptYOffset;
value = 75;
},
{
name = superscriptXSize;
value = 650;
},
{
name = superscriptYSize;
value = 600;
},
{
name = superscriptXOffset;
value = 0;
},
{
name = superscriptYOffset;
value = 350;
},
{
name = winAscent;
value = 1069;
},
{
name = winDescent;
value = 424;
},
{
name = weightClass;
value = 100;
},
{
name = "Use Typo Metrics";
value = 1;
},
{

glyphs = (
{
glyphname = "allah-ar";
production = uniFDF2;
layers = (
{
layerId = "DD221461-5F58-4856-B7A3-0FD42177026D";
paths = (
{
closed = 1;
nodes = (
"478 -5 OFFCURVE",
"506 24 OFFCURVE",
"519 70 CURVE",
"532 29 OFFCURVE",
"562 -5 OFFCURVE",
"626 -5 CURVE SMOOTH",
"744 -5 OFFCURVE",
"763 36 OFFCURVE",
"759 146 CURVE SMOOTH",
"742 630 LINE",
"721 630 LINE",
"737 144 LINE SMOOTH",
"740 50 OFFCURVE",
"733 17 OFFCURVE",
"634 17 CURVE SMOOTH",
"551 17 OFFCURVE",
"532 52 OFFCURVE",
"529 170 CURVE SMOOTH",
"520 509 LINE",
"497 509 LINE",
"507 169 LINE SMOOTH",
"510 73 OFFCURVE",
"507 17 OFFCURVE",
"403 17 CURVE SMOOTH",
"313 17 OFFCURVE",
"299 39 OFFCURVE",
"295 122 CURVE SMOOTH",
"280 466 LINE",
"258 466 LINE",
"261 363 LINE",
"142 343 OFFCURVE",
"50 257 OFFCURVE",
"50 172 CURVE SMOOTH",
"50 87 OFFCURVE",
"163 54 OFFCURVE",
"276 79 CURVE",
"288 7 OFFCURVE",
"331 -5 OFFCURVE",
"394 -5 CURVE SMOOTH"
);
},
{
closed = 1;
nodes = (
"187 81 OFFCURVE",
"73 97 OFFCURVE",
"73 175 CURVE SMOOTH",
"73 249 OFFCURVE",
"164 325 OFFCURVE",
"262 341 CURVE",
"274 100 LINE"
);
},
{
closed = 1;
nodes = (
"950 -1 LINE",
"933 630 LINE",
"911 630 LINE",
"928 -1 LINE"
);
},
{
closed = 1;
nodes = (
"490 534 OFFCURVE",
"509 567 OFFCURVE",
"509 605 CURVE",
"499 605 LINE",
"499 579 OFFCURVE",
"517 561 OFFCURVE",
"545 561 CURVE SMOOTH",
"585 561 OFFCURVE",
"601 591 OFFCURVE",
"601 629 CURVE SMOOTH",
"601 655 OFFCURVE",
"594 685 OFFCURVE",
"587 700 CURVE",
"568 694 LINE",
"575 675 OFFCURVE",
"580 653 OFFCURVE",
"580 629 CURVE SMOOTH",
"580 600 OFFCURVE",
"571 582 OFFCURVE",
"546 582 CURVE SMOOTH",
"524 582 OFFCURVE",
"512 594 OFFCURVE",
"512 609 CURVE",
"512 676 LINE",
"492 669 LINE",
"492 617 LINE",
"492 571 OFFCURVE",
"473 554 OFFCURVE",
"453 554 CURVE SMOOTH",
"427 554 OFFCURVE",
"419 577 OFFCURVE",
"419 601 CURVE SMOOTH",
"419 613 OFFCURVE",
"421 629 OFFCURVE",
"424 651 CURVE",
"405 646 LINE",
"402 628 OFFCURVE",
"400 611 OFFCURVE",
"400 600 CURVE SMOOTH",
"400 560 OFFCURVE",
"417 534 OFFCURVE",
"452 534 CURVE SMOOTH"
);
},
{
closed = 1;
nodes = (
"509 713 LINE",
"504 856 LINE",
"484 856 LINE",
"489 713 LINE"
);
}
);
vertWidth = 0;
width = 1017;
},
{
layerId = "F950428B-3F13-4CD6-A68E-5B8ABB069931";
paths = (
{
closed = 1;
nodes = (
"597 -5 OFFCURVE",
"647 12 OFFCURVE",
"683 59 CURVE",
"716 8 OFFCURVE",
"779 -5 OFFCURVE",
"839 -5 CURVE SMOOTH",
"1066 -5 OFFCURVE",
"1089 91 OFFCURVE",
"1084 228 CURVE SMOOTH",
"1067 694 LINE",
"890 694 LINE",
"906 247 LINE SMOOTH",
"909 161 OFFCURVE",
"904 147 OFFCURVE",
"847 147 CURVE SMOOTH",
"779 147 OFFCURVE",
"770 162 OFFCURVE",
"768 248 CURVE SMOOTH",
"759 599 LINE",
"583 599 LINE",
"590 247 LINE SMOOTH",
"592 161 OFFCURVE",
"588 147 OFFCURVE",
"532 147 CURVE SMOOTH",
"476 147 OFFCURVE",
"459 161 OFFCURVE",
"457 223 CURVE SMOOTH",
"443 587 LINE",
"274 587 LINE",
"278 471 LINE",
"129 434 OFFCURVE",
"25 360 OFFCURVE",
"25 232 CURVE SMOOTH",
"25 90 OFFCURVE",
"162 46 OFFCURVE",
"319 70 CURVE",
"355 17 OFFCURVE",
"424 -5 OFFCURVE",
"524 -5 CURVE SMOOTH"
);
},
{
closed = 1;
nodes = (
"234 193 OFFCURVE",
"190 209 OFFCURVE",
"190 243 CURVE SMOOTH",
"190 284 OFFCURVE",
"229 314 OFFCURVE",
"284 326 CURVE",
"290 204 LINE"
);
},
{
closed = 1;
nodes = (
"1371 -1 LINE",
"1354 694 LINE",
"1177 694 LINE",
"1195 -1 LINE"
);
},
{
closed = 1;
nodes = (
"624 661 OFFCURVE",
"658 690 OFFCURVE",
"658 746 CURVE",
"639 753 LINE",
"639 710 OFFCURVE",
"669 689 OFFCURVE",
"695 689 CURVE SMOOTH",
"756 689 OFFCURVE",
"779 727 OFFCURVE",
"779 779 CURVE SMOOTH",
"779 801 OFFCURVE",
"771 831 OFFCURVE",
"760 853 CURVE",
"696 841 LINE",
"703 822 OFFCURVE",
"708 802 OFFCURVE",
"708 783 CURVE SMOOTH",
"708 765 OFFCURVE",
"704 753 OFFCURVE",
"688 753 CURVE SMOOTH",
"681 753 OFFCURVE",
"678 760 OFFCURVE",
"678 779 CURVE SMOOTH",
"678 831 LINE",
"617 816 LINE",
"617 790 LINE SMOOTH",
"617 740 OFFCURVE",
"612 728 OFFCURVE",
"602 728 CURVE SMOOTH",
"594 728 OFFCURVE",
"590 734 OFFCURVE",
"590 756 CURVE SMOOTH",
"590 768 OFFCURVE",
"592 785 OFFCURVE",
"594 804 CURVE",
"521 792 LINE",
"518 774 OFFCURVE",
"516 761 OFFCURVE",
"516 748 CURVE SMOOTH",
"516 700 OFFCURVE",
"529 661 OFFCURVE",
"590 661 CURVE SMOOTH"
);
},
{
closed = 1;
nodes = (
"688 881 LINE",
"684 1004 LINE",
"589 1004 LINE",
"593 881 LINE"
);
}
);
vertWidth = 0;
width = 1411;
},
{
layerId = "108A7794-AFCA-4739-A8E0-6E5429236965";
paths = (
{
closed = 1;
nodes = (
"567 -5 OFFCURVE",
"612 15 OFFCURVE",
"642 62 CURVE",
"670 13 OFFCURVE",
"725 -5 OFFCURVE",
"786 -5 CURVE SMOOTH",
"986 -5 OFFCURVE",
"1008 77 OFFCURVE",
"1003 208 CURVE SMOOTH",
"986 678 LINE",
"848 678 LINE",
"864 221 LINE SMOOTH",
"867 133 OFFCURVE",
"861 115 OFFCURVE",
"794 115 CURVE SMOOTH",
"722 115 OFFCURVE",
"711 135 OFFCURVE",
"708 229 CURVE SMOOTH",
"699 577 LINE",
"562 577 LINE",
"569 228 LINE SMOOTH",
"572 139 OFFCURVE",
"568 115 OFFCURVE",
"500 115 CURVE SMOOTH",
"435 115 OFFCURVE",
"419 131 OFFCURVE",
"417 198 CURVE SMOOTH",
"402 557 LINE",
"270 557 LINE",
"274 444 LINE",
"132 411 OFFCURVE",
"31 334 OFFCURVE",
"31 217 CURVE SMOOTH",
"31 89 OFFCURVE",
"162 48 OFFCURVE",
"308 72 CURVE",
"338 15 OFFCURVE",
"401 -5 OFFCURVE",
"492 -5 CURVE SMOOTH"
);
},
{
closed = 1;
nodes = (
"222 165 OFFCURVE",
"161 181 OFFCURVE",
"161 226 CURVE SMOOTH",
"161 275 OFFCURVE",
"213 317 OFFCURVE",
"279 330 CURVE",
"286 178 LINE"
);
},
{
closed = 1;
nodes = (
"1266 -1 LINE",
"1249 678 LINE",
"1111 678 LINE",
"1128 -1 LINE"
);
},
{
closed = 1;
nodes = (
"591 629 OFFCURVE",
"621 659 OFFCURVE",
"621 711 CURVE",
"604 716 LINE",
"604 677 OFFCURVE",
"631 657 OFFCURVE",
"658 657 CURVE SMOOTH",
"713 657 OFFCURVE",
"735 693 OFFCURVE",
"735 742 CURVE SMOOTH",
"735 765 OFFCURVE",
"727 795 OFFCURVE",
"717 815 CURVE",
"664 804 LINE",
"671 785 OFFCURVE",
"676 765 OFFCURVE",
"676 745 CURVE SMOOTH",
"676 724 OFFCURVE",
"671 710 OFFCURVE",
"653 710 CURVE SMOOTH",
"642 710 OFFCURVE",
"637 719 OFFCURVE",
"637 737 CURVE",
"637 792 LINE",
"586 779 LINE",
"586 747 LINE",
"586 698 OFFCURVE",
"577 685 OFFCURVE",
"565 685 CURVE SMOOTH",
"552 685 OFFCURVE",
"547 695 OFFCURVE",
"547 717 CURVE SMOOTH",
"547 729 OFFCURVE",
"549 746 OFFCURVE",
"552 766 CURVE",
"492 756 LINE",
"489 738 OFFCURVE",
"487 724 OFFCURVE",
"487 711 CURVE SMOOTH",
"487 665 OFFCURVE",
"501 629 OFFCURVE",
"556 629 CURVE SMOOTH"
);
},
{
closed = 1;
nodes = (
"643 839 LINE",
"639 967 LINE",
"563 967 LINE",
"567 839 LINE"
);
}
);
vertWidth = 0;
width = 1312.5;
},
{
layerId = "3EC9E734-A013-45CB-A1DF-CD633C54F02E";
paths = (
{
closed = 1;
nodes = (
"523 -5 OFFCURVE",
"559 20 OFFCURVE",
"581 66 CURVE",
"601 21 OFFCURVE",
"644 -5 OFFCURVE",
"706 -5 CURVE SMOOTH",
"865 -5 OFFCURVE",
"886 57 OFFCURVE",
"881 177 CURVE SMOOTH",
"864 654 LINE",
"785 654 LINE",
"801 183 LINE SMOOTH",
"804 92 OFFCURVE",
"797 66 OFFCURVE",
"714 66 CURVE SMOOTH",
"637 66 OFFCURVE",
"622 94 OFFCURVE",
"619 200 CURVE SMOOTH",
"610 543 LINE",
"530 543 LINE",
"538 199 LINE SMOOTH",
"541 106 OFFCURVE",
"538 66 OFFCURVE",
"452 66 CURVE SMOOTH",
"374 66 OFFCURVE",
"359 85 OFFCURVE",
"356 160 CURVE SMOOTH",
"341 512 LINE",
"264 512 LINE",
"268 404 LINE",
"137 377 OFFCURVE",
"41 296 OFFCURVE",
"41 195 CURVE SMOOTH",
"41 88 OFFCURVE",
"163 51 OFFCURVE",
"292 76 CURVE",
"313 11 OFFCURVE",
"366 -5 OFFCURVE",
"443 -5 CURVE SMOOTH"
);
},
{
closed = 1;
nodes = (
"205 123 OFFCURVE",
"117 139 OFFCURVE",
"117 201 CURVE SMOOTH",
"117 262 OFFCURVE",
"189 321 OFFCURVE",
"271 336 CURVE",
"280 139 LINE"
);
},
{
closed = 1;
nodes = (
"1108 -1 LINE",
"1091 654 LINE",
"1011 654 LINE",
"1028 -1 LINE"
);
},
{
closed = 1;
nodes = (
"541 582 OFFCURVE",
"565 613 OFFCURVE",
"565 658 CURVE",
"552 661 LINE",
"552 628 OFFCURVE",
"574 609 OFFCURVE",
"602 609 CURVE SMOOTH",
"649 609 OFFCURVE",
"668 642 OFFCURVE",
"668 686 CURVE SMOOTH",
"668 710 OFFCURVE",
"661 740 OFFCURVE",
"652 758 CURVE",
"616 749 LINE",
"623 730 OFFCURVE",
"628 709 OFFCURVE",
"628 687 CURVE SMOOTH",
"628 662 OFFCURVE",
"621 646 OFFCURVE",
"600 646 CURVE SMOOTH",
"583 646 OFFCURVE",
"575 657 OFFCURVE",
"575 673 CURVE",
"575 734 LINE",
"539 724 LINE",
"539 682 LINE",
"539 635 OFFCURVE",
"525 620 OFFCURVE",
"509 620 CURVE SMOOTH",
"490 620 OFFCURVE",
"483 636 OFFCURVE",
"483 659 CURVE SMOOTH",
"483 671 OFFCURVE",
"485 688 OFFCURVE",
"488 709 CURVE",
"449 701 LINE",
"446 683 OFFCURVE",
"444 668 OFFCURVE",
"444 656 CURVE SMOOTH",
"444 613 OFFCURVE",
"459 582 OFFCURVE",
"504 582 CURVE SMOOTH"
);
},
{
closed = 1;
nodes = (
"576 776 LINE",
"572 912 LINE",
"524 912 LINE",
"528 776 LINE"
);
}
);
vertWidth = 0;
width = 1164.75;
}
);
unicode = FDF2;
script = arabic;
category = Letter;
subCategory = Ligature;
},
{
glyphname = "haa-thaana";
production = haathaana;
layers = (
{
anchors = (
{
name = b.uni07A8;
position = "{4, -6}";
},
{
name = t.uni07A6;
position = "{289, 398}";
}
);
layerId = "F950428B-3F13-4CD6-A68E-5B8ABB069931";
paths = (
{
closed = 1;
nodes = (
"239 430 LINE",
"172 344 OFFCURVE",
"82 245 OFFCURVE",
"10 167 CURVE",
"60 121 OFFCURVE",
"118 69 OFFCURVE",
"159 39 CURVE",
"225 114 OFFCURVE",
"319 223 OFFCURVE",
"378 313 CURVE"
);
}
);
vertWidth = 0;
width = 368;
},
{
anchors = (
{
name = b.uni07A8;
position = "{59, 0}";
},
{
name = t.uni07A6;
position = "{300, 414}";
}
);
layerId = "DD221461-5F58-4856-B7A3-0FD42177026D";
paths = (
{
closed = 1;
nodes = (
"319 420 LINE",
"252 340 OFFCURVE",
"111 174 OFFCURVE",
"5 56 CURVE",
"11 50 OFFCURVE",
"18 43 OFFCURVE",
"23 39 CURVE",
"116 145 OFFCURVE",
"277 331 OFFCURVE",
"338 408 CURVE"
);
}
);
vertWidth = 0;
width = 333;
},
{
anchors = (
{
name = b.uni07A8;
position = "{41, -4}";
},
{
name = t.uni07A6;
position = "{273, 402}";
}
);
layerId = "108A7794-AFCA-4739-A8E0-6E5429236965";
paths = (
{
closed = 1;
nodes = (
"270 421 LINE",
"199 341 OFFCURVE",
"93 227 OFFCURVE",
"10 139 CURVE",
"48 104 OFFCURVE",
"94 63 OFFCURVE",
"126 39 CURVE",
"200 121 OFFCURVE",
"310 248 OFFCURVE",
"381 331 CURVE"
);
}
);
vertWidth = 0;
width = 360;
},
{
anchors = (
{
name = b.uni07A8;
position = "{25, -2}";
},
{
name = t.uni07A6;
position = "{242, 408}";
}
);
layerId = "3EC9E734-A013-45CB-A1DF-CD633C54F02E";
paths = (
{
closed = 1;
nodes = (
"274 418 LINE",
"205 338 OFFCURVE",
"82 196 OFFCURVE",
"-12 93 CURVE",
"9 73 OFFCURVE",
"33 51 OFFCURVE",
"51 38 CURVE",
"134 133 OFFCURVE",
"269 290 OFFCURVE",
"335 370 CURVE"
);
}
);
vertWidth = 0;
width = 312;
}
);
leftKerningGroup = haa;
rightKerningGroup = haa;
unicode = 0780;
script = thaana;
category = Letter;
},
{
glyphname = "shaviyani-thaana";
production = shaviyanithaana;
layers = (
{
anchors = (
{
name = b.uni07A8;
position = "{157, 0}";
},
{
name = t.uni07A6;
position = "{418, 429}";
}
);
components = (
{
alignment = -1;
name = _part.haa;
transform = "{1, 0, 0, 1, -160, 0}";
}
);
layerId = "F950428B-3F13-4CD6-A68E-5B8ABB069931";
paths = (
{
closed = 1;
nodes = (
"341 167 OFFCURVE",
"387 160 OFFCURVE",
"429 160 CURVE SMOOTH",
"478 160 OFFCURVE",
"529 169 OFFCURVE",
"562 211 CURVE SMOOTH",
"596 255 OFFCURVE",
"619 331 OFFCURVE",
"628 408 CURVE",
"517 421 LINE",
"512 405 OFFCURVE",
"503 379 OFFCURVE",
"494 358 CURVE SMOOTH",
"487 342 OFFCURVE",
"481 334 OFFCURVE",
"468 330 CURVE SMOOTH",
"454 326 OFFCURVE",
"441 325 OFFCURVE",
"426 325 CURVE SMOOTH",
"396 325 OFFCURVE",
"358 333 OFFCURVE",
"322 345 CURVE",
"292 179 LINE"
);
}
);
vertWidth = 0;
width = 618;
},
{
anchors = (
{
name = b.uni07A8;
position = "{132, 0}";
},
{
name = t.uni07A6;
position = "{387, 416}";
}
);
components = (
{
alignment = -1;
name = _part.haa;
transform = "{1, 0, 0, 1, -55, 0}";
}
);
layerId = "DD221461-5F58-4856-B7A3-0FD42177026D";
paths = (
{
closed = 1;
nodes = (
"274 271 OFFCURVE",
"302 266 OFFCURVE",
"332 266 CURVE SMOOTH",
"364 266 OFFCURVE",
"407 269 OFFCURVE",
"439 318 CURVE SMOOTH",
"451 336 OFFCURVE",
"469 372 OFFCURVE",
"485 408 CURVE",
"465 413 LINE",
"458 397 OFFCURVE",
"439 360 OFFCURVE",
"431 346 CURVE SMOOTH",
"413 315 OFFCURVE",
"402 305 OFFCURVE",
"390 299 CURVE SMOOTH",
"378 293 OFFCURVE",
"365 288 OFFCURVE",
"335 288 CURVE SMOOTH",
"300 288 OFFCURVE",
"272 297 OFFCURVE",
"257 304 CURVE",
"247 283 LINE"
);
}
);
vertWidth = 0;
width = 476;
},
{
anchors = (
{
name = b.uni07A8;
position = "{157, 0}";
},
{
name = t.uni07A6;
position = "{397, 426}";
}
);
components = (
{
alignment = -1;
name = _part.haa;
transform = "{1, 0, 0, 1, -147, 0}";
}
);
layerId = "108A7794-AFCA-4739-A8E0-6E5429236965";
paths = (
{
closed = 1;
nodes = (
"311 193 OFFCURVE",
"352 187 OFFCURVE",
"391 187 CURVE SMOOTH",
"436 187 OFFCURVE",
"486 193 OFFCURVE",
"518 238 CURVE SMOOTH",
"545 276 OFFCURVE",
"568 341 OFFCURVE",
"579 408 CURVE",
"490 419 LINE",
"485 403 OFFCURVE",
"474 374 OFFCURVE",
"465 355 CURVE SMOOTH",
"455 335 OFFCURVE",
"448 327 OFFCURVE",
"435 322 CURVE SMOOTH",
"421 317 OFFCURVE",
"408 316 OFFCURVE",
"390 316 CURVE SMOOTH",
"358 316 OFFCURVE",
"323 324 OFFCURVE",
"292 335 CURVE",
"267 205 LINE"
);
}
);
vertWidth = 0;
width = 555;
},
{
anchors = (
{
name = b.uni07A8;
position = "{132, 0}";
},
{
name = t.uni07A6;
position = "{390, 421}";
}
);
components = (
{
alignment = -1;
name = _part.haa;
transform = "{1, 0, 0, 1, -103, 0}";
}
);
layerId = "3EC9E734-A013-45CB-A1DF-CD633C54F02E";
paths = (
{
closed = 1;
nodes = (
"290 229 OFFCURVE",
"325 224 OFFCURVE",
"359 224 CURVE SMOOTH",
"400 224 OFFCURVE",
"446 229 OFFCURVE",
"481 278 CURVE SMOOTH",
"501 306 OFFCURVE",
"521 357 OFFCURVE",
"535 408 CURVE",
"473 416 LINE",
"467 400 OFFCURVE",
"454 368 OFFCURVE",
"446 351 CURVE SMOOTH",
"434 325 OFFCURVE",
"423 316 OFFCURVE",
"410 311 CURVE SMOOTH",
"397 306 OFFCURVE",
"384 302 OFFCURVE",
"360 302 CURVE SMOOTH",
"327 302 OFFCURVE",
"295 311 OFFCURVE",
"272 320 CURVE",
"255 241 LINE"
);
}
);
vertWidth = 0;
width = 520;
}
);
leftKerningGroup = shavi;
rightKerningGroup = shavi;
unicode = 0781;
script = thaana;
category = Letter;
},
{
glyphname = "noonu-thaana";
production = noonuthaana;
layers = (
{
anchors = (
{
name = b.uni07A8;
position = "{187, 0}";
},
{
name = t.uni07A6;
position = "{435, 414}";
}
);
components = (
{
alignment = -1;
name = _part.haa;
transform = "{1, 0, 0, 1, -55, 0}";
}
);
layerId = "DD221461-5F58-4856-B7A3-0FD42177026D";
paths = (
{
closed = 1;
nodes = (
"269 266 OFFCURVE",
"289 263 OFFCURVE",
"311 263 CURVE SMOOTH",
"346 263 OFFCURVE",
"383 268 OFFCURVE",
"415 317 CURVE SMOOTH",
"427 336 OFFCURVE",
"440 359 OFFCURVE",
"460 402 CURVE",
"440 408 LINE",
"432 390 OFFCURVE",
"417 359 OFFCURVE",
"407 344 CURVE SMOOTH",
"392 321 OFFCURVE",
"379 305 OFFCURVE",
"368 299 CURVE SMOOTH",
"353 290 OFFCURVE",
"339 285 OFFCURVE",
"313 285 CURVE SMOOTH",
"295 285 OFFCURVE",
"277 288 OFFCURVE",
"260 295 CURVE",
"252 273 LINE"
);
},
{
closed = 1;
nodes = (
"397 271 OFFCURVE",
"425 266 OFFCURVE",
"455 266 CURVE SMOOTH",
"487 266 OFFCURVE",
"530 269 OFFCURVE",
"562 318 CURVE SMOOTH",
"574 336 OFFCURVE",
"592 372 OFFCURVE",
"608 408 CURVE",
"588 413 LINE",
"581 397 OFFCURVE",
"562 360 OFFCURVE",
"554 346 CURVE SMOOTH",
"536 315 OFFCURVE",
"525 305 OFFCURVE",
"513 299 CURVE SMOOTH",
"501 293 OFFCURVE",
"488 288 OFFCURVE",
"458 288 CURVE SMOOTH",
"423 288 OFFCURVE",
"395 297 OFFCURVE",
"380 304 CURVE",
"370 283 LINE"
);
}
);
vertWidth = 0;
width = 599;
},
{
anchors = (
{
name = b.uni07A8;
position = "{169, 0}";
},
{
name = t.uni07A6;
position = "{531, 414}";
}
);
components = (
{
alignment = -1;
name = _part.haa;
transform = "{1, 0, 0, 1, -160, 0}";
}
);
layerId = "F950428B-3F13-4CD6-A68E-5B8ABB069931";
paths = (
{
closed = 1;
nodes = (
"295 176 OFFCURVE",
"336 168 OFFCURVE",
"372 168 CURVE SMOOTH",
"420 168 OFFCURVE",
"465 194 OFFCURVE",
"480 208 CURVE SMOOTH",
"547 272 OFFCURVE",
"566 347 OFFCURVE",
"576 401 CURVE",
"467 413 LINE",
"462 397 OFFCURVE",
"454 375 OFFCURVE",
"445 355 CURVE SMOOTH",
"439 341 OFFCURVE",
"434 333 OFFCURVE",
"419 331 CURVE SMOOTH",
"409 330 OFFCURVE",
"397 330 OFFCURVE",
"389 330 CURVE SMOOTH",
"353 330 OFFCURVE",
"318 344 OFFCURVE",
"280 363 CURVE",
"251 191 LINE"
);
},
{
closed = 1;
nodes = (
"460 178 OFFCURVE",
"513 168 OFFCURVE",
"561 168 CURVE SMOOTH",
"611 168 OFFCURVE",
"674 180 OFFCURVE",
"707 220 CURVE SMOOTH",
"744 266 OFFCURVE",
"764 348 OFFCURVE",
"772 408 CURVE",
"661 421 LINE",
"656 407 OFFCURVE",
"647 383 OFFCURVE",
"639 364 CURVE SMOOTH",
"632 348 OFFCURVE",
"627 340 OFFCURVE",
"614 336 CURVE SMOOTH",
"600 332 OFFCURVE",
"591 331 OFFCURVE",
"576 331 CURVE SMOOTH",
"539 331 OFFCURVE",
"497 346 OFFCURVE",
"460 365 CURVE",
"413 206 LINE"
);
}
);
vertWidth = 0;
width = 762;
},
{
anchors = (
{
name = b.uni07A8;
position = "{175, 0}";
},
{
name = t.uni07A6;
position = "{493, 414}";
}
);
components = (
{
alignment = -1;
name = _part.haa;
transform = "{1, 0, 0, 1, -147, 0}";
}
);
layerId = "108A7794-AFCA-4739-A8E0-6E5429236965";
paths = (
{
closed = 1;
nodes = (
"275 199 OFFCURVE",
"311 192 OFFCURVE",
"343 192 CURVE SMOOTH",
"388 192 OFFCURVE",
"430 214 OFFCURVE",
"450 235 CURVE SMOOTH",
"502 288 OFFCURVE",
"521 350 OFFCURVE",
"533 401 CURVE",
"447 412 LINE",
"441 396 OFFCURVE",
"431 371 OFFCURVE",
"422 352 CURVE SMOOTH",
"414 335 OFFCURVE",
"407 327 OFFCURVE",
"393 323 CURVE SMOOTH",
"382 320 OFFCURVE",
"369 319 OFFCURVE",
"356 319 CURVE SMOOTH",
"325 319 OFFCURVE",
"294 330 OFFCURVE",
"261 346 CURVE",
"238 212 LINE"
);
},
{
closed = 1;
nodes = (
"431 201 OFFCURVE",
"477 193 OFFCURVE",
"521 193 CURVE SMOOTH",
"566 193 OFFCURVE",
"623 204 OFFCURVE",
"657 245 CURVE SMOOTH",
"689 284 OFFCURVE",
"707 354 OFFCURVE",
"717 408 CURVE",
"629 419 LINE",
"624 405 OFFCURVE",
"612 377 OFFCURVE",
"604 360 CURVE SMOOTH",
"595 340 OFFCURVE",
"588 332 OFFCURVE",
"575 327 CURVE SMOOTH",
"561 322 OFFCURVE",
"552 320 OFFCURVE",
"533 320 CURVE SMOOTH",
"496 320 OFFCURVE",
"458 334 OFFCURVE",
"426 350 CURVE",
"389 225 LINE"
);
}
);
vertWidth = 0;
width = 693;
},
{
anchors = (
{
name = b.uni07A8;
position = "{164, 0}";
},
{
name = t.uni07A6;
position = "{462, 414}";
}
);
components = (
{
alignment = -1;
name = _part.haa;
transform = "{1, 0, 0, 1, -103, 0}";
}
);
layerId = "3EC9E734-A013-45CB-A1DF-CD633C54F02E";
paths = (
{
closed = 1;
nodes = (
"269 228 OFFCURVE",
"291 224 OFFCURVE",
"319 224 CURVE SMOOTH",
"366 224 OFFCURVE",
"406 237 OFFCURVE",
"435 275 CURVE SMOOTH",
"464 314 OFFCURVE",
"482 350 OFFCURVE",
"499 400 CURVE",
"437 409 LINE",
"430 392 OFFCURVE",
"418 365 OFFCURVE",
"409 347 CURVE SMOOTH",
"399 327 OFFCURVE",
"390 317 OFFCURVE",
"379 311 CURVE SMOOTH",
"368 305 OFFCURVE",
"356 301 OFFCURVE",
"336 301 CURVE SMOOTH",
"309 301 OFFCURVE",
"287 306 OFFCURVE",
"259 319 CURVE",
"243 238 LINE"
);
},
{
closed = 1;
nodes = (
"411 232 OFFCURVE",
"448 226 OFFCURVE",
"485 226 CURVE SMOOTH",
"525 226 OFFCURVE",
"578 232 OFFCURVE",
"611 278 CURVE SMOOTH",
"632 307 OFFCURVE",
"652 363 OFFCURVE",
"665 410 CURVE",
"604 418 LINE",
"598 402 OFFCURVE",
"585 369 OFFCURVE",
"577 353 CURVE SMOOTH",
"564 327 OFFCURVE",
"554 318 OFFCURVE",
"542 313 CURVE SMOOTH",
"529 308 OFFCURVE",
"518 304 OFFCURVE",
"493 304 CURVE SMOOTH",
"458 304 OFFCURVE",
"424 316 OFFCURVE",
"401 327 CURVE",
"376 250 LINE"
);
}
);
vertWidth = 0;
width = 650;
}
);
leftKerningGroup = shavi;
leftMetricsKey = "shaviyani-thaana";
rightKerningGroup = shavi;
rightMetricsKey = "shaviyani-thaana";
unicode = 0782;
script = thaana;
category = Letter;
},
{
glyphname = "raa-thaana";
production = raathaana;
layers = (
{
anchors = (
{
name = b.uni07A8;
position = "{125, 0}";
},
{
name = t.uni07A6;
position = "{349, 415}";
}
);
layerId = "DD221461-5F58-4856-B7A3-0FD42177026D";
paths = (
{
closed = 1;
nodes = (
"-38 -76 OFFCURVE",
"-30 -83 OFFCURVE",
"-24 -88 CURVE",
"90 41 OFFCURVE",
"203 170 OFFCURVE",
"247 222 CURVE SMOOTH",
"254 230 OFFCURVE",
"254 240 OFFCURVE",
"251 244 CURVE",
"248 238 LINE",
"287 229 OFFCURVE",
"329 222 OFFCURVE",
"381 215 CURVE",
"386 238 LINE",
"331 244 OFFCURVE",
"294 249 OFFCURVE",
"260 257 CURVE",
"270 249 LINE",
"272 255 OFFCURVE",
"280 268 OFFCURVE",
"296 286 CURVE SMOOTH",
"402 403 LINE",
"384 417 LINE",
"277 299 LINE SMOOTH",
"264 284 OFFCURVE",
"254 269 OFFCURVE",
"254 262 CURVE SMOOTH",
"254 259 OFFCURVE",
"256 253 OFFCURVE",
"261 249 CURVE",
"256 259 LINE",
"214 267 OFFCURVE",
"159 282 OFFCURVE",
"134 289 CURVE",
"132 282 OFFCURVE",
"131 274 OFFCURVE",
"131 267 CURVE",
"171 256 OFFCURVE",
"202 248 OFFCURVE",
"241 240 CURVE",
"237 245 LINE",
"150 144 OFFCURVE",
"42 20 OFFCURVE",
"-42 -71 CURVE"
);
}
);
vertWidth = 0;
width = 438;
},
{
anchors = (
{
name = b.uni07A8;
position = "{176, 0}";
},
{
name = t.uni07A6;
position = "{443, 414}";
}
);
layerId = "F950428B-3F13-4CD6-A68E-5B8ABB069931";
paths = (
{
closed = 1;
nodes = (
"57 6 OFFCURVE",
"108 -42 OFFCURVE",
"173 -87 CURVE",
"217 -39 OFFCURVE",
"268 20 OFFCURVE",
"304 62 CURVE SMOOTH",
"334 97 OFFCURVE",
"357 127 OFFCURVE",
"341 203 CURVE",
"259 156 LINE",
"327 133 OFFCURVE",
"391 115 OFFCURVE",
"473 96 CURVE",
"520 221 LINE",
"475 232 OFFCURVE",
"447 239 OFFCURVE",
"428 244 CURVE",
"424 216 LINE",
"437 238 OFFCURVE",
"449 253 OFFCURVE",
"470 275 CURVE SMOOTH",
"512 319 LINE",
"374 441 LINE",
"304 368 LINE SMOOTH",
"272 334 OFFCURVE",
"261 321 OFFCURVE",
"261 300 CURVE SMOOTH",
"261 280 OFFCURVE",
"273 257 OFFCURVE",
"318 234 CURVE",
"381 257 LINE",
"297 280 OFFCURVE",
"233 302 OFFCURVE",
"128 340 CURVE",
"114 297 OFFCURVE",
"97 240 OFFCURVE",
"89 207 CURVE",
"118 195 OFFCURVE",
"161 181 OFFCURVE",
"225 164 CURVE",
"205 224 LINE",
"153 170 OFFCURVE",
"77 92 OFFCURVE",
"24 41 CURVE"
);
}
);
vertWidth = 0;
width = 562;
},
{
anchors = (
{
name = b.uni07A8;
position = "{123, 0}";
},
{
name = t.uni07A6;
position = "{394, 414}";
}
);
layerId = "108A7794-AFCA-4739-A8E0-6E5429236965";
paths = (
{
closed = 1;
nodes = (
"19 -14 OFFCURVE",
"60 -52 OFFCURVE",
"110 -87 CURVE",
"164 -26 OFFCURVE",
"223 41 OFFCURVE",
"255 81 CURVE SMOOTH",
"281 114 OFFCURVE",
"296 140 OFFCURVE",
"284 192 CURVE",
"228 162 LINE",
"290 144 OFFCURVE",
"348 131 OFFCURVE",
"423 117 CURVE",
"467 230 LINE",
"419 238 OFFCURVE",
"389 244 OFFCURVE",
"366 249 CURVE",
"362 229 LINE",
"373 244 OFFCURVE",
"383 257 OFFCURVE",
"402 280 CURVE SMOOTH",
"454 341 LINE",
"354 429 LINE",
"283 351 LINE SMOOTH",
"253 319 OFFCURVE",
"245 308 OFFCURVE",
"245 290 CURVE SMOOTH",
"245 274 OFFCURVE",
"253 254 OFFCURVE",
"288 236 CURVE",
"329 258 LINE",
"255 275 OFFCURVE",
"193 293 OFFCURVE",
"107 321 CURVE",
"95 284 OFFCURVE",
"79 233 OFFCURVE",
"71 205 CURVE",
"102 194 OFFCURVE",
"142 183 OFFCURVE",
"201 169 CURVE",
"179 208 LINE",
"119 143 OFFCURVE",
"48 69 OFFCURVE",
"-6 14 CURVE"
);
}
);
vertWidth = 0;
width = 490;
},
{
anchors = (
{
name = b.uni07A8;
position = "{135, 0}";
},
{
name = t.uni07A6;
position = "{363, 415}";
}
);
layerId = "3EC9E734-A013-45CB-A1DF-CD633C54F02E";
paths = (
{
closed = 1;
nodes = (
"-4 -46 OFFCURVE",
"18 -68 OFFCURVE",
"45 -87 CURVE",
"131 10 OFFCURVE",
"221 112 OFFCURVE",
"260 159 CURVE SMOOTH",
"276 178 OFFCURVE",
"286 190 OFFCURVE",
"277 224 CURVE",
"244 200 LINE",
"295 187 OFFCURVE",
"345 177 OFFCURVE",
"408 166 CURVE",
"433 236 LINE",
"381 243 OFFCURVE",
"348 249 OFFCURVE",
"319 255 CURVE",
"320 238 LINE",
"325 250 OFFCURVE",
"331 260 OFFCURVE",
"353 285 CURVE SMOOTH",
"427 369 LINE",
"370 421 LINE",
"285 324 LINE SMOOTH",
"264 301 OFFCURVE",
"255 290 OFFCURVE",
"255 277 CURVE SMOOTH",
"255 268 OFFCURVE",
"260 255 OFFCURVE",
"280 244 CURVE",
"299 260 LINE",
"241 272 OFFCURVE",
"182 289 OFFCURVE",
"127 306 CURVE",
"119 284 OFFCURVE",
"109 254 OFFCURVE",
"107 235 CURVE",
"143 224 OFFCURVE",
"178 215 OFFCURVE",
"227 204 CURVE",
"224 234 LINE",
"150 151 OFFCURVE",
"55 45 OFFCURVE",
"-18 -32 CURVE"
);
}
);
vertWidth = 0;
width = 484;
}
);
leftKerningGroup = raa;
rightKerningGroup = raa;
unicode = 0783;
script = thaana;
category = Letter;
},
{
glyphname = "baa-thaana";
production = baathaana;
layers = (
{
anchors = (
{
name = b.uni07A8;
position = "{139, 0}";
},
{
name = t.uni07A6;
position = "{356, 414}";
}
);
layerId = "F950428B-3F13-4CD6-A68E-5B8ABB069931";
paths = (
{
closed = 1;
nodes = (
"49 91 OFFCURVE",
"134 40 OFFCURVE",
"236 40 CURVE SMOOTH",
"404 40 OFFCURVE",
"548 117 OFFCURVE",
"548 275 CURVE SMOOTH",
"548 345 OFFCURVE",
"508 414 OFFCURVE",
"430 414 CURVE SMOOTH",
"366 414 OFFCURVE",
"320 369 OFFCURVE",
"283 284 CURVE",
"326 218 LINE",
"344 244 OFFCURVE",
"370 264 OFFCURVE",
"396 264 CURVE SMOOTH",
"411 264 OFFCURVE",
"432 256 OFFCURVE",
"432 247 CURVE SMOOTH",
"432 230 OFFCURVE",
"336 194 OFFCURVE",
"226 194 CURVE SMOOTH",
"194 194 OFFCURVE",
"157 202 OFFCURVE",
"157 207 CURVE SMOOTH",
"157 211 OFFCURVE",
"194 237 OFFCURVE",
"230 237 CURVE SMOOTH",
"256 237 OFFCURVE",
"266 227 OFFCURVE",
"266 218 CURVE SMOOTH",
"266 195 OFFCURVE",
"243 178 OFFCURVE",
"216 160 CURVE",
"294 122 LINE",
"320 166 OFFCURVE",
"337 213 OFFCURVE",
"337 252 CURVE SMOOTH",
"337 341 OFFCURVE",
"286 383 OFFCURVE",
"226 383 CURVE SMOOTH",
"134 383 OFFCURVE",
"49 310 OFFCURVE",
"49 194 CURVE SMOOTH"
);
}
);
vertWidth = 0;
width = 565;
},
{
anchors = (
{
name = b.uni07A8;
position = "{151, 0}";
},
{
name = t.uni07A6;
position = "{365, 415}";
}
);
layerId = "DD221461-5F58-4856-B7A3-0FD42177026D";
paths = (
{
closed = 1;
nodes = (
"48 108 OFFCURVE",
"102 40 OFFCURVE",
"206 40 CURVE SMOOTH",
"361 40 OFFCURVE",
"490 179 OFFCURVE",
"490 290 CURVE SMOOTH",
"490 354 OFFCURVE",
"450 414 OFFCURVE",
"378 414 CURVE SMOOTH",
"319 414 OFFCURVE",
"271 380 OFFCURVE",
"224 310 CURVE",
"237 297 LINE",
"278 356 OFFCURVE",
"323 392 OFFCURVE",
"375 392 CURVE SMOOTH",
"433 392 OFFCURVE",
"469 345 OFFCURVE",
"469 289 CURVE SMOOTH",
"469 195 OFFCURVE",
"349 62 OFFCURVE",
"205 62 CURVE SMOOTH",
"115 62 OFFCURVE",
"69 124 OFFCURVE",
"69 184 CURVE SMOOTH",
"69 244 OFFCURVE",
"118 303 OFFCURVE",
"187 303 CURVE SMOOTH",
"244 303 OFFCURVE",
"295 262 OFFCURVE",
"295 191 CURVE SMOOTH",
"295 133 OFFCURVE",
"252 86 OFFCURVE",
"204 53 CURVE",
"225 46 LINE",
"283 87 OFFCURVE",
"316 137 OFFCURVE",
"316 195 CURVE SMOOTH",
"316 278 OFFCURVE",
"254 325 OFFCURVE",
"187 325 CURVE SMOOTH",
"105 325 OFFCURVE",
"48 255 OFFCURVE",
"48 182 CURVE SMOOTH"
);
}
);
vertWidth = 0;
width = 528;
},
{
anchors = (
{
name = b.uni07A8;
position = "{132, 0}";
},
{
name = t.uni07A6;
position = "{346, 414}";
}
);
layerId = "108A7794-AFCA-4739-A8E0-6E5429236965";
paths = (
{
closed = 1;
nodes = (
"39 95 OFFCURVE",
"116 40 OFFCURVE",
"218 40 CURVE SMOOTH",
"387 40 OFFCURVE",
"530 137 OFFCURVE",
"530 286 CURVE SMOOTH",
"530 351 OFFCURVE",
"488 414 OFFCURVE",
"407 414 CURVE SMOOTH",
"344 414 OFFCURVE",
"298 372 OFFCURVE",
"251 302 CURVE",
"294 238 LINE",
"317 270 OFFCURVE",
"351 291 OFFCURVE",
"382 291 CURVE SMOOTH",
"403 291 OFFCURVE",
"419 282 OFFCURVE",
"419 266 CURVE SMOOTH",
"419 230 OFFCURVE",
"323 166 OFFCURVE",
"211 166 CURVE SMOOTH",
"172 166 OFFCURVE",
"141 184 OFFCURVE",
"141 201 CURVE SMOOTH",
"141 222 OFFCURVE",
"173 250 OFFCURVE",
"209 250 CURVE SMOOTH",
"240 250 OFFCURVE",
"256 235 OFFCURVE",
"256 212 CURVE SMOOTH",
"256 181 OFFCURVE",
"229 156 OFFCURVE",
"199 133 CURVE",
"271 103 LINE",
"309 144 OFFCURVE",
"331 189 OFFCURVE",
"331 235 CURVE SMOOTH",
"331 320 OFFCURVE",
"272 369 OFFCURVE",
"206 369 CURVE SMOOTH",
"117 369 OFFCURVE",
"39 296 OFFCURVE",
"39 191 CURVE SMOOTH"
);
}
);
vertWidth = 0;
width = 540;
},
{
anchors = (
{
name = b.uni07A8;
position = "{149, 0}";
},
{
name = t.uni07A6;
position = "{358, 415}";
}
);
layerId = "3EC9E734-A013-45CB-A1DF-CD633C54F02E";
paths = (
{
closed = 1;
nodes = (
"51 102 OFFCURVE",
"112 40 OFFCURVE",
"224 40 CURVE SMOOTH",
"375 40 OFFCURVE",
"514 156 OFFCURVE",
"514 283 CURVE SMOOTH",
"514 351 OFFCURVE",
"474 414 OFFCURVE",
"398 414 CURVE SMOOTH",
"339 414 OFFCURVE",
"286 376 OFFCURVE",
"248 301 CURVE",
"286 268 LINE",
"314 309 OFFCURVE",
"348 336 OFFCURVE",
"384 336 CURVE SMOOTH",
"419 336 OFFCURVE",
"444 312 OFFCURVE",
"444 280 CURVE SMOOTH",
"444 208 OFFCURVE",
"339 117 OFFCURVE",
"226 117 CURVE SMOOTH",
"157 117 OFFCURVE",
"120 151 OFFCURVE",
"120 193 CURVE SMOOTH",
"120 233 OFFCURVE",
"158 270 OFFCURVE",
"204 270 CURVE SMOOTH",
"242 270 OFFCURVE",
"271 243 OFFCURVE",
"271 201 CURVE SMOOTH",
"271 157 OFFCURVE",
"248 124 OFFCURVE",
"201 93 CURVE",
"255 78 LINE",
"318 112 OFFCURVE",
"338 166 OFFCURVE",
"338 217 CURVE SMOOTH",
"338 302 OFFCURVE",
"274 347 OFFCURVE",
"204 347 CURVE SMOOTH",
"118 347 OFFCURVE",
"51 276 OFFCURVE",
"51 188 CURVE SMOOTH"
);
}
);
vertWidth = 0;
width = 546;
}
);
unicode = 0784;
script = thaana;
category = Letter;
},
{
glyphname = "lhaviyani-thaana";
production = lhaviyanithaana;
layers = (
{
anchors = (
{
name = b.uni07A8;
position = "{60, 0}";
},
{
name = t.uni07A6;
position = "{278, 414}";
}
);
layerId = "F950428B-3F13-4CD6-A68E-5B8ABB069931";
paths = (
{
closed = 1;
nodes = (
"129 124 OFFCURVE",
"184 79 OFFCURVE",
"237 39 CURVE",
"288 96 OFFCURVE",
"393 218 OFFCURVE",
"469 308 CURVE",
"333 418 LINE",
"287 379 OFFCURVE",
"249 354 OFFCURVE",
"226 354 CURVE SMOOTH",
"210 354 OFFCURVE",
"203 360 OFFCURVE",
"203 379 CURVE SMOOTH",
"203 389 OFFCURVE",
"204 400 OFFCURVE",
"206 414 CURVE",
"101 405 LINE",
"100 396 OFFCURVE",
"99 386 OFFCURVE",
"99 369 CURVE SMOOTH",
"99 318 OFFCURVE",
"107 258 OFFCURVE",
"186 258 CURVE SMOOTH",
"206 258 OFFCURVE",
"220 260 OFFCURVE",
"243 264 CURVE",
"212 294 LINE",
"176 255 OFFCURVE",
"136 214 OFFCURVE",
"87 164 CURVE"
);
}
);
vertWidth = 0;
width = 459;
},
{
anchors = (
{
name = b.uni07A8;
position = "{92, 0}";
},
{
name = t.uni07A6;
position = "{306, 414}";
}
);
layerId = "DD221461-5F58-4856-B7A3-0FD42177026D";
paths = (
{
closed = 1;
nodes = (
"59 51 OFFCURVE",
"67 43 OFFCURVE",
"71 40 CURVE",
"198 183 OFFCURVE",
"342 347 OFFCURVE",
"392 405 CURVE",
"376 418 LINE",
"325 362 OFFCURVE",
"265 319 OFFCURVE",
"214 319 CURVE SMOOTH",
"182 319 OFFCURVE",
"165 334 OFFCURVE",
"165 365 CURVE SMOOTH",
"165 376 OFFCURVE",
"167 392 OFFCURVE",
"170 411 CURVE",
"148 410 LINE",
"146 393 OFFCURVE",
"145 379 OFFCURVE",
"145 368 CURVE SMOOTH",
"145 316 OFFCURVE",
"177 297 OFFCURVE",
"212 297 CURVE SMOOTH",
"246 297 OFFCURVE",
"281 316 OFFCURVE",
"322 350 CURVE",
"316 352 LINE",
"269 295 OFFCURVE",
"119 126 OFFCURVE",
"54 57 CURVE"
);
}
);
vertWidth = 0;
width = 387;
},
{
anchors = (
{
name = b.uni07A8;
position = "{35, 0}";
},
{
name = t.uni07A6;
position = "{247, 414}";
}
);
layerId = "108A7794-AFCA-4739-A8E0-6E5429236965";
paths = (
{
closed = 1;
nodes = (
"79 106 OFFCURVE",
"122 70 OFFCURVE",
"163 39 CURVE",
"233 117 OFFCURVE",
"347 250 OFFCURVE",
"417 332 CURVE",
"311 420 LINE",
"271 375 OFFCURVE",
"236 345 OFFCURVE",
"208 345 CURVE SMOOTH",
"190 345 OFFCURVE",
"181 354 OFFCURVE",
"181 375 CURVE SMOOTH",
"181 387 OFFCURVE",
"182 404 OFFCURVE",
"184 413 CURVE",
"91 406 LINE",
"90 395 OFFCURVE",
"89 384 OFFCURVE",
"89 368 CURVE SMOOTH",
"89 314 OFFCURVE",
"102 260 OFFCURVE",
"166 260 CURVE SMOOTH",
"187 260 OFFCURVE",
"204 268 OFFCURVE",
"230 286 CURVE",
"205 309 LINE",
"166 266 OFFCURVE",
"100 194 OFFCURVE",
"46 137 CURVE"
);
}
);
vertWidth = 0;
width = 396;
},
{
anchors = (
{
name = b.uni07A8;
position = "{65, 0}";
},
{
name = t.uni07A6;
position = "{268, 414}";
}
);
layerId = "3EC9E734-A013-45CB-A1DF-CD633C54F02E";
paths = (
{
closed = 1;
nodes = (
"75 77 OFFCURVE",
"100 56 OFFCURVE",
"121 40 CURVE",
"218 149 OFFCURVE",
"346 298 OFFCURVE",
"406 369 CURVE",
"345 417 LINE",
"301 371 OFFCURVE",
"253 335 OFFCURVE",
"213 335 CURVE SMOOTH",
"188 335 OFFCURVE",
"181 348 OFFCURVE",
"181 368 CURVE SMOOTH",
"181 380 OFFCURVE",
"183 395 OFFCURVE",
"186 412 CURVE",
"121 408 LINE",
"119 391 OFFCURVE",
"118 377 OFFCURVE",
"118 359 CURVE SMOOTH",
"118 307 OFFCURVE",
"141 272 OFFCURVE",
"191 272 CURVE SMOOTH",
"218 272 OFFCURVE",
"244 287 OFFCURVE",
"278 318 CURVE",
"270 328 LINE",
"227 278 OFFCURVE",
"116 157 OFFCURVE",
"57 94 CURVE"
);
}
);
vertWidth = 0;
width = 383;
}
);
rightMetricsKey = "haa-thaana";
unicode = 0785;
script = thaana;
category = Letter;
},
{
glyphname = "kaafu-thaana";
production = kaafuthaana;
layers = (
{
anchors = (
{
name = b.uni07A8;
position = "{92, 0}";
},
{
name = t.uni07A6;
position = "{267, 414}";
}
);
layerId = "DD221461-5F58-4856-B7A3-0FD42177026D";
paths = (
{
closed = 1;
nodes = (
"96 260 OFFCURVE",
"97 156 OFFCURVE",
"87 47 CURVE",
"110 40 LINE",
"196 138 OFFCURVE",
"326 288 OFFCURVE",
"426 404 CURVE",
"407 419 LINE",
"302 292 OFFCURVE",
"152 120 OFFCURVE",
"104 66 CURVE",
"114 73 LINE",
"98 73 LINE",
"106 61 LINE",
"120 165 OFFCURVE",
"116 284 OFFCURVE",
"111 372 CURVE",
"88 366 LINE"
);
}
);
vertWidth = 0;
width = 421;
},
{
anchors = (
{
name = b.uni07A8;
position = "{116, 0}";
},
{
name = t.uni07A6;
position = "{340, 414}";
}
);
layerId = "F950428B-3F13-4CD6-A68E-5B8ABB069931";
paths = (
{
closed = 1;
nodes = (
"84 263 OFFCURVE",
"89 195 OFFCURVE",
"95 94 CURVE",
"308 39 LINE",
"358 93 OFFCURVE",
"484 236 OFFCURVE",
"547 308 CURVE",
"400 418 LINE",
"362 371 OFFCURVE",
"317 316 OFFCURVE",
"266 258 CURVE",
"275 264 LINE",
"256 264 LINE",
"260 262 LINE",
"260 306 OFFCURVE",
"262 346 OFFCURVE",
"266 389 CURVE",
"75 363 LINE"
);
}
);
vertWidth = 0;
width = 537;
},
{
anchors = (
{
name = b.uni07A8;
position = "{128, 0}";
},
{
name = t.uni07A6;
position = "{317, 414}";
}
);
layerId = "108A7794-AFCA-4739-A8E0-6E5429236965";
paths = (
{
closed = 1;
nodes = (
"82 262 OFFCURVE",
"88 182 OFFCURVE",
"88 82 CURVE",
"251 39 LINE",
"310 106 OFFCURVE",
"438 251 OFFCURVE",
"511 332 CURVE",
"399 417 LINE",
"344 351 OFFCURVE",
"273 267 OFFCURVE",
"223 212 CURVE",
"230 220 LINE",
"212 220 LINE",
"220 215 LINE",
"224 273 OFFCURVE",
"225 332 OFFCURVE",
"225 385 CURVE",
"73 364 LINE"
);
}
);
vertWidth = 0;
width = 490;
},
{
anchors = (
{
name = b.uni07A8;
position = "{105, 0}";
},
{
name = t.uni07A6;
position = "{287, 414}";
}
);
layerId = "3EC9E734-A013-45CB-A1DF-CD633C54F02E";
paths = (
{
closed = 1;
nodes = (
"83 261 OFFCURVE",
"83 171 OFFCURVE",
"83 65 CURVE",
"173 40 LINE",
"245 121 OFFCURVE",
"375 269 OFFCURVE",
"460 366 CURVE",
"395 417 LINE",
"317 322 OFFCURVE",
"209 196 OFFCURVE",
"153 132 CURVE",
"179 142 LINE",
"150 142 LINE",
"158 132 LINE",
"161 186 OFFCURVE",
"165 309 OFFCURVE",
"161 379 CURVE",
"73 365 LINE"
);
}
);
vertWidth = 0;
width = 437;
}
);
leftKerningGroup = kaafu;
rightMetricsKey = "haa-thaana";
unicode = 0786;
script = thaana;
category = Letter;
},
{
glyphname = "alifu-thaana";
production = alifuthaana;
layers = (
{
anchors = (
{
name = b.uni07A8;
position = "{94, 0}";
},
{
name = t.uni07A6;
position = "{294, 414}";
}
);
layerId = "DD221461-5F58-4856-B7A3-0FD42177026D";
paths = (
{
closed = 1;
nodes = (
"11 51 OFFCURVE",
"16 46 OFFCURVE",
"22 40 CURVE",
"100 130 OFFCURVE",
"223 273 OFFCURVE",
"316 385 CURVE",
"307 382 LINE",
"321 382 LINE",
"315 383 LINE",
"314 297 OFFCURVE",
"310 183 OFFCURVE",
"303 88 CURVE",
"327 90 LINE",
"330 155 OFFCURVE",
"335 309 OFFCURVE",
"337 407 CURVE",
"314 414 LINE",
"193 272 OFFCURVE",
"86 149 OFFCURVE",
"5 57 CURVE"
);
}
);
vertWidth = 0;
width = 418;
},
{
anchors = (
{
name = b.uni07A8;
position = "{69, 0}";
},
{
name = t.uni07A6;
position = "{357, 414}";
}
);
layerId = "F950428B-3F13-4CD6-A68E-5B8ABB069931";
paths = (
{
closed = 1;
nodes = (
"59 118 OFFCURVE",
"117 72 OFFCURVE",
"159 39 CURVE",
"222 110 OFFCURVE",
"267 165 OFFCURVE",
"299 209 CURVE",
"279 205 LINE",
"309 205 LINE",
"310 209 LINE",
"303 144 OFFCURVE",
"295 87 OFFCURVE",
"292 68 CURVE",
"488 79 LINE",
"488 119 OFFCURVE",
"486 299 OFFCURVE",
"483 382 CURVE",
"255 418 LINE",
"203 362 OFFCURVE",
"93 249 OFFCURVE",
"10 167 CURVE"
);
}
);
vertWidth = 0;
width = 542;
},
{
anchors = (
{
name = b.uni07A8;
position = "{80, 0}";
},
{
name = t.uni07A6;
position = "{347, 414}";
}
);
layerId = "108A7794-AFCA-4739-A8E0-6E5429236965";
paths = (
{
closed = 1;
nodes = (
"48 100 OFFCURVE",
"89 66 OFFCURVE",
"124 39 CURVE",
"190 114 OFFCURVE",
"253 191 OFFCURVE",
"300 251 CURVE",
"283 247 LINE",
"309 247 LINE",
"305 250 LINE",
"301 182 OFFCURVE",
"295 111 OFFCURVE",
"291 73 CURVE",
"448 82 LINE",
"448 128 OFFCURVE",
"445 302 OFFCURVE",
"442 388 CURVE",
"271 416 LINE",
"202 339 OFFCURVE",
"93 223 OFFCURVE",
"10 139 CURVE"
);
}
);
vertWidth = 0;
width = 496;
},
{
anchors = (
{
name = b.uni07A8;
position = "{73, 0}";
},
{
name = t.uni07A6;
position = "{293, 414}";
}
);
layerId = "3EC9E734-A013-45CB-A1DF-CD633C54F02E";
paths = (
{
closed = 1;
nodes = (
"9 75 OFFCURVE",
"31 55 OFFCURVE",
"49 40 CURVE",
"120 122 OFFCURVE",
"213 230 OFFCURVE",
"285 320 CURVE",
"271 316 LINE",
"291 316 LINE",
"288 323 LINE",
"284 238 OFFCURVE",
"278 147 OFFCURVE",
"273 81 CURVE",
"363 86 LINE",
"365 142 OFFCURVE",
"367 307 OFFCURVE",
"367 400 CURVE",
"268 416 LINE",
"175 305 OFFCURVE",
"69 186 OFFCURVE",
"-12 97 CURVE"
);
}
);
vertWidth = 0;
width = 442;
}
);
leftMetricsKey = "haa-thaana";
rightKerningGroup = alifu;
unicode = 0787;
script = thaana;
category = Letter;
},
{
glyphname = "vaavu-thaana";
production = vaavuthaana;
layers = (
{
anchors = (
{
name = b.uni07A8;
position = "{125, 0}";
},
{
name = t.uni07A6;
position = "{252, 414}";
}
);
layerId = "DD221461-5F58-4856-B7A3-0FD42177026D";
paths = (
{
closed = 1;
nodes = (
"7 -76 OFFCURVE",
"14 -82 OFFCURVE",
"21 -87 CURVE",
"113 18 OFFCURVE",
"201 120 OFFCURVE",
"286 221 CURVE SMOOTH",
"342 287 OFFCURVE",
"353 310 OFFCURVE",
"353 339 CURVE SMOOTH",
"353 385 OFFCURVE",
"321 414 OFFCURVE",
"269 414 CURVE SMOOTH",
"184 414 OFFCURVE",
"110 342 OFFCURVE",
"110 274 CURVE SMOOTH",
"110 214 OFFCURVE",
"152 172 OFFCURVE",
"224 164 CURVE",
"233 183 LINE",
"173 191 OFFCURVE",
"131 218 OFFCURVE",
"131 272 CURVE SMOOTH",
"131 337 OFFCURVE",
"205 392 OFFCURVE",
"270 392 CURVE SMOOTH",
"312 392 OFFCURVE",
"332 370 OFFCURVE",
"332 342 CURVE SMOOTH",
"332 315 OFFCURVE",
"315 289 OFFCURVE",
"269 234 CURVE SMOOTH",
"205 158 OFFCURVE",
"90 26 OFFCURVE",
"3 -71 CURVE"
);
}
);
vertWidth = 0;
width = 400;
},
{
anchors = (
{
name = b.uni07A8;
position = "{173, 0}";
},
{
name = t.uni07A6;
position = "{291, 415}";
}
);
layerId = "F950428B-3F13-4CD6-A68E-5B8ABB069931";
paths = (
{
closed = 1;
nodes = (
"99 -7 OFFCURVE",
"153 -52 OFFCURVE",
"202 -90 CURVE",
"260 -24 OFFCURVE",
"324 52 OFFCURVE",
"376 114 CURVE SMOOTH",
"409 153 OFFCURVE",
"436 185 OFFCURVE",
"436 240 CURVE SMOOTH",
"436 326 OFFCURVE",
"354 415 OFFCURVE",
"238 415 CURVE SMOOTH",
"155 415 OFFCURVE",
"58 370 OFFCURVE",
"58 279 CURVE SMOOTH",
"58 205 OFFCURVE",
"109 141 OFFCURVE",
"188 107 CURVE",
"277 168 LINE",
"219 174 OFFCURVE",
"181 196 OFFCURVE",
"181 225 CURVE SMOOTH",
"181 254 OFFCURVE",
"223 275 OFFCURVE",
"255 275 CURVE SMOOTH",
"267 275 OFFCURVE",
"275 269 OFFCURVE",
"275 264 CURVE SMOOTH",
"275 256 OFFCURVE",
"271 250 OFFCURVE",
"202 181 CURVE SMOOTH",
"161 140 OFFCURVE",
"109 90 OFFCURVE",
"53 38 CURVE"
);
}
);
vertWidth = 0;
width = 467;
},
{
anchors = (
{
name = b.uni07A8;
position = "{200, 0}";
},
{
name = t.uni07A6;
position = "{297, 415}";
}
);
layerId = "108A7794-AFCA-4739-A8E0-6E5429236965";
paths = (
{
closed = 1;
nodes = (
"98 -24 OFFCURVE",
"142 -58 OFFCURVE",
"180 -87 CURVE",
"249 -9 OFFCURVE",
"320 73 OFFCURVE",
"385 150 CURVE SMOOTH",
"414 185 OFFCURVE",
"437 213 OFFCURVE",
"437 258 CURVE SMOOTH",
"437 343 OFFCURVE",
"343 414 OFFCURVE",
"240 414 CURVE SMOOTH",
"145 414 OFFCURVE",
"57 358 OFFCURVE",
"57 263 CURVE SMOOTH",
"57 190 OFFCURVE",
"120 134 OFFCURVE",
"194 99 CURVE",
"270 145 LINE",
"222 167 OFFCURVE",
"185 190 OFFCURVE",
"185 228 CURVE SMOOTH",
"185 271 OFFCURVE",
"232 299 OFFCURVE",
"276 299 CURVE SMOOTH",
"294 299 OFFCURVE",
"305 294 OFFCURVE",
"305 281 CURVE SMOOTH",
"305 271 OFFCURVE",
"297 260 OFFCURVE",
"236 194 CURVE SMOOTH",
"191 145 OFFCURVE",
"125 74 OFFCURVE",
"63 11 CURVE"
);
}
);
vertWidth = 0;
width = 448;
},
{
anchors = (
{
name = b.uni07A8;
position = "{161, 0}";
},
{
name = t.uni07A6;
position = "{278, 415}";
}
);
layerId = "3EC9E734-A013-45CB-A1DF-CD633C54F02E";
paths = (
{
closed = 1;
nodes = (
"54 -49 OFFCURVE",
"76 -71 OFFCURVE",
"97 -87 CURVE",
"174 -3 OFFCURVE",
"250 80 OFFCURVE",
"318 162 CURVE SMOOTH",
"372 227 OFFCURVE",
"392 254 OFFCURVE",
"392 302 CURVE SMOOTH",
"392 366 OFFCURVE",
"344 414 OFFCURVE",
"264 414 CURVE SMOOTH",
"169 414 OFFCURVE",
"85 356 OFFCURVE",
"85 265 CURVE SMOOTH",
"85 201 OFFCURVE",
"138 147 OFFCURVE",
"212 127 CURVE",
"257 172 LINE",
"202 187 OFFCURVE",
"163 208 OFFCURVE",
"163 253 CURVE SMOOTH",
"163 304 OFFCURVE",
"223 340 OFFCURVE",
"276 340 CURVE SMOOTH",
"304 340 OFFCURVE",
"316 328 OFFCURVE",
"316 309 CURVE SMOOTH",
"316 289 OFFCURVE",
"312 270 OFFCURVE",
"261 212 CURVE SMOOTH",
"204 148 OFFCURVE",
"112 49 OFFCURVE",
"35 -30 CURVE"
);
}
);
vertWidth = 0;
width = 424;
}
);
unicode = 0788;
script = thaana;
category = Letter;
},
{
glyphname = "meemu-thaana";
production = meemuthaana;
layers = (
{
anchors = (
{
name = b.uni07A8;
position = "{52, 0}";
},
{
name = t.uni07A6;
position = "{242, 414}";
}
);
layerId = "DD221461-5F58-4856-B7A3-0FD42177026D";
paths = (
{
closed = 1;
nodes = (
"77 49 OFFCURVE",
"83 44 OFFCURVE",
"91 39 CURVE",
"199 163 OFFCURVE",
"289 268 OFFCURVE",
"359 351 CURVE",
"355 371 LINE",
"345 380 OFFCURVE",
"292 414 OFFCURVE",
"211 414 CURVE SMOOTH",
"169 414 OFFCURVE",
"128 405 OFFCURVE",
"88 393 CURVE",
"89 386 OFFCURVE",
"90 380 OFFCURVE",
"92 374 CURVE",
"95 371 LINE",
"134 384 OFFCURVE",
"175 392 OFFCURVE",
"212 392 CURVE SMOOTH",
"263 392 OFFCURVE",
"316 373 OFFCURVE",
"336 356 CURVE",
"333 368 LINE",
"333 345 LINE",
"334 357 LINE",
"286 299 OFFCURVE",
"149 141 OFFCURVE",
"72 54 CURVE"
);
}
);
vertWidth = 0;
width = 384;
},
{
anchors = (
{
name = b.uni07A8;
position = "{24, 0}";
},
{
name = t.uni07A6;
position = "{256, 414}";
}
);
layerId = "108A7794-AFCA-4739-A8E0-6E5429236965";
paths = (
{
closed = 1;
nodes = (
"91 111 OFFCURVE",
"132 74 OFFCURVE",
"176 39 CURVE",
"263 139 OFFCURVE",
"330 217 OFFCURVE",
"377 274 CURVE",
"362 387 LINE",
"332 399 OFFCURVE",
"281 413 OFFCURVE",
"222 413 CURVE SMOOTH",
"172 413 OFFCURVE",
"126 407 OFFCURVE",
"67 391 CURVE",
"72 357 OFFCURVE",
"78 317 OFFCURVE",
"86 273 CURVE",
"96 267 LINE",
"134 285 OFFCURVE",
"167 292 OFFCURVE",
"196 292 CURVE SMOOTH",
"215 292 OFFCURVE",
"231 289 OFFCURVE",
"236 286 CURVE",
"216 312 LINE",
"216 279 LINE",
"224 294 LINE",
"196 267 OFFCURVE",
"109 185 OFFCURVE",
"60 139 CURVE"
);
}
);
vertWidth = 0;
width = 380;
},
{
anchors = (
{
name = b.uni07A8;
position = "{54, 0}";
},
{
name = t.uni07A6;
position = "{260, 414}";
}
);
layerId = "3EC9E734-A013-45CB-A1DF-CD633C54F02E";
paths = (
{
closed = 1;
nodes = (
"102 78 OFFCURVE",
"123 59 OFFCURVE",
"147 39 CURVE",
"242 150 OFFCURVE",
"319 240 OFFCURVE",
"376 309 CURVE",
"370 377 LINE",
"351 388 OFFCURVE",
"293 414 OFFCURVE",
"217 414 CURVE SMOOTH",
"175 414 OFFCURVE",
"134 406 OFFCURVE",
"82 390 CURVE",
"84 370 OFFCURVE",
"87 348 OFFCURVE",
"93 323 CURVE",
"100 313 LINE",
"141 329 OFFCURVE",
"178 336 OFFCURVE",
"214 336 CURVE SMOOTH",
"250 336 OFFCURVE",
"279 331 OFFCURVE",
"303 324 CURVE",
"289 340 LINE",
"289 312 LINE",
"299 331 LINE",
"255 282 OFFCURVE",
"147 163 OFFCURVE",
"85 95 CURVE"
);
}
);
vertWidth = 0;
width = 384;
},
{
anchors = (
{
name = b.uni07A8;
position = "{16, 0}";
},
{
name = t.uni07A6;
position = "{265, 414}";
}
);
associatedMasterId = "F950428B-3F13-4CD6-A68E-5B8ABB069931";
layerId = "32BEF071-1E56-468C-A4DF-B75DEA4A1BE2";
name = "3 Sep 22, 17:44";
paths = (
{
closed = 1;
nodes = (
"415 360 OFFCURVE",
"339 414 OFFCURVE",
"222 414 CURVE SMOOTH",
"168 414 OFFCURVE",
"106 402 OFFCURVE",
"45 382 CURVE",
"95 252 LINE",
"130 274 OFFCURVE",
"154 284 OFFCURVE",
"176 284 CURVE SMOOTH",
"186 284 OFFCURVE",
"193 282 OFFCURVE",
"193 274 CURVE SMOOTH",
"193 265 OFFCURVE",
"144 228 OFFCURVE",
"60 167 CURVE",
"108 123 OFFCURVE",
"157 81 OFFCURVE",
"209 39 CURVE",
"255 76 OFFCURVE",
"302 115 OFFCURVE",
"353 160 CURVE SMOOTH",
"392 195 OFFCURVE",
"415 231 OFFCURVE",
"415 276 CURVE SMOOTH"
);
}
);
vertWidth = 0;
width = 407;
},
{
anchors = (
{
name = b.uni07A8;
position = "{16, 0}";
},
{
name = t.uni07A6;
position = "{265, 414}";
}
);
associatedMasterId = "F950428B-3F13-4CD6-A68E-5B8ABB069931";
layerId = "C5AC464A-DDDB-486D-AD56-C08398B0E812";
name = "3 Sep 22, 17:46";
paths = (
{
closed = 1;
nodes = (
"99 132 OFFCURVE",
"153 84 OFFCURVE",
"209 39 CURVE",
"309 133 OFFCURVE",
"366 198 OFFCURVE",
"388 230 CURVE SMOOTH",
"425 285 OFFCURVE",
"391 364 OFFCURVE",
"365 384 CURVE SMOOTH",
"341 402 OFFCURVE",
"297 414 OFFCURVE",
"236 414 CURVE SMOOTH",
"185 414 OFFCURVE",
"140 410 OFFCURVE",
"71 394 CURVE",
"77 359 OFFCURVE",
"86 314 OFFCURVE",
"95 271 CURVE",
"112 262 LINE",
"132 275 OFFCURVE",
"155 279 OFFCURVE",
"172 279 CURVE SMOOTH",
"185 279 OFFCURVE",
"192 278 OFFCURVE",
"194 278 CURVE",
"183 293 LINE",
"183 257 LINE",
"190 276 LINE",
"156 248 OFFCURVE",
"98 200 OFFCURVE",
"60 167 CURVE"
);
}
);
vertWidth = 0;
width = 407;
},
{
anchors = (
{
name = b.uni07A8;
position = "{16, 0}";
},
{
name = t.uni07A6;
position = "{265, 414}";
}
);
layerId = "F950428B-3F13-4CD6-A68E-5B8ABB069931";
paths = (
{
closed = 1;
nodes = (
"99 132 OFFCURVE",
"153 84 OFFCURVE",
"209 39 CURVE",
"297 133 OFFCURVE",
"361 202 OFFCURVE",
"405 252 CURVE",
"374 387 LINE",
"343 402 OFFCURVE",
"291 413 OFFCURVE",
"236 413 CURVE SMOOTH",
"185 413 OFFCURVE",
"140 410 OFFCURVE",
"71 394 CURVE",
"77 359 OFFCURVE",
"86 314 OFFCURVE",
"95 271 CURVE",
"112 262 LINE",
"132 275 OFFCURVE",
"155 279 OFFCURVE",
"172 279 CURVE SMOOTH",
"185 279 OFFCURVE",
"192 279 OFFCURVE",
"194 278 CURVE",
"183 293 LINE",
"183 257 LINE",
"190 276 LINE",
"156 248 OFFCURVE",
"98 200 OFFCURVE",
"60 167 CURVE"
);
}
);
vertWidth = 0;
width = 407;
},
{
anchors = (
{
name = b.uni07A8;
position = "{16, 0}";
},
{
name = t.uni07A6;
position = "{265, 414}";
}
);
associatedMasterId = "F950428B-3F13-4CD6-A68E-5B8ABB069931";
layerId = "DC8F9BD2-3A41-4022-A76F-E890304B63D0";
name = "Sep 3 22, 17:46";
paths = (
{
closed = 1;
nodes = (
"99 132 OFFCURVE",
"153 84 OFFCURVE",
"209 39 CURVE",
"297 133 OFFCURVE",
"361 202 OFFCURVE",
"405 252 CURVE",
"374 387 LINE",
"343 402 OFFCURVE",
"291 413 OFFCURVE",
"236 413 CURVE SMOOTH",
"185 413 OFFCURVE",
"140 410 OFFCURVE",
"71 394 CURVE",
"77 359 OFFCURVE",
"86 314 OFFCURVE",
"95 271 CURVE",
"112 262 LINE",
"132 275 OFFCURVE",
"155 279 OFFCURVE",
"172 279 CURVE SMOOTH",
"185 279 OFFCURVE",
"192 278 OFFCURVE",
"194 278 CURVE",
"183 293 LINE",
"183 257 LINE",
"190 276 LINE",
"156 248 OFFCURVE",
"98 200 OFFCURVE",
"60 167 CURVE"
);
}
);
vertWidth = 0;
width = 407;
}
);
unicode = 0789;
script = thaana;
category = Letter;
},
{
glyphname = "faafu-thaana";
production = faafuthaana;
layers = (
{
anchors = (
{
name = b.uni07A8;
position = "{107, 0}";
},
{
name = t.uni07A6;
position = "{208, 414}";
}
);
layerId = "DD221461-5F58-4856-B7A3-0FD42177026D";
paths = (
{
closed = 1;
nodes = (
"-13 -76 OFFCURVE",
"-6 -82 OFFCURVE",
"-1 -87 CURVE",
"68 -15 OFFCURVE",
"242 181 OFFCURVE",
"297 243 CURVE",
"297 248 OFFCURVE",
"294 258 OFFCURVE",
"290 267 CURVE",
"273 267 OFFCURVE",
"217 260 OFFCURVE",
"190 256 CURVE",
"194 246 LINE",
"229 280 OFFCURVE",
"266 320 OFFCURVE",
"294 351 CURVE",
"294 357 OFFCURVE",
"292 366 OFFCURVE",
"290 371 CURVE",
"272 371 OFFCURVE",
"233 367 OFFCURVE",
"207 362 CURVE",
"210 356 LINE",
"236 383 OFFCURVE",
"270 421 OFFCURVE",
"294 448 CURVE",
"280 462 LINE",
"261 440 OFFCURVE",
"214 389 OFFCURVE",
"189 364 CURVE",
"193 341 LINE",
"227 347 OFFCURVE",
"266 351 OFFCURVE",
"276 351 CURVE",
"281 365 LINE",
"262 343 OFFCURVE",
"211 291 OFFCURVE",
"175 255 CURVE",
"179 235 LINE",
"212 240 OFFCURVE",
"271 247 OFFCURVE",
"280 247 CURVE",
"278 252 LINE",
"241 211 OFFCURVE",
"76 30 OFFCURVE",
"-19 -71 CURVE"
);
}
);
vertWidth = 0;
width = 378;
},
{
anchors = (
{
name = b.uni07A8;
position = "{177, 0}";
},
{
name = t.uni07A6;
position = "{221, 424}";
}
);
layerId = "F950428B-3F13-4CD6-A68E-5B8ABB069931";
paths = (
{
closed = 1;
nodes = (
"53 -3 OFFCURVE",
"105 -49 OFFCURVE",
"156 -87 CURVE",
"257 25 OFFCURVE",
"345 123 OFFCURVE",
"369 150 CURVE",
"363 186 OFFCURVE",
"353 238 OFFCURVE",
"346 262 CURVE",
"322 262 OFFCURVE",
"279 260 OFFCURVE",
"262 257 CURVE",
"252 231 LINE",
"309 276 OFFCURVE",
"338 300 OFFCURVE",
"348 309 CURVE",
"342 345 OFFCURVE",
"333 381 OFFCURVE",
"326 398 CURVE",
"280 398 OFFCURVE",
"239 396 OFFCURVE",
"219 394 CURVE",
"251 390 LINE",
"275 411 OFFCURVE",
"287 422 OFFCURVE",
"312 445 CURVE",
"256 510 LINE",
"205 465 OFFCURVE",
"171 435 OFFCURVE",
"128 399 CURVE",
"145 309 LINE",
"169 314 OFFCURVE",
"196 318 OFFCURVE",
"232 320 CURVE",
"227 345 LINE",
"188 310 OFFCURVE",
"141 272 OFFCURVE",
"100 239 CURVE",
"115 157 LINE",
"147 159 OFFCURVE",
"188 162 OFFCURVE",
"227 167 CURVE",
"207 197 LINE",
"140 142 OFFCURVE",
"76 92 OFFCURVE",
"7 40 CURVE"
);
}
);
vertWidth = 0;
width = 411;
},
{
anchors = (
{
name = b.uni07A8;
position = "{126, 0}";
},
{
name = t.uni07A6;
position = "{217, 422}";
}
);
layerId = "108A7794-AFCA-4739-A8E0-6E5429236965";
paths = (
{
closed = 1;
nodes = (
"23 -20 OFFCURVE",
"64 -57 OFFCURVE",
"104 -87 CURVE",
"197 17 OFFCURVE",
"307 142 OFFCURVE",
"336 177 CURVE",
"335 206 OFFCURVE",
"326 245 OFFCURVE",
"319 265 CURVE",
"297 265 OFFCURVE",
"251 264 OFFCURVE",
"231 261 CURVE",
"228 240 LINE",
"278 284 OFFCURVE",
"308 311 OFFCURVE",
"321 326 CURVE",
"318 352 OFFCURVE",
"310 379 OFFCURVE",
"304 396 CURVE",
"265 396 OFFCURVE",
"224 396 OFFCURVE",
"202 393 CURVE",
"227 382 LINE",
"252 408 OFFCURVE",
"269 428 OFFCURVE",
"293 457 CURVE",
"234 509 LINE",
"198 467 OFFCURVE",
"168 433 OFFCURVE",
"136 398 CURVE",
"148 322 LINE",
"172 324 OFFCURVE",
"201 326 OFFCURVE",
"228 327 CURVE",
"231 357 LINE",
"198 328 OFFCURVE",
"150 288 OFFCURVE",
"112 258 CURVE",
"123 184 LINE",
"154 187 OFFCURVE",
"199 190 OFFCURVE",
"228 191 CURVE",
"212 215 LINE",
"151 160 OFFCURVE",
"62 80 OFFCURVE",
"-13 13 CURVE"
);
}
);
vertWidth = 0;
width = 380;
},
{
anchors = (
{
name = b.uni07A8;
position = "{152, 0}";
},
{
name = t.uni07A6;
position = "{244, 414}";
}
);
layerId = "3EC9E734-A013-45CB-A1DF-CD633C54F02E";
paths = (
{
closed = 1;
nodes = (
"27 -48 OFFCURVE",
"48 -69 OFFCURVE",
"69 -87 CURVE",
"151 -4 OFFCURVE",
"300 161 OFFCURVE",
"315 188 CURVE",
"315 200 OFFCURVE",
"310 230 OFFCURVE",
"302 244 CURVE",
"269 244 OFFCURVE",
"207 240 OFFCURVE",
"173 237 CURVE",
"213 220 LINE",
"250 259 OFFCURVE",
"283 294 OFFCURVE",
"306 321 CURVE",
"306 337 OFFCURVE",
"301 360 OFFCURVE",
"295 371 CURVE",
"266 371 OFFCURVE",
"214 367 OFFCURVE",
"188 364 CURVE",
"232 354 LINE",
"254 381 OFFCURVE",
"282 413 OFFCURVE",
"304 435 CURVE",
"261 476 LINE",
"229 439 OFFCURVE",
"185 392 OFFCURVE",
"151 357 CURVE",
"164 309 LINE",
"193 314 OFFCURVE",
"236 318 OFFCURVE",
"256 318 CURVE",
"246 345 LINE",
"221 316 OFFCURVE",
"170 259 OFFCURVE",
"133 221 CURVE",
"146 171 LINE",
"179 177 OFFCURVE",
"233 184 OFFCURVE",
"250 184 CURVE",
"247 214 LINE",
"188 153 OFFCURVE",
"80 43 OFFCURVE",
"10 -28 CURVE"
);
}
);
vertWidth = 0;
width = 395;
}
);
rightKerningGroup = raa;
unicode = 078A;
script = thaana;
category = Letter;
},
{
glyphname = "dhaalu-thaana";
production = dhaaluthaana;
layers = (
{
anchors = (
{
name = b.uni07A8;
position = "{122, 0}";
},
{
name = t.uni07A6;
position = "{327, 414}";
},
{
name = top;
position = "{257, 399}";
}
);
components = (
{
alignment = -1;
name = _part.jav;
transform = "{1, 0, 0, 1, -35, -23}";
}
);
layerId = "DD221461-5F58-4856-B7A3-0FD42177026D";
paths = (
{
closed = 1;
nodes = (
"-50 -75 OFFCURVE",
"-44 -82 OFFCURVE",
"-39 -87 CURVE",
"59 24 OFFCURVE",
"139 115 OFFCURVE",
"172 155 CURVE SMOOTH",
"212 204 OFFCURVE",
"217 219 OFFCURVE",
"217 234 CURVE SMOOTH",
"217 250 OFFCURVE",
"207 262 OFFCURVE",
"190 262 CURVE SMOOTH",
"171 262 OFFCURVE",
"157 248 OFFCURVE",
"157 230 CURVE SMOOTH",
"157 214 OFFCURVE",
"170 204 OFFCURVE",
"187 198 CURVE",
"185 206 LINE",
"170 186 OFFCURVE",
"151 163 OFFCURVE",
"128 136 CURVE SMOOTH",
"89 90 OFFCURVE",
"-4 -13 OFFCURVE",
"-55 -69 CURVE"
);
}
);
vertWidth = 0;
width = 459;
},
{
anchors = (
{
name = b.uni07A8;
position = "{191, 0}";
},
{
name = t.uni07A6;
position = "{305, 414}";
},
{
name = top;
position = "{335, 456}";
}
);
components = (
{
alignment = -1;
name = _part.jav;
transform = "{1, 0, 0, 1, 7, -128}";
}
);
layerId = "F950428B-3F13-4CD6-A68E-5B8ABB069931";
paths = (
{
closed = 1;
nodes = (
"29 -5 OFFCURVE",
"80 -48 OFFCURVE",
"131 -87 CURVE",
"173 -42 OFFCURVE",
"224 14 OFFCURVE",
"268 65 CURVE SMOOTH",
"315 119 OFFCURVE",
"358 177 OFFCURVE",
"358 238 CURVE SMOOTH",
"358 325 OFFCURVE",
"298 363 OFFCURVE",
"239 363 CURVE SMOOTH",
"157 363 OFFCURVE",
"101 312 OFFCURVE",
"101 249 CURVE SMOOTH",
"101 208 OFFCURVE",
"119 170 OFFCURVE",
"171 151 CURVE",
"171 227 LINE",
"145 199 OFFCURVE",
"128 182 OFFCURVE",
"102 156 CURVE SMOOTH",
"71 125 OFFCURVE",
"37 92 OFFCURVE",
"-18 41 CURVE"
);
}
);
vertWidth = 0;
width = 617;
},
{
anchors = (
{
name = b.uni07A8;
position = "{166, 0}";
},
{
name = t.uni07A6;
position = "{265, 414}";
},
{
name = top;
position = "{319, 448}";
}
);
components = (
{
alignment = -1;
name = _part.jav;
transform = "{1, 0, 0, 1, -11, -107}";
}
);
layerId = "108A7794-AFCA-4739-A8E0-6E5429236965";
paths = (
{
closed = 1;
nodes = (
"2 -22 OFFCURVE",
"42 -56 OFFCURVE",
"81 -87 CURVE",
"136 -26 OFFCURVE",
"194 39 OFFCURVE",
"236 88 CURVE SMOOTH",
"281 140 OFFCURVE",
"315 188 OFFCURVE",
"315 237 CURVE SMOOTH",
"315 306 OFFCURVE",
"267 338 OFFCURVE",
"219 338 CURVE SMOOTH",
"153 338 OFFCURVE",
"107 296 OFFCURVE",
"107 244 CURVE SMOOTH",
"107 210 OFFCURVE",
"124 179 OFFCURVE",
"167 163 CURVE",
"167 222 LINE",
"144 195 OFFCURVE",
"128 177 OFFCURVE",
"102 151 CURVE SMOOTH",
"69 117 OFFCURVE",
"19 66 OFFCURVE",
"-35 14 CURVE"
);
}
);
vertWidth = 0;
width = 569;
},
{
anchors = (
{
name = b.uni07A8;
position = "{143, 0}";
},
{
name = t.uni07A6;
position = "{295, 414}";
},
{
name = top;
position = "{272, 422}";
}
);
components = (
{
alignment = -1;
name = _part.jav;
transform = "{1, 0, 0, 1, -24, -75}";
}
);
layerId = "3EC9E734-A013-45CB-A1DF-CD633C54F02E";
paths = (
{
closed = 1;
nodes = (
"-21 -50 OFFCURVE",
"0 -70 OFFCURVE",
"21 -87 CURVE",
"97 -1 OFFCURVE",
"165 76 OFFCURVE",
"203 122 CURVE SMOOTH",
"246 173 OFFCURVE",
"265 204 OFFCURVE",
"265 236 CURVE SMOOTH",
"265 278 OFFCURVE",
"236 300 OFFCURVE",
"204 300 CURVE SMOOTH",
"161 300 OFFCURVE",
"131 272 OFFCURVE",
"131 237 CURVE SMOOTH",
"131 212 OFFCURVE",
"146 192 OFFCURVE",
"176 181 CURVE",
"179 212 LINE",
"161 189 OFFCURVE",
"142 168 OFFCURVE",
"118 142 CURVE SMOOTH",
"81 101 OFFCURVE",
"11 25 OFFCURVE",
"-41 -30 CURVE"
);
}
);
vertWidth = 0;
width = 517;
}
);
unicode = 078B;
script = thaana;
category = Letter;
},
{
glyphname = "thaa-thaana";
production = thaathaana;
layers = (
{
anchors = (
{
name = b.uni07A8;
position = "{105, 0}";
},
{
name = t.uni07A6;
position = "{335, 414}";
}
);
layerId = "F950428B-3F13-4CD6-A68E-5B8ABB069931";
paths = (
{
closed = 1;
nodes = (
"9 -87 LINE",
"94 -87 OFFCURVE",
"172 -67 OFFCURVE",
"218 -8 CURVE",
"226 10 OFFCURVE",
"229 34 OFFCURVE",
"229 54 CURVE SMOOTH",
"229 110 OFFCURVE",
"191 146 OFFCURVE",
"150 183 CURVE",
"185 107 LINE",
"207 134 OFFCURVE",
"228 159 OFFCURVE",
"266 195 CURVE SMOOTH",
"309 235 OFFCURVE",
"356 272 OFFCURVE",
"366 272 CURVE SMOOTH",
"370 272 OFFCURVE",
"374 272 OFFCURVE",
"374 266 CURVE SMOOTH",
"374 241 OFFCURVE",
"349 187 OFFCURVE",
"314 187 CURVE SMOOTH",
"277 187 OFFCURVE",
"261 244 OFFCURVE",
"251 284 CURVE",
"195 239 LINE",
"218 134 OFFCURVE",
"269 49 OFFCURVE",
"346 49 CURVE SMOOTH",
"430 49 OFFCURVE",
"498 147 OFFCURVE",
"498 252 CURVE SMOOTH",
"498 339 OFFCURVE",
"447 416 OFFCURVE",
"360 416 CURVE SMOOTH",
"291 416 OFFCURVE",
"227 367 OFFCURVE",
"180 324 CURVE SMOOTH",
"131 280 OFFCURVE",
"94 241 OFFCURVE",
"55 199 CURVE",
"46 116 LINE",
"84 85 OFFCURVE",
"111 60 OFFCURVE",
"133 27 CURVE",
"122 113 LINE",
"106 81 OFFCURVE",
"59 68 OFFCURVE",
"-23 68 CURVE"
);
}
);
vertWidth = 0;
width = 521;
},
{
anchors = (
{
name = b.uni07A8;
position = "{167, 0}";
},
{
name = t.uni07A6;
position = "{309, 414}";
}
);
layerId = "DD221461-5F58-4856-B7A3-0FD42177026D";
paths = (
{
closed = 1;
nodes = (
"-8 -87 LINE",
"90 -76 OFFCURVE",
"173 -48 OFFCURVE",
"209 15 CURVE",
"211 21 OFFCURVE",
"212 31 OFFCURVE",
"212 33 CURVE SMOOTH",
"212 63 OFFCURVE",
"175 137 OFFCURVE",
"102 192 CURVE",
"109 176 LINE",
"195 272 OFFCURVE",
"217 296 OFFCURVE",
"258 338 CURVE SMOOTH",
"295 375 OFFCURVE",
"329 392 OFFCURVE",
"355 392 CURVE SMOOTH",
"380 392 OFFCURVE",
"400 376 OFFCURVE",
"400 347 CURVE SMOOTH",
"400 290 OFFCURVE",
"342 207 OFFCURVE",
"282 207 CURVE SMOOTH",
"242 207 OFFCURVE",
"218 248 OFFCURVE",
"218 306 CURVE",
"200 302 LINE",
"200 224 OFFCURVE",
"234 185 OFFCURVE",
"284 185 CURVE SMOOTH",
"357 185 OFFCURVE",
"421 280 OFFCURVE",
"421 343 CURVE SMOOTH",
"421 390 OFFCURVE",
"392 414 OFFCURVE",
"357 414 CURVE SMOOTH",
"325 414 OFFCURVE",
"286 397 OFFCURVE",
"236 345 CURVE SMOOTH",
"183 290 OFFCURVE",
"142 246 OFFCURVE",
"95 194 CURVE",
"91 172 LINE",
"144 132 OFFCURVE",
"183 78 OFFCURVE",
"198 20 CURVE",
"201 36 LINE",
"158 -34 OFFCURVE",
"77 -54 OFFCURVE",
"-17 -64 CURVE"
);
}
);
vertWidth = 0;
width = 445;
},
{
anchors = (
{
name = b.uni07A8;
position = "{118, 0}";
},
{
name = t.uni07A6;
position = "{331, 414}";
}
);
layerId = "108A7794-AFCA-4739-A8E0-6E5429236965";
paths = (
{
closed = 1;
nodes = (
"7 -87 LINE",
"96 -84 OFFCURVE",
"177 -61 OFFCURVE",
"221 1 CURVE",
"226 15 OFFCURVE",
"229 34 OFFCURVE",
"229 51 CURVE SMOOTH",
"229 86 OFFCURVE",
"214 123 OFFCURVE",
"139 184 CURVE",
"160 124 LINE",
"201 167 OFFCURVE",
"225 191 OFFCURVE",
"266 230 CURVE SMOOTH",
"308 270 OFFCURVE",
"352 302 OFFCURVE",
"366 302 CURVE SMOOTH",
"375 302 OFFCURVE",
"383 298 OFFCURVE",
"383 287 CURVE SMOOTH",
"383 264 OFFCURVE",
"353 200 OFFCURVE",
"305 200 CURVE SMOOTH",
"272 200 OFFCURVE",
"256 248 OFFCURVE",
"249 291 CURVE",
"200 257 LINE",
"212 141 OFFCURVE",
"262 69 OFFCURVE",
"332 69 CURVE SMOOTH",
"414 69 OFFCURVE",
"488 169 OFFCURVE",
"488 276 CURVE SMOOTH",
"488 350 OFFCURVE",
"438 415 OFFCURVE",
"354 415 CURVE SMOOTH",
"298 415 OFFCURVE",
"246 386 OFFCURVE",
"192 336 CURVE SMOOTH",
"140 288 OFFCURVE",
"99 248 OFFCURVE",
"55 205 CURVE",
"41 111 LINE",
"86 80 OFFCURVE",
"113 50 OFFCURVE",
"130 12 CURVE",
"145 111 LINE",
"122 69 OFFCURVE",
"67 55 OFFCURVE",
"-18 52 CURVE"
);
}
);
vertWidth = 0;
width = 499;
},
{
anchors = (
{
name = b.uni07A8;
position = "{130, 0}";
},
{
name = t.uni07A6;
position = "{317, 414}";
}
);
layerId = "3EC9E734-A013-45CB-A1DF-CD633C54F02E";
paths = (
{
closed = 1;
nodes = (
"-3 -87 LINE",
"91 -80 OFFCURVE",
"174 -53 OFFCURVE",
"215 11 CURVE",
"217 22 OFFCURVE",
"218 33 OFFCURVE",
"218 43 CURVE SMOOTH",
"218 97 OFFCURVE",
"164 153 OFFCURVE",
"123 186 CURVE",
"135 149 LINE",
"189 218 OFFCURVE",
"210 241 OFFCURVE",
"250 283 CURVE SMOOTH",
"291 326 OFFCURVE",
"321 345 OFFCURVE",
"339 345 CURVE SMOOTH",
"354 345 OFFCURVE",
"367 336 OFFCURVE",
"367 318 CURVE SMOOTH",
"367 279 OFFCURVE",
"328 207 OFFCURVE",
"280 207 CURVE SMOOTH",
"246 207 OFFCURVE",
"229 253 OFFCURVE",
"227 305 CURVE",
"180 283 LINE",
"190 190 OFFCURVE",
"229 127 OFFCURVE",
"292 127 CURVE SMOOTH",
"370 127 OFFCURVE",
"436 224 OFFCURVE",
"436 311 CURVE SMOOTH",
"436 371 OFFCURVE",
"399 414 OFFCURVE",
"345 414 CURVE SMOOTH",
"297 414 OFFCURVE",
"251 398 OFFCURVE",
"185 326 CURVE SMOOTH",
"147 285 OFFCURVE",
"117 252 OFFCURVE",
"71 199 CURVE",
"66 141 LINE",
"111 105 OFFCURVE",
"144 63 OFFCURVE",
"159 15 CURVE",
"170 70 LINE",
"137 15 OFFCURVE",
"69 -2 OFFCURVE",
"-21 -8 CURVE"
);
}
);
vertWidth = 0;
width = 459;
}
);
leftKerningGroup = thaa;
unicode = 078C;
script = thaana;
category = Letter;
},
{
glyphname = "laamu-thaana";
production = laamuthaana;
layers = (
{
anchors = (
{
name = b.uni07A8;
position = "{156, 0}";
},
{
name = t.uni07A6;
position = "{238, 414}";
}
);
layerId = "DD221461-5F58-4856-B7A3-0FD42177026D";
paths = (
{
closed = 1;
nodes = (
"15 -77 OFFCURVE",
"23 -84 OFFCURVE",
"27 -87 CURVE",
"86 -22 OFFCURVE",
"246 164 OFFCURVE",
"318 252 CURVE",
"318 257 OFFCURVE",
"317 267 OFFCURVE",
"314 275 CURVE",
"279 275 OFFCURVE",
"192 269 OFFCURVE",
"137 264 CURVE",
"149 256 LINE",
"179 287 OFFCURVE",
"251 372 OFFCURVE",
"281 408 CURVE",
"267 422 LINE",
"237 388 OFFCURVE",
"169 311 OFFCURVE",
"125 263 CURVE",
"129 242 LINE",
"186 247 OFFCURVE",
"279 253 OFFCURVE",
"300 253 CURVE",
"297 259 LINE",
"258 213 OFFCURVE",
"94 23 OFFCURVE",
"9 -71 CURVE"
);
}
);
vertWidth = 0;
width = 386;
},
{
anchors = (
{
name = b.uni07A8;
position = "{176, 0}";
},
{
name = t.uni07A6;
position = "{257, 414}";
}
);
layerId = "F950428B-3F13-4CD6-A68E-5B8ABB069931";
paths = (
{
closed = 1;
nodes = (
"41 -4 OFFCURVE",
"93 -48 OFFCURVE",
"150 -87 CURVE",
"251 31 OFFCURVE",
"353 151 OFFCURVE",
"380 186 CURVE",
"377 231 OFFCURVE",
"369 279 OFFCURVE",
"361 312 CURVE",
"305 312 OFFCURVE",
"243 312 OFFCURVE",
"173 309 CURVE",
"241 278 LINE",
"262 305 OFFCURVE",
"280 328 OFFCURVE",
"319 377 CURVE",
"226 449 LINE",
"176 390 OFFCURVE",
"117 323 OFFCURVE",
"76 283 CURVE",
"91 186 LINE",
"118 190 OFFCURVE",
"165 192 OFFCURVE",
"198 192 CURVE",
"224 266 LINE",
"165 206 OFFCURVE",
"68 108 OFFCURVE",
"1 41 CURVE"
);
}
);
vertWidth = 0;
width = 404;
},
{
anchors = (
{
name = b.uni07A8;
position = "{134, 0}";
},
{
name = t.uni07A6;
position = "{241, 414}";
}
);
layerId = "108A7794-AFCA-4739-A8E0-6E5429236965";
paths = (
{
closed = 1;
nodes = (
"29 -22 OFFCURVE",
"70 -57 OFFCURVE",
"114 -87 CURVE",
"199 12 OFFCURVE",
"309 141 OFFCURVE",
"345 187 CURVE",
"342 229 OFFCURVE",
"330 275 OFFCURVE",
"317 309 CURVE",
"276 305 OFFCURVE",
"214 301 OFFCURVE",
"155 298 CURVE",
"197 273 LINE",
"222 299 OFFCURVE",
"251 332 OFFCURVE",
"293 382 CURVE",
"219 447 LINE",
"175 397 OFFCURVE",
"114 330 OFFCURVE",
"74 289 CURVE",
"95 196 LINE",
"134 199 OFFCURVE",
"199 203 OFFCURVE",
"235 203 CURVE",
"232 264 LINE",
"178 207 OFFCURVE",
"66 87 OFFCURVE",
"-2 13 CURVE"
);
}
);
vertWidth = 0;
width = 366;
},
{
anchors = (
{
name = b.uni07A8;
position = "{133, 0}";
},
{
name = t.uni07A6;
position = "{244, 414}";
}
);
layerId = "3EC9E734-A013-45CB-A1DF-CD633C54F02E";
paths = (
{
closed = 1;
nodes = (
"35 -51 OFFCURVE",
"58 -72 OFFCURVE",
"80 -88 CURVE",
"154 -5 OFFCURVE",
"291 153 OFFCURVE",
"346 220 CURVE",
"344 242 OFFCURVE",
"338 269 OFFCURVE",
"330 290 CURVE",
"292 290 OFFCURVE",
"217 285 OFFCURVE",
"160 281 CURVE",
"192 262 LINE",
"220 291 OFFCURVE",
"271 351 OFFCURVE",
"308 396 CURVE",
"255 438 LINE",
"218 396 OFFCURVE",
"151 322 OFFCURVE",
"108 276 CURVE",
"119 206 LINE",
"167 211 OFFCURVE",
"246 217 OFFCURVE",
"275 217 CURVE",
"284 260 LINE",
"236 208 OFFCURVE",
"95 53 OFFCURVE",
"17 -32 CURVE"
);
}
);
vertWidth = 0;
width = 402;
}
);
rightKerningGroup = raa;
unicode = 078D;
script = thaana;
category = Letter;
},
{
glyphname = "gaafu-thaana";
production = gaafuthaana;
layers = (
{
anchors = (
{
name = b.uni07A8;
position = "{100, 0}";
},
{
name = t.uni07A6;
position = "{258, 414}";
}
);
layerId = "DD221461-5F58-4856-B7A3-0FD42177026D";
paths = (
{
closed = 1;
nodes = (
"48 47 OFFCURVE",
"93 40 OFFCURVE",
"125 40 CURVE SMOOTH",
"201 40 OFFCURVE",
"276 62 OFFCURVE",
"310 100 CURVE",
"312 105 OFFCURVE",
"314 116 OFFCURVE",
"314 120 CURVE SMOOTH",
"314 159 OFFCURVE",
"259 247 OFFCURVE",
"177 307 CURVE",
"180 299 LINE",
"217 341 OFFCURVE",
"251 380 OFFCURVE",
"281 415 CURVE",
"267 427 LINE",
"231 385 OFFCURVE",
"197 347 OFFCURVE",
"164 312 CURVE",
"160 294 LINE",
"215 250 OFFCURVE",
"277 186 OFFCURVE",
"300 110 CURVE",
"306 122 LINE",
"269 82 OFFCURVE",
"198 62 OFFCURVE",
"128 62 CURVE SMOOTH",
"99 62 OFFCURVE",
"55 68 OFFCURVE",
"5 89 CURVE",
"2 81 OFFCURVE",
"0 75 OFFCURVE",
"-2 66 CURVE"
);
}
);
vertWidth = 0;
width = 412;
},
{
anchors = (
{
name = b.uni07A8;
position = "{61, 0}";
},
{
name = t.uni07A6;
position = "{291, 414}";
}
);
layerId = "F950428B-3F13-4CD6-A68E-5B8ABB069931";
paths = (
{
closed = 1;
nodes = (
"45 3 OFFCURVE",
"107 -8 OFFCURVE",
"174 -8 CURVE SMOOTH",
"239 -8 OFFCURVE",
"326 1 OFFCURVE",
"389 30 CURVE",
"398 51 OFFCURVE",
"415 121 OFFCURVE",
"415 171 CURVE SMOOTH",
"415 208 OFFCURVE",
"356 258 OFFCURVE",
"283 304 CURVE",
"259 207 LINE",
"298 257 OFFCURVE",
"345 316 OFFCURVE",
"384 363 CURVE",
"282 445 LINE",
"230 385 OFFCURVE",
"191 341 OFFCURVE",
"150 297 CURVE",
"157 206 LINE",
"192 192 OFFCURVE",
"233 171 OFFCURVE",
"269 143 CURVE",
"276 157 LINE",
"237 153 OFFCURVE",
"221 152 OFFCURVE",
"188 152 CURVE SMOOTH",
"138 152 OFFCURVE",
"92 161 OFFCURVE",
"39 177 CURVE",
"23 132 OFFCURVE",
"5 65 OFFCURVE",
"-4 17 CURVE"
);
}
);
vertWidth = 0;
width = 463;
},
{
anchors = (
{
name = b.uni07A8;
position = "{67, 0}";
},
{
name = t.uni07A6;
position = "{279, 414}";
}
);
layerId = "108A7794-AFCA-4739-A8E0-6E5429236965";
paths = (
{
closed = 1;
nodes = (
"42 6 OFFCURVE",
"100 -4 OFFCURVE",
"158 -4 CURVE SMOOTH",
"226 -4 OFFCURVE",
"310 12 OFFCURVE",
"365 52 CURVE",
"376 71 OFFCURVE",
"394 131 OFFCURVE",
"394 174 CURVE SMOOTH",
"394 209 OFFCURVE",
"335 266 OFFCURVE",
"257 313 CURVE",
"241 225 LINE",
"280 270 OFFCURVE",
"324 319 OFFCURVE",
"360 359 CURVE",
"277 429 LINE",
"230 378 OFFCURVE",
"191 337 OFFCURVE",
"152 298 CURVE",
"156 225 LINE",
"196 206 OFFCURVE",
"241 177 OFFCURVE",
"273 139 CURVE",
"280 158 LINE",
"241 145 OFFCURVE",
"211 139 OFFCURVE",
"169 139 CURVE SMOOTH",
"124 139 OFFCURVE",
"79 147 OFFCURVE",
"27 165 CURVE",
"14 124 OFFCURVE",
"0 65 OFFCURVE",
"-7 21 CURVE"
);
}
);
vertWidth = 0;
width = 440;
},
{
anchors = (
{
name = b.uni07A8;
position = "{86, 0}";
},
{
name = t.uni07A6;
position = "{271, 414}";
}
);
layerId = "3EC9E734-A013-45CB-A1DF-CD633C54F02E";
paths = (
{
closed = 1;
nodes = (
"48 40 OFFCURVE",
"99 31 OFFCURVE",
"144 31 CURVE SMOOTH",
"216 31 OFFCURVE",
"296 50 OFFCURVE",
"340 85 CURVE",
"345 97 OFFCURVE",
"354 131 OFFCURVE",
"354 154 CURVE SMOOTH",
"354 191 OFFCURVE",
"291 264 OFFCURVE",
"202 324 CURVE",
"205 275 LINE",
"240 315 OFFCURVE",
"275 355 OFFCURVE",
"306 389 CURVE",
"253 432 LINE",
"213 389 OFFCURVE",
"178 352 OFFCURVE",
"144 318 CURVE",
"146 271 LINE",
"197 239 OFFCURVE",
"259 192 OFFCURVE",
"289 134 CURVE",
"296 147 LINE",
"258 122 OFFCURVE",
"207 110 OFFCURVE",
"151 110 CURVE SMOOTH",
"114 110 OFFCURVE",
"70 117 OFFCURVE",
"19 137 CURVE",
"11 112 OFFCURVE",
"3 83 OFFCURVE",
"-2 57 CURVE"
);
}
);
vertWidth = 0;
width = 417;
}
);
leftKerningGroup = gaafu;
unicode = 078E;
script = thaana;
category = Letter;
},
{
glyphname = "gnaviyani-thaana";
production = gnaviyanithaana;
layers = (
{
anchors = (
{
name = b.uni07A8;
position = "{80, -40}";
},
{
name = t.uni07A6;
position = "{440, 414}";
}
);
layerId = "F950428B-3F13-4CD6-A68E-5B8ABB069931";
paths = (
{
closed = 1;
nodes = (
"51 -7 OFFCURVE",
"102 -87 OFFCURVE",
"238 -87 CURVE SMOOTH",
"288 -87 OFFCURVE",
"319 -83 OFFCURVE",
"366 -74 CURVE",
"366 -6 OFFCURVE",
"361 57 OFFCURVE",
"356 101 CURVE",
"312 91 OFFCURVE",
"275 88 OFFCURVE",
"243 88 CURVE SMOOTH",
"199 88 OFFCURVE",
"165 97 OFFCURVE",
"165 113 CURVE SMOOTH",
"165 144 OFFCURVE",
"220 173 OFFCURVE",
"303 216 CURVE",
"182 288 LINE",
"103 220 OFFCURVE",
"51 171 OFFCURVE",
"51 82 CURVE SMOOTH"
);
},
{
closed = 1;
nodes = (
"208 174 OFFCURVE",
"232 169 OFFCURVE",
"272 169 CURVE SMOOTH",
"332 169 OFFCURVE",
"381 191 OFFCURVE",
"395 204 CURVE SMOOTH",
"462 268 OFFCURVE",
"477 334 OFFCURVE",
"491 397 CURVE",
"382 409 LINE",
"376 392 OFFCURVE",
"369 373 OFFCURVE",
"360 351 CURVE SMOOTH",
"355 339 OFFCURVE",
"351 332 OFFCURVE",
"337 329 CURVE SMOOTH",
"332 328 OFFCURVE",
"324 327 OFFCURVE",
"313 327 CURVE SMOOTH",
"272 327 OFFCURVE",
"241 336 OFFCURVE",
"195 359 CURVE",
"166 190 LINE"
);
},
{
closed = 1;
nodes = (
"375 176 OFFCURVE",
"428 168 OFFCURVE",
"476 168 CURVE SMOOTH",
"526 168 OFFCURVE",
"589 179 OFFCURVE",
"622 220 CURVE SMOOTH",
"659 266 OFFCURVE",
"679 348 OFFCURVE",
"687 408 CURVE",
"576 421 LINE",
"571 407 OFFCURVE",
"562 382 OFFCURVE",
"555 364 CURVE SMOOTH",
"548 346 OFFCURVE",
"542 340 OFFCURVE",
"529 336 CURVE SMOOTH",
"515 332 OFFCURVE",
"506 331 OFFCURVE",
"491 331 CURVE SMOOTH",
"454 331 OFFCURVE",
"412 346 OFFCURVE",
"375 365 CURVE",
"328 204 LINE"
);
},
{
closed = 1;
nodes = (
"72 199 OFFCURVE",
"192 186 OFFCURVE",
"282 186 CURVE",
"306 219 OFFCURVE",
"315 258 OFFCURVE",
"315 293 CURVE SMOOTH",
"315 377 OFFCURVE",
"261 414 OFFCURVE",
"206 414 CURVE SMOOTH",
"116 414 OFFCURVE",
"72 362 OFFCURVE",
"72 303 CURVE SMOOTH"
);
}
);
vertWidth = 0;
width = 677;
},
{
anchors = (
{
name = b.uni07A8;
position = "{96, -40}";
},
{
name = t.uni07A6;
position = "{423, 414}";
}
);
layerId = "DD221461-5F58-4856-B7A3-0FD42177026D";
paths = (
{
closed = 1;
nodes = (
"24 -37 OFFCURVE",
"86 -87 OFFCURVE",
"183 -87 CURVE SMOOTH",
"217 -87 OFFCURVE",
"254 -81 OFFCURVE",
"292 -70 CURVE",
"291 -61 OFFCURVE",
"290 -54 OFFCURVE",
"289 -47 CURVE",
"250 -59 OFFCURVE",
"211 -65 OFFCURVE",
"183 -65 CURVE SMOOTH",
"102 -65 OFFCURVE",
"45 -26 OFFCURVE",
"45 45 CURVE SMOOTH",
"45 118 OFFCURVE",
"114 192 OFFCURVE",
"208 271 CURVE",
"195 284 LINE",
"106 215 OFFCURVE",
"24 129 OFFCURVE",
"24 45 CURVE SMOOTH"
);
},
{
closed = 1;
nodes = (
"203 266 OFFCURVE",
"223 263 OFFCURVE",
"245 263 CURVE SMOOTH",
"280 263 OFFCURVE",
"317 268 OFFCURVE",
"349 317 CURVE SMOOTH",
"361 336 OFFCURVE",
"374 359 OFFCURVE",
"394 402 CURVE",
"374 408 LINE",
"366 390 OFFCURVE",
"351 360 OFFCURVE",
"341 344 CURVE SMOOTH",
"326 321 OFFCURVE",
"313 305 OFFCURVE",
"302 299 CURVE SMOOTH",
"287 290 OFFCURVE",
"273 285 OFFCURVE",
"247 285 CURVE SMOOTH",
"229 285 OFFCURVE",
"211 288 OFFCURVE",
"194 295 CURVE",
"186 273 LINE"
);
},
{
closed = 1;
nodes = (
"331 271 OFFCURVE",
"359 266 OFFCURVE",
"389 266 CURVE SMOOTH",
"421 266 OFFCURVE",
"464 268 OFFCURVE",
"496 318 CURVE SMOOTH",
"508 337 OFFCURVE",
"527 373 OFFCURVE",
"543 410 CURVE",
"523 415 LINE",
"516 399 OFFCURVE",
"496 361 OFFCURVE",
"488 346 CURVE SMOOTH",
"471 314 OFFCURVE",
"459 305 OFFCURVE",
"447 299 CURVE SMOOTH",
"435 293 OFFCURVE",
"422 288 OFFCURVE",
"392 288 CURVE SMOOTH",
"357 288 OFFCURVE",
"329 297 OFFCURVE",
"314 304 CURVE",
"304 283 LINE"
);
},
{
closed = 1;
nodes = (
"169 277 OFFCURVE",
"186 271 OFFCURVE",
"200 267 CURVE",
"211 276 OFFCURVE",
"218 286 OFFCURVE",
"218 297 CURVE SMOOTH",
"218 309 OFFCURVE",
"209 317 OFFCURVE",
"194 317 CURVE SMOOTH",
"181 317 OFFCURVE",
"169 309 OFFCURVE",
"169 294 CURVE SMOOTH"
);
}
);
vertWidth = 0;
width = 534;
},
{
anchors = (
{
name = b.uni07A8;
position = "{69, -35}";
},
{
name = t.uni07A6;
position = "{421, 414}";
}
);
layerId = "108A7794-AFCA-4739-A8E0-6E5429236965";
paths = (
{
closed = 1;
nodes = (
"29 -14 OFFCURVE",
"83 -87 OFFCURVE",
"209 -87 CURVE SMOOTH",
"255 -87 OFFCURVE",
"288 -82 OFFCURVE",
"333 -73 CURVE",
"331 -18 OFFCURVE",
"328 33 OFFCURVE",
"324 70 CURVE",
"282 60 OFFCURVE",
"244 56 OFFCURVE",
"213 56 CURVE SMOOTH",
"160 56 OFFCURVE",
"122 70 OFFCURVE",
"122 100 CURVE SMOOTH",
"122 134 OFFCURVE",
"176 170 OFFCURVE",
"256 217 CURVE",
"121 275 LINE",
"68 211 OFFCURVE",
"29 156 OFFCURVE",
"29 73 CURVE SMOOTH"
);
},
{
closed = 1;
nodes = (
"192 197 OFFCURVE",
"215 193 OFFCURVE",
"250 193 CURVE SMOOTH",
"304 193 OFFCURVE",
"349 211 OFFCURVE",
"369 232 CURVE SMOOTH",
"421 285 OFFCURVE",
"437 340 OFFCURVE",
"452 398 CURVE",
"362 409 LINE",
"356 392 OFFCURVE",
"347 370 OFFCURVE",
"337 349 CURVE SMOOTH",
"331 336 OFFCURVE",
"326 331 OFFCURVE",
"314 326 CURVE SMOOTH",
"306 323 OFFCURVE",
"296 322 OFFCURVE",
"282 322 CURVE SMOOTH",
"246 322 OFFCURVE",
"219 329 OFFCURVE",
"180 348 CURVE",
"156 211 LINE"
);
},
{
closed = 1;
nodes = (
"349 200 OFFCURVE",
"396 193 OFFCURVE",
"439 193 CURVE SMOOTH",
"485 193 OFFCURVE",
"544 202 OFFCURVE",
"576 245 CURVE SMOOTH",
"605 284 OFFCURVE",
"626 354 OFFCURVE",
"636 409 CURVE",
"545 420 LINE",
"538 400 OFFCURVE",
"529 377 OFFCURVE",
"521 360 CURVE SMOOTH",
"512 341 OFFCURVE",
"505 336 OFFCURVE",
"494 332 CURVE SMOOTH",
"480 327 OFFCURVE",
"470 325 OFFCURVE",
"451 325 CURVE SMOOTH",
"415 325 OFFCURVE",
"376 339 OFFCURVE",
"345 355 CURVE",
"307 224 LINE"
);
},
{
closed = 1;
nodes = (
"82 219 OFFCURVE",
"176 206 OFFCURVE",
"247 206 CURVE",
"267 233 OFFCURVE",
"276 265 OFFCURVE",
"276 294 CURVE SMOOTH",
"276 360 OFFCURVE",
"233 390 OFFCURVE",
"188 390 CURVE SMOOTH",
"117 390 OFFCURVE",
"82 349 OFFCURVE",
"82 301 CURVE SMOOTH"
);
}
);
vertWidth = 0;
width = 612;
},
{
anchors = (
{
name = b.uni07A8;
position = "{34, -29}";
},
{
name = t.uni07A6;
position = "{419, 414}";
}
);
layerId = "3EC9E734-A013-45CB-A1DF-CD633C54F02E";
paths = (
{
closed = 1;
nodes = (
"24 -26 OFFCURVE",
"82 -87 OFFCURVE",
"193 -87 CURVE SMOOTH",
"233 -87 OFFCURVE",
"268 -82 OFFCURVE",
"309 -71 CURVE",
"308 -40 OFFCURVE",
"306 -13 OFFCURVE",
"304 8 CURVE",
"263 -4 OFFCURVE",
"225 -9 OFFCURVE",
"195 -9 CURVE SMOOTH",
"134 -9 OFFCURVE",
"89 19 OFFCURVE",
"89 70 CURVE SMOOTH",
"89 125 OFFCURVE",
"149 179 OFFCURVE",
"233 241 CURVE",
"172 288 LINE",
"94 217 OFFCURVE",
"24 145 OFFCURVE",
"24 59 CURVE SMOOTH"
);
},
{
closed = 1;
nodes = (
"195 227 OFFCURVE",
"216 223 OFFCURVE",
"245 223 CURVE SMOOTH",
"290 223 OFFCURVE",
"328 240 OFFCURVE",
"358 275 CURVE SMOOTH",
"388 310 OFFCURVE",
"406 350 OFFCURVE",
"422 395 CURVE",
"362 403 LINE",
"355 388 OFFCURVE",
"343 363 OFFCURVE",
"334 347 CURVE SMOOTH",
"323 327 OFFCURVE",
"315 314 OFFCURVE",
"305 310 CURVE SMOOTH",
"293 305 OFFCURVE",
"282 301 OFFCURVE",
"261 301 CURVE SMOOTH",
"235 301 OFFCURVE",
"212 306 OFFCURVE",
"184 319 CURVE",
"168 238 LINE"
);
},
{
closed = 1;
nodes = (
"337 233 OFFCURVE",
"374 227 OFFCURVE",
"411 227 CURVE SMOOTH",
"450 227 OFFCURVE",
"502 233 OFFCURVE",
"534 279 CURVE SMOOTH",
"554 307 OFFCURVE",
"575 359 OFFCURVE",
"588 402 CURVE",
"529 412 LINE",
"523 398 OFFCURVE",
"508 367 OFFCURVE",
"501 353 CURVE SMOOTH",
"488 327 OFFCURVE",
"479 318 OFFCURVE",
"467 313 CURVE SMOOTH",
"455 308 OFFCURVE",
"443 304 OFFCURVE",
"419 304 CURVE SMOOTH",
"383 304 OFFCURVE",
"350 315 OFFCURVE",
"326 327 CURVE",
"303 251 LINE"
);
},
{
closed = 1;
nodes = (
"123 248 OFFCURVE",
"178 239 OFFCURVE",
"220 237 CURVE",
"237 255 OFFCURVE",
"245 276 OFFCURVE",
"245 296 CURVE SMOOTH",
"245 335 OFFCURVE",
"219 353 OFFCURVE",
"188 353 CURVE SMOOTH",
"146 353 OFFCURVE",
"123 329 OFFCURVE",
"123 297 CURVE SMOOTH"
);
}
);
vertWidth = 0;
width = 573;
}
);
leftKerningGroup = shavi;
rightMetricsKey = "shaviyani-thaana";
unicode = 078F;
script = thaana;
category = Letter;
},
{
glyphname = "seenu-thaana";
production = seenuthaana;
layers = (
{
anchors = (
{
name = b.uni07A8;
position = "{349, 0}";
},
{
name = t.uni07A6;
position = "{531, 414}";
}
);
layerId = "F950428B-3F13-4CD6-A68E-5B8ABB069931";
paths = (
{
closed = 1;
nodes = (
"302 100 OFFCURVE",
"334 99 OFFCURVE",
"364 99 CURVE SMOOTH",
"486 99 OFFCURVE",
"611 116 OFFCURVE",
"711 142 CURVE SMOOTH",
"780 160 OFFCURVE",
"797 192 OFFCURVE",
"814 236 CURVE SMOOTH",
"836 293 OFFCURVE",
"846 350 OFFCURVE",
"852 406 CURVE",
"740 417 LINE",
"729 380 OFFCURVE",
"723 361 OFFCURVE",
"712 330 CURVE SMOOTH",
"706 312 OFFCURVE",
"701 300 OFFCURVE",
"651 289 CURVE SMOOTH",
"611 280 OFFCURVE",
"525 263 OFFCURVE",
"420 263 CURVE SMOOTH",
"378 263 OFFCURVE",
"351 264 OFFCURVE",
"315 266 CURVE",
"267 102 LINE"
);
},
{
closed = 1;
nodes = (
"47 19 OFFCURVE",
"96 -23 OFFCURVE",
"152 -64 CURVE",
"254 46 OFFCURVE",
"287 83 OFFCURVE",
"307 120 CURVE SMOOTH",
"330 162 OFFCURVE",
"330 210 OFFCURVE",
"330 244 CURVE SMOOTH",
"330 316 OFFCURVE",
"267 350 OFFCURVE",
"212 350 CURVE SMOOTH",
"124 350 OFFCURVE",
"76 305 OFFCURVE",
"76 239 CURVE SMOOTH",
"76 193 OFFCURVE",
"105 153 OFFCURVE",
"156 132 CURVE",
"138 193 LINE",
"105 160 OFFCURVE",
"44 102 OFFCURVE",
"3 64 CURVE"
);
}
);
vertWidth = 0;
width = 842;
},
{
anchors = (
{
name = b.uni07A8;
position = "{284, 0}";
},
{
name = t.uni07A6;
position = "{451, 414}";
}
);
layerId = "DD221461-5F58-4856-B7A3-0FD42177026D";
paths = (
{
closed = 1;
nodes = (
"217 264 OFFCURVE",
"264 262 OFFCURVE",
"333 262 CURVE SMOOTH",
"471 262 OFFCURVE",
"591 271 OFFCURVE",
"651 295 CURVE SMOOTH",
"676 305 OFFCURVE",
"691 319 OFFCURVE",
"699 332 CURVE SMOOTH",
"710 349 OFFCURVE",
"735 403 OFFCURVE",
"739 414 CURVE",
"718 419 LINE",
"709 397 OFFCURVE",
"698 374 OFFCURVE",
"691 362 CURVE SMOOTH",
"674 331 OFFCURVE",
"661 321 OFFCURVE",
"629 311 CURVE SMOOTH",
"586 298 OFFCURVE",
"503 284 OFFCURVE",
"334 284 CURVE SMOOTH",
"264 284 OFFCURVE",
"225 285 OFFCURVE",
"183 291 CURVE",
"175 269 LINE"
);
},
{
closed = 1;
nodes = (
"70 154 OFFCURVE",
"76 150 OFFCURVE",
"84 146 CURVE",
"127 199 OFFCURVE",
"152 231 OFFCURVE",
"164 247 CURVE SMOOTH",
"183 273 OFFCURVE",
"188 285 OFFCURVE",
"188 301 CURVE SMOOTH",
"188 318 OFFCURVE",
"179 328 OFFCURVE",
"164 328 CURVE SMOOTH",
"148 328 OFFCURVE",
"135 316 OFFCURVE",
"135 300 CURVE SMOOTH",
"135 283 OFFCURVE",
"153 275 OFFCURVE",
"170 269 CURVE",
"160 279 LINE",
"136 246 OFFCURVE",
"105 208 OFFCURVE",
"64 160 CURVE"
);
}
);
vertWidth = 0;
width = 728;
},
{
anchors = (
{
name = b.uni07A8;
position = "{334, 0}";
},
{
name = t.uni07A6;
position = "{508, 414}";
}
);
layerId = "108A7794-AFCA-4739-A8E0-6E5429236965";
paths = (
{
closed = 1;
nodes = (
"277 133 OFFCURVE",
"313 132 OFFCURVE",
"353 132 CURVE SMOOTH",
"479 132 OFFCURVE",
"603 147 OFFCURVE",
"693 172 CURVE SMOOTH",
"751 188 OFFCURVE",
"766 221 OFFCURVE",
"782 260 CURVE SMOOTH",
"801 307 OFFCURVE",
"815 363 OFFCURVE",
"820 408 CURVE",
"719 418 LINE",
"709 384 OFFCURVE",
"702 364 OFFCURVE",
"692 338 CURVE SMOOTH",
"684 317 OFFCURVE",
"677 304 OFFCURVE",
"636 293 CURVE SMOOTH",
"595 282 OFFCURVE",
"513 268 OFFCURVE",
"395 268 CURVE SMOOTH",
"346 268 OFFCURVE",
"316 269 OFFCURVE",
"279 272 CURVE",
"241 136 LINE"
);
},
{
closed = 1;
nodes = (
"49 53 OFFCURVE",
"88 20 OFFCURVE",
"132 -11 CURVE",
"219 84 OFFCURVE",
"251 120 OFFCURVE",
"268 152 CURVE SMOOTH",
"288 191 OFFCURVE",
"291 229 OFFCURVE",
"291 258 CURVE SMOOTH",
"291 317 OFFCURVE",
"242 345 OFFCURVE",
"197 345 CURVE SMOOTH",
"127 345 OFFCURVE",
"87 308 OFFCURVE",
"87 254 CURVE SMOOTH",
"87 216 OFFCURVE",
"114 184 OFFCURVE",
"156 166 CURVE",
"140 215 LINE",
"109 182 OFFCURVE",
"56 129 OFFCURVE",
"15 88 CURVE"
);
}
);
vertWidth = 0;
width = 801;
},
{
anchors = (
{
name = b.uni07A8;
position = "{326, 0}";
},
{
name = t.uni07A6;
position = "{492, 414}";
}
);
layerId = "3EC9E734-A013-45CB-A1DF-CD633C54F02E";
paths = (
{
closed = 1;
nodes = (
"259 198 OFFCURVE",
"301 196 OFFCURVE",
"355 196 CURVE SMOOTH",
"487 196 OFFCURVE",
"608 208 OFFCURVE",
"684 233 CURVE SMOOTH",
"728 247 OFFCURVE",
"743 269 OFFCURVE",
"756 296 CURVE SMOOTH",
"771 328 OFFCURVE",
"790 383 OFFCURVE",
"795 411 CURVE",
"734 419 LINE",
"724 391 OFFCURVE",
"715 369 OFFCURVE",
"706 350 CURVE SMOOTH",
"694 324 OFFCURVE",
"685 313 OFFCURVE",
"648 303 CURVE SMOOTH",
"606 292 OFFCURVE",
"522 276 OFFCURVE",
"377 276 CURVE SMOOTH",
"317 276 OFFCURVE",
"283 277 OFFCURVE",
"243 282 CURVE",
"220 202 LINE"
);
},
{
closed = 1;
nodes = (
"74 104 OFFCURVE",
"95 86 OFFCURVE",
"118 70 CURVE",
"182 145 OFFCURVE",
"210 178 OFFCURVE",
"224 202 CURVE SMOOTH",
"243 235 OFFCURVE",
"252 258 OFFCURVE",
"252 280 CURVE SMOOTH",
"252 318 OFFCURVE",
"223 337 OFFCURVE",
"193 337 CURVE SMOOTH",
"150 337 OFFCURVE",
"123 312 OFFCURVE",
"123 277 CURVE SMOOTH",
"123 250 OFFCURVE",
"146 230 OFFCURVE",
"175 218 CURVE",
"163 246 LINE",
"136 213 OFFCURVE",
"96 168 OFFCURVE",
"55 123 CURVE"
);
}
);
vertWidth = 0;
width = 775;
}
);
leftKerningGroup = seenu;
rightKerningGroup = seenu;
unicode = 0790;
script = thaana;
category = Letter;
},
{
glyphname = "daviyani-thaana";
production = daviyanithaana;
layers = (
{
anchors = (
{
name = b.uni07A8;
position = "{95, 0}";
},
{
name = t.uni07A6;
position = "{221, 414}";
}
);
layerId = "DD221461-5F58-4856-B7A3-0FD42177026D";
paths = (
{
closed = 1;
nodes = (
"65 43 LINE",
"128 15 OFFCURVE",
"179 -7 OFFCURVE",
"244 -35 CURVE",
"253 -13 LINE",
"185 16 OFFCURVE",
"134 38 OFFCURVE",
"71 66 CURVE",
"79 54 LINE",
"150 122 OFFCURVE",
"203 176 OFFCURVE",
"218 196 CURVE",
"216 206 OFFCURVE",
"214 212 OFFCURVE",
"212 216 CURVE",
"196 224 OFFCURVE",
"149 240 OFFCURVE",
"79 263 CURVE",
"98 252 LINE",
"148 310 OFFCURVE",
"184 352 OFFCURVE",
"228 404 CURVE",
"212 417 LINE",
"174 372 OFFCURVE",
"124 315 OFFCURVE",
"73 258 CURVE",
"80 240 LINE",
"112 230 OFFCURVE",
"180 207 OFFCURVE",
"208 193 CURVE",
"202 211 LINE",
"164 166 OFFCURVE",
"105 109 OFFCURVE",
"57 63 CURVE"
);
}
);
vertWidth = 0;
width = 342;
},
{
anchors = (
{
name = b.uni07A8;
position = "{101, 0}";
},
{
name = t.uni07A6;
position = "{215, 414}";
}
);
layerId = "F950428B-3F13-4CD6-A68E-5B8ABB069931";
paths = (
{
closed = 1;
nodes = (
"58 9 LINE",
"125 -19 OFFCURVE",
"201 -49 OFFCURVE",
"263 -73 CURVE",
"335 81 LINE",
"262 108 OFFCURVE",
"212 127 OFFCURVE",
"148 153 CURVE",
"167 40 LINE",
"254 127 OFFCURVE",
"303 177 OFFCURVE",
"323 199 CURVE",
"323 229 OFFCURVE",
"320 268 OFFCURVE",
"314 304 CURVE",
"295 313 OFFCURVE",
"255 329 OFFCURVE",
"218 343 CURVE",
"232 309 LINE",
"267 346 OFFCURVE",
"286 367 OFFCURVE",
"309 394 CURVE",
"218 480 LINE",
"156 412 OFFCURVE",
"111 364 OFFCURVE",
"67 320 CURVE",
"91 235 LINE",
"130 228 OFFCURVE",
"185 217 OFFCURVE",
"247 204 CURVE",
"189 273 LINE",
"137 232 OFFCURVE",
"112 211 OFFCURVE",
"40 149 CURVE"
);
}
);
vertWidth = 0;
width = 373;
},
{
anchors = (
{
name = b.uni07A8;
position = "{104, 0}";
},
{
name = t.uni07A6;
position = "{221, 414}";
}
);
layerId = "108A7794-AFCA-4739-A8E0-6E5429236965";
paths = (
{
closed = 1;
nodes = (
"64 18 LINE",
"129 -10 OFFCURVE",
"198 -38 OFFCURVE",
"260 -63 CURVE",
"329 71 LINE",
"260 98 OFFCURVE",
"209 118 OFFCURVE",
"147 144 CURVE",
"165 65 LINE",
"235 145 OFFCURVE",
"277 194 OFFCURVE",
"293 214 CURVE",
"291 236 OFFCURVE",
"287 261 OFFCURVE",
"283 285 CURVE",
"269 291 OFFCURVE",
"238 303 OFFCURVE",
"202 316 CURVE",
"203 295 LINE",
"242 338 OFFCURVE",
"264 363 OFFCURVE",
"293 397 CURVE",
"214 461 LINE",
"158 397 OFFCURVE",
"110 346 OFFCURVE",
"63 297 CURVE",
"78 218 LINE",
"112 208 OFFCURVE",
"165 189 OFFCURVE",
"216 169 CURVE",
"187 250 LINE",
"138 197 OFFCURVE",
"107 164 OFFCURVE",
"39 93 CURVE"
);
}
);
vertWidth = 0;
width = 374;
},
{
anchors = (
{
name = b.uni07A8;
position = "{113, 0}";
},
{
name = t.uni07A6;
position = "{235, 414}";
}
);
layerId = "3EC9E734-A013-45CB-A1DF-CD633C54F02E";
paths = (
{
closed = 1;
nodes = (
"78 31 LINE",
"141 4 OFFCURVE",
"202 -22 OFFCURVE",
"267 -49 CURVE",
"303 27 LINE",
"234 55 OFFCURVE",
"183 76 OFFCURVE",
"120 103 CURVE",
"126 50 LINE",
"203 126 OFFCURVE",
"254 178 OFFCURVE",
"271 198 CURVE",
"269 216 OFFCURVE",
"266 234 OFFCURVE",
"263 250 CURVE",
"248 257 OFFCURVE",
"208 272 OFFCURVE",
"155 291 CURVE",
"168 268 LINE",
"213 318 OFFCURVE",
"242 352 OFFCURVE",
"278 395 CURVE",
"227 439 LINE",
"181 386 OFFCURVE",
"134 333 OFFCURVE",
"87 282 CURVE",
"100 238 LINE",
"134 228 OFFCURVE",
"197 206 OFFCURVE",
"237 189 CURVE",
"213 236 LINE",
"170 193 OFFCURVE",
"124 150 OFFCURVE",
"67 99 CURVE"
);
}
);
vertWidth = 0;
width = 393;
}
);
unicode = 0791;
script = thaana;
category = Letter;
},
{
glyphname = "zaviyani-thaana";
production = zaviyanithaana;
layers = (
{
anchors = (
{
name = b.uni07A8;
position = "{125, -40}";
},
{
name = t.uni07A6;
position = "{295, 414}";
}
);
layerId = "DD221461-5F58-4856-B7A3-0FD42177026D";
paths = (
{
closed = 1;
nodes = (
"51 -38 OFFCURVE",
"114 -87 OFFCURVE",
"210 -87 CURVE SMOOTH",
"240 -87 OFFCURVE",
"278 -83 OFFCURVE",
"319 -72 CURVE",
"318 -62 OFFCURVE",
"317 -55 OFFCURVE",
"316 -49 CURVE",
"277 -59 OFFCURVE",
"240 -65 OFFCURVE",
"210 -65 CURVE SMOOTH",
"129 -65 OFFCURVE",
"72 -26 OFFCURVE",
"72 45 CURVE SMOOTH",
"72 113 OFFCURVE",
"128 181 OFFCURVE",
"201 252 CURVE",
"183 264 LINE",
"112 197 OFFCURVE",
"51 122 OFFCURVE",
"51 45 CURVE SMOOTH"
);
},
{
closed = 1;
nodes = (
"139 264 OFFCURVE",
"233 234 OFFCURVE",
"321 216 CURVE",
"326 237 LINE",
"274 248 OFFCURVE",
"239 257 OFFCURVE",
"206 266 CURVE",
"211 256 LINE",
"215 265 OFFCURVE",
"221 274 OFFCURVE",
"238 290 CURVE SMOOTH",
"356 401 LINE",
"339 415 LINE",
"224 307 LINE SMOOTH",
"202 286 OFFCURVE",
"197 281 OFFCURVE",
"196 270 CURVE SMOOTH",
"196 265 OFFCURVE",
"198 263 OFFCURVE",
"202 259 CURVE",
"202 267 LINE",
"168 278 OFFCURVE",
"129 291 OFFCURVE",
"90 307 CURVE",
"87 299 OFFCURVE",
"86 291 OFFCURVE",
"86 285 CURVE"
);
}
);
vertWidth = 0;
width = 414;
},
{
anchors = (
{
name = b.uni07A8;
position = "{91, -30}";
},
{
name = t.uni07A6;
position = "{364, 414}";
}
);
layerId = "F950428B-3F13-4CD6-A68E-5B8ABB069931";
paths = (
{
closed = 1;
nodes = (
"87 -6 OFFCURVE",
"137 -87 OFFCURVE",
"274 -87 CURVE SMOOTH",
"316 -87 OFFCURVE",
"351 -85 OFFCURVE",
"399 -77 CURVE",
"399 -4 OFFCURVE",
"394 54 OFFCURVE",
"389 98 CURVE",
"352 91 OFFCURVE",
"315 88 OFFCURVE",
"279 88 CURVE SMOOTH",
"235 88 OFFCURVE",
"201 97 OFFCURVE",
"201 113 CURVE SMOOTH",
"201 134 OFFCURVE",
"232 155 OFFCURVE",
"284 184 CURVE",
"147 234 LINE",
"106 186 OFFCURVE",
"87 146 OFFCURVE",
"87 82 CURVE SMOOTH"
);
},
{
closed = 1;
nodes = (
"129 185 OFFCURVE",
"361 134 OFFCURVE",
"417 125 CURVE",
"448 251 LINE",
"393 261 OFFCURVE",
"361 267 OFFCURVE",
"331 273 CURVE",
"359 253 LINE",
"357 270 OFFCURVE",
"364 278 OFFCURVE",
"385 299 CURVE SMOOTH",
"434 346 LINE",
"293 444 LINE",
"218 361 LINE SMOOTH",
"190 330 OFFCURVE",
"186 322 OFFCURVE",
"186 309 CURVE SMOOTH",
"186 288 OFFCURVE",
"212 263 OFFCURVE",
"252 249 CURVE",
"283 284 LINE",
"207 301 OFFCURVE",
"146 317 OFFCURVE",
"66 342 CURVE",
"53 293 OFFCURVE",
"42 234 OFFCURVE",
"41 206 CURVE"
);
}
);
vertWidth = 0;
width = 482;
},
{
anchors = (
{
name = b.uni07A8;
position = "{124, -35}";
},
{
name = t.uni07A6;
position = "{351, 414}";
}
);
layerId = "108A7794-AFCA-4739-A8E0-6E5429236965";
paths = (
{
closed = 1;
nodes = (
"81 -23 OFFCURVE",
"145 -87 OFFCURVE",
"272 -87 CURVE SMOOTH",
"311 -87 OFFCURVE",
"347 -84 OFFCURVE",
"393 -76 CURVE",
"391 -15 OFFCURVE",
"389 32 OFFCURVE",
"385 67 CURVE",
"347 60 OFFCURVE",
"310 56 OFFCURVE",
"276 56 CURVE SMOOTH",
"223 56 OFFCURVE",
"183 70 OFFCURVE",
"183 96 CURVE SMOOTH",
"183 120 OFFCURVE",
"213 143 OFFCURVE",
"258 171 CURVE",
"130 212 LINE",
"96 169 OFFCURVE",
"81 121 OFFCURVE",
"81 78 CURVE SMOOTH"
);
},
{
closed = 1;
nodes = (
"141 166 OFFCURVE",
"281 127 OFFCURVE",
"349 113 CURVE",
"393 221 LINE",
"325 235 OFFCURVE",
"282 245 OFFCURVE",
"249 254 CURVE",
"295 209 LINE",
"286 230 OFFCURVE",
"286 239 OFFCURVE",
"299 255 CURVE SMOOTH",
"379 348 LINE",
"281 431 LINE",
"210 351 LINE SMOOTH",
"177 314 OFFCURVE",
"167 295 OFFCURVE",
"167 278 CURVE SMOOTH",
"167 259 OFFCURVE",
"173 243 OFFCURVE",
"204 222 CURVE",
"214 263 LINE",
"166 276 OFFCURVE",
"124 291 OFFCURVE",
"69 311 CURVE",
"57 276 OFFCURVE",
"40 226 OFFCURVE",
"33 198 CURVE"
);
}
);
vertWidth = 0;
width = 437;
},
{
anchors = (
{
name = b.uni07A8;
position = "{83, -26}";
},
{
name = t.uni07A6;
position = "{310, 414}";
}
);
layerId = "3EC9E734-A013-45CB-A1DF-CD633C54F02E";
paths = (
{
closed = 1;
nodes = (
"72 -26 OFFCURVE",
"131 -87 OFFCURVE",
"244 -87 CURVE SMOOTH",
"279 -87 OFFCURVE",
"315 -84 OFFCURVE",
"359 -74 CURVE",
"359 -40 OFFCURVE",
"356 -16 OFFCURVE",
"353 5 CURVE",
"315 -4 OFFCURVE",
"278 -9 OFFCURVE",
"246 -9 CURVE SMOOTH",
"183 -9 OFFCURVE",
"137 19 OFFCURVE",
"137 70 CURVE SMOOTH",
"137 112 OFFCURVE",
"183 170 OFFCURVE",
"242 222 CURVE",
"180 257 LINE",
"117 195 OFFCURVE",
"72 134 OFFCURVE",
"72 59 CURVE SMOOTH"
);
},
{
closed = 1;
nodes = (
"139 224 OFFCURVE",
"283 189 OFFCURVE",
"359 173 CURVE",
"376 241 LINE",
"322 251 OFFCURVE",
"287 259 OFFCURVE",
"257 266 CURVE",
"257 238 LINE",
"260 254 OFFCURVE",
"266 263 OFFCURVE",
"282 281 CURVE SMOOTH",
"372 377 LINE",
"316 425 LINE",
"237 337 LINE SMOOTH",
"215 313 OFFCURVE",
"207 303 OFFCURVE",
"207 288 CURVE SMOOTH",
"207 276 OFFCURVE",
"212 267 OFFCURVE",
"231 257 CURVE",
"236 271 LINE",
"186 284 OFFCURVE",
"139 299 OFFCURVE",
"85 318 CURVE",
"80 294 OFFCURVE",
"75 264 OFFCURVE",
"73 249 CURVE"
);
}
);
vertWidth = 0;
width = 441;
}
);
leftKerningGroup = zaviya;
unicode = 0792;
script = thaana;
category = Letter;
},
{
glyphname = "taviyani-thaana";
production = taviyanithaana;
layers = (
{
anchors = (
{
name = b.uni07A8;
position = "{108, -40}";
},
{
name = t.uni07A6;
position = "{321, 414}";
}
);
layerId = "DD221461-5F58-4856-B7A3-0FD42177026D";
paths = (
{
closed = 1;
nodes = (
"32 -41 OFFCURVE",
"98 -87 OFFCURVE",
"197 -87 CURVE SMOOTH",
"231 -87 OFFCURVE",
"266 -82 OFFCURVE",
"307 -71 CURVE",
"306 -61 OFFCURVE",
"304 -52 OFFCURVE",
"303 -48 CURVE",
"265 -59 OFFCURVE",
"231 -65 OFFCURVE",
"197 -65 CURVE SMOOTH",
"112 -65 OFFCURVE",
"53 -28 OFFCURVE",
"53 35 CURVE SMOOTH",
"53 83 OFFCURVE",
"99 134 OFFCURVE",
"204 174 CURVE",
"182 186 LINE",
"84 147 OFFCURVE",
"32 93 OFFCURVE",
"32 34 CURVE SMOOTH"
);
},
{
closed = 1;
nodes = (
"98 209 OFFCURVE",
"135 171 OFFCURVE",
"206 171 CURVE SMOOTH",
"343 171 OFFCURVE",
"429 260 OFFCURVE",
"429 331 CURVE SMOOTH",
"429 375 OFFCURVE",
"399 414 OFFCURVE",
"347 414 CURVE SMOOTH",
"301 414 OFFCURVE",
"265 387 OFFCURVE",
"232 340 CURVE",
"246 332 LINE",
"274 367 OFFCURVE",
"304 392 OFFCURVE",
"344 392 CURVE SMOOTH",
"383 392 OFFCURVE",
"407 365 OFFCURVE",
"407 331 CURVE SMOOTH",
"407 273 OFFCURVE",
"329 192 OFFCURVE",
"207 192 CURVE SMOOTH",
"150 192 OFFCURVE",
"120 224 OFFCURVE",
"120 255 CURVE SMOOTH",
"120 292 OFFCURVE",
"160 330 OFFCURVE",
"208 330 CURVE SMOOTH",
"247 330 OFFCURVE",
"275 307 OFFCURVE",
"275 274 CURVE SMOOTH",
"275 238 OFFCURVE",
"247 204 OFFCURVE",
"191 188 CURVE",
"208 179 LINE",
"271 198 OFFCURVE",
"296 237 OFFCURVE",
"296 274 CURVE SMOOTH",
"296 321 OFFCURVE",
"257 352 OFFCURVE",
"207 352 CURVE SMOOTH",
"145 352 OFFCURVE",
"98 304 OFFCURVE",
"98 254 CURVE SMOOTH"
);
}
);
vertWidth = 0;
width = 480;
},
{
anchors = (
{
name = b.uni07A8;
position = "{66, -30}";
},
{
name = t.uni07A6;
position = "{317, 414}";
}
);
layerId = "F950428B-3F13-4CD6-A68E-5B8ABB069931";
paths = (
{
closed = 1;
nodes = (
"33 -13 OFFCURVE",
"83 -87 OFFCURVE",
"219 -87 CURVE SMOOTH",
"262 -87 OFFCURVE",
"297 -84 OFFCURVE",
"347 -74 CURVE",
"347 -11 OFFCURVE",
"342 52 OFFCURVE",
"337 96 CURVE",
"293 86 OFFCURVE",
"255 83 OFFCURVE",
"224 83 CURVE SMOOTH",
"178 83 OFFCURVE",
"147 90 OFFCURVE",
"147 100 CURVE SMOOTH",
"147 114 OFFCURVE",
"181 126 OFFCURVE",
"235 144 CURVE",
"132 214 LINE",
"58 162 OFFCURVE",
"33 128 OFFCURVE",
"33 68 CURVE SMOOTH"
);
},
{
closed = 1;
nodes = (
"72 152 OFFCURVE",
"144 114 OFFCURVE",
"228 114 CURVE SMOOTH",
"366 114 OFFCURVE",
"512 187 OFFCURVE",
"512 322 CURVE SMOOTH",
"512 393 OFFCURVE",
"472 453 OFFCURVE",
"406 453 CURVE SMOOTH",
"355 453 OFFCURVE",
"313 418 OFFCURVE",
"281 348 CURVE",
"313 285 LINE",
"332 310 OFFCURVE",
"368 323 OFFCURVE",
"386 323 CURVE SMOOTH",
"401 323 OFFCURVE",
"412 318 OFFCURVE",
"412 314 CURVE SMOOTH",
"412 276 OFFCURVE",
"273 247 OFFCURVE",
"236 247 CURVE SMOOTH",
"210 247 OFFCURVE",
"188 254 OFFCURVE",
"173 265 CURVE",
"182 276 OFFCURVE",
"201 292 OFFCURVE",
"228 292 CURVE SMOOTH",
"248 292 OFFCURVE",
"261 283 OFFCURVE",
"261 272 CURVE SMOOTH",
"261 260 OFFCURVE",
"252 249 OFFCURVE",
"230 228 CURVE",
"302 198 LINE",
"315 226 OFFCURVE",
"333 267 OFFCURVE",
"333 306 CURVE SMOOTH",
"333 361 OFFCURVE",
"301 423 OFFCURVE",
"231 423 CURVE SMOOTH",
"151 423 OFFCURVE",
"72 355 OFFCURVE",
"72 256 CURVE SMOOTH"
);
}
);
vertWidth = 0;
width = 508;
},
{
anchors = (
{
name = b.uni07A8;
position = "{68, -35}";
},
{
name = t.uni07A6;
position = "{310, 414}";
}
);
layerId = "108A7794-AFCA-4739-A8E0-6E5429236965";
paths = (
{
closed = 1;
nodes = (
"24 -20 OFFCURVE",
"78 -87 OFFCURVE",
"205 -87 CURVE SMOOTH",
"246 -87 OFFCURVE",
"281 -83 OFFCURVE",
"329 -73 CURVE",
"327 -19 OFFCURVE",
"324 33 OFFCURVE",
"320 70 CURVE",
"278 60 OFFCURVE",
"241 56 OFFCURVE",
"209 56 CURVE SMOOTH",
"155 56 OFFCURVE",
"119 67 OFFCURVE",
"119 84 CURVE SMOOTH",
"119 104 OFFCURVE",
"155 123 OFFCURVE",
"219 145 CURVE",
"123 221 LINE",
"52 167 OFFCURVE",
"24 125 OFFCURVE",
"24 60 CURVE SMOOTH"
);
},
{
closed = 1;
nodes = (
"68 157 OFFCURVE",
"137 118 OFFCURVE",
"220 118 CURVE SMOOTH",
"345 118 OFFCURVE",
"483 192 OFFCURVE",
"483 326 CURVE SMOOTH",
"483 389 OFFCURVE",
"445 445 OFFCURVE",
"383 445 CURVE SMOOTH",
"333 445 OFFCURVE",
"292 410 OFFCURVE",
"260 346 CURVE",
"288 297 LINE",
"309 324 OFFCURVE",
"342 340 OFFCURVE",
"367 340 CURVE SMOOTH",
"383 340 OFFCURVE",
"390 329 OFFCURVE",
"390 318 CURVE SMOOTH",
"390 298 OFFCURVE",
"353 234 OFFCURVE",
"235 234 CURVE SMOOTH",
"187 234 OFFCURVE",
"159 247 OFFCURVE",
"159 263 CURVE SMOOTH",
"159 277 OFFCURVE",
"185 301 OFFCURVE",
"213 301 CURVE SMOOTH",
"239 301 OFFCURVE",
"252 288 OFFCURVE",
"252 271 CURVE SMOOTH",
"252 254 OFFCURVE",
"237 237 OFFCURVE",
"208 218 CURVE",
"270 193 LINE",
"297 221 OFFCURVE",
"320 258 OFFCURVE",
"320 300 CURVE SMOOTH",
"320 350 OFFCURVE",
"277 405 OFFCURVE",
"217 405 CURVE SMOOTH",
"142 405 OFFCURVE",
"68 341 OFFCURVE",
"68 255 CURVE SMOOTH"
);
}
);
vertWidth = 0;
width = 472;
},
{
anchors = (
{
name = b.uni07A8;
position = "{52, -26}";
},
{
name = t.uni07A6;
position = "{320, 414}";
}
);
layerId = "3EC9E734-A013-45CB-A1DF-CD633C54F02E";
paths = (
{
closed = 1;
nodes = (
"37 -30 OFFCURVE",
"97 -87 OFFCURVE",
"210 -87 CURVE SMOOTH",
"247 -87 OFFCURVE",
"282 -84 OFFCURVE",
"327 -74 CURVE",
"325 -43 OFFCURVE",
"323 -13 OFFCURVE",
"320 6 CURVE",
"280 -5 OFFCURVE",
"245 -9 OFFCURVE",
"212 -9 CURVE SMOOTH",
"146 -9 OFFCURVE",
"102 16 OFFCURVE",
"102 59 CURVE SMOOTH",
"102 85 OFFCURVE",
"135 123 OFFCURVE",
"215 157 CURVE",
"159 215 LINE",
"74 166 OFFCURVE",
"37 106 OFFCURVE",
"37 47 CURVE SMOOTH"
);
},
{
closed = 1;
nodes = (
"83 182 OFFCURVE",
"135 142 OFFCURVE",
"209 142 CURVE SMOOTH",
"362 142 OFFCURVE",
"453 233 OFFCURVE",
"453 318 CURVE SMOOTH",
"453 371 OFFCURVE",
"416 414 OFFCURVE",
"361 414 CURVE SMOOTH",
"314 414 OFFCURVE",
"279 389 OFFCURVE",
"244 341 CURVE",
"272 302 LINE",
"295 327 OFFCURVE",
"320 342 OFFCURVE",
"349 342 CURVE SMOOTH",
"368 342 OFFCURVE",
"385 329 OFFCURVE",
"385 310 CURVE SMOOTH",
"385 275 OFFCURVE",
"327 212 OFFCURVE",
"211 212 CURVE SMOOTH",
"176 212 OFFCURVE",
"149 238 OFFCURVE",
"149 260 CURVE SMOOTH",
"149 283 OFFCURVE",
"177 307 OFFCURVE",
"207 307 CURVE SMOOTH",
"232 307 OFFCURVE",
"250 291 OFFCURVE",
"250 268 CURVE SMOOTH",
"250 241 OFFCURVE",
"230 216 OFFCURVE",
"190 200 CURVE",
"234 180 LINE",
"280 203 OFFCURVE",
"305 244 OFFCURVE",
"305 284 CURVE SMOOTH",
"305 335 OFFCURVE",
"270 378 OFFCURVE",
"211 378 CURVE SMOOTH",
"143 378 OFFCURVE",
"83 322 OFFCURVE",
"83 252 CURVE SMOOTH"
);
}
);
vertWidth = 0;
width = 493;
}
);
leftKerningGroup = zaviya;
unicode = 0793;
script = thaana;
category = Letter;
},
{
glyphname = "yaa-thaana";
production = yaathaana;
layers = (
{
anchors = (
{
name = b.uni07A8;
position = "{136, 0}";
},
{
name = t.uni07A6;
position = "{410, 414}";
}
);
components = (
{
alignment = -1;
name = _part.haa;
transform = "{1, 0, 0, 1, -55, 0}";
}
);
layerId = "DD221461-5F58-4856-B7A3-0FD42177026D";
paths = (
{
closed = 1;
nodes = (
"258 276 LINE",
"351 291 OFFCURVE",
"444 345 OFFCURVE",
"493 397 CURVE",
"488 399 LINE",
"460 313 OFFCURVE",
"429 220 OFFCURVE",
"373 95 CURVE",
"398 90 LINE",
"431 171 OFFCURVE",
"481 295 OFFCURVE",
"510 411 CURVE",
"489 421 LINE",
"454 381 OFFCURVE",
"368 317 OFFCURVE",
"255 298 CURVE"
);
}
);
vertWidth = 0;
width = 547;
},
{
anchors = (
{
name = b.uni07A8;
position = "{156, 0}";
},
{
name = t.uni07A6;
position = "{455, 414}";
}
);
components = (
{
alignment = -1;
name = _part.haa;
transform = "{1, 0, 0, 1, -160, 0}";
}
);
layerId = "F950428B-3F13-4CD6-A68E-5B8ABB069931";
paths = (
{
closed = 1;
nodes = (
"337 200 LINE",
"406 222 OFFCURVE",
"471 243 OFFCURVE",
"520 265 CURVE",
"502 336 LINE",
"453 235 OFFCURVE",
"401 140 OFFCURVE",
"377 99 CURVE",
"562 49 LINE",
"582 109 OFFCURVE",
"628 271 OFFCURVE",
"643 335 CURVE",
"562 416 LINE",
"459 393 OFFCURVE",
"405 383 OFFCURVE",
"337 375 CURVE"
);
}
);
vertWidth = 0;
width = 657;
},
{
anchors = (
{
name = b.uni07A8;
position = "{122, 0}";
},
{
name = t.uni07A6;
position = "{430, 414}";
}
);
components = (
{
alignment = -1;
name = _part.haa;
transform = "{1, 0, 0, 1, -147, 0}";
}
);
layerId = "108A7794-AFCA-4739-A8E0-6E5429236965";
paths = (
{
closed = 1;
nodes = (
"304 218 LINE",
"379 238 OFFCURVE",
"451 267 OFFCURVE",
"500 297 CURVE",
"482 352 LINE",
"437 252 OFFCURVE",
"388 154 OFFCURVE",
"354 91 CURVE",
"504 52 LINE",
"528 119 OFFCURVE",
"577 276 OFFCURVE",
"596 354 CURVE",
"530 417 LINE",
"446 388 OFFCURVE",
"382 367 OFFCURVE",
"304 356 CURVE"
);
}
);
vertWidth = 0;
width = 598;
},
{
anchors = (
{
name = b.uni07A8;
position = "{117, 0}";
},
{
name = t.uni07A6;
position = "{418, 414}";
}
);
components = (
{
alignment = -1;
name = _part.haa;
transform = "{1, 0, 0, 1, -103, 0}";
}
);
layerId = "3EC9E734-A013-45CB-A1DF-CD633C54F02E";
paths = (
{
closed = 1;
nodes = (
"277 247 LINE",
"363 264 OFFCURVE",
"445 302 OFFCURVE",
"494 340 CURVE",
"477 376 LINE",
"442 283 OFFCURVE",
"401 187 OFFCURVE",
"356 93 CURVE",
"442 71 LINE",
"472 145 OFFCURVE",
"526 286 OFFCURVE",
"551 383 CURVE",
"507 419 LINE",
"447 384 OFFCURVE",
"373 342 OFFCURVE",
"277 327 CURVE"
);
}
);
vertWidth = 0;
width = 563;
}
);
leftMetricsKey = "shaviyani-thaana";
rightKerningGroup = shavi;
unicode = 0794;
script = thaana;
category = Letter;
},
{
glyphname = "javiyani-thaana";
production = javiyanithaana;
layers = (
{
anchors = (
{
name = b.uni07A8;
position = "{114, -40}";
},
{
name = t.uni07A6;
position = "{293, 414}";
}
);
components = (
{
alignment = -1;
name = _part.jav;
transform = "{1, 0, 0, 1, -75, 0}";
}
);
layerId = "DD221461-5F58-4856-B7A3-0FD42177026D";
paths = (
{
closed = 1;
nodes = (
"223 -87 OFFCURVE",
"262 -82 OFFCURVE",
"302 -72 CURVE",
"301 -61 OFFCURVE",
"299 -53 OFFCURVE",
"298 -49 CURVE",
"260 -59 OFFCURVE",
"224 -65 OFFCURVE",
"192 -65 CURVE SMOOTH",
"111 -65 OFFCURVE",
"54 -26 OFFCURVE",
"54 46 CURVE SMOOTH",
"54 103 OFFCURVE",
"96 160 OFFCURVE",
"161 220 CURVE",
"147 234 LINE",
"83 175 OFFCURVE",
"34 112 OFFCURVE",
"34 45 CURVE SMOOTH",
"34 -37 OFFCURVE",
"96 -87 OFFCURVE",
"192 -87 CURVE SMOOTH"
);
},
{
closed = 1;
nodes = (
"118 231 OFFCURVE",
"140 221 OFFCURVE",
"165 218 CURVE",
"175 234 OFFCURVE",
"178 243 OFFCURVE",
"178 256 CURVE SMOOTH",
"178 272 OFFCURVE",
"168 284 OFFCURVE",
"151 284 CURVE SMOOTH",
"132 284 OFFCURVE",
"118 270 OFFCURVE",
"118 252 CURVE SMOOTH"
);
}
);
vertWidth = 0;
width = 429;
},
{
anchors = (
{
name = b.uni07A8;
position = "{64, -40}";
},
{
name = t.uni07A6;
position = "{254, 414}";
}
);
components = (
{
alignment = -1;
name = _part.jav;
transform = "{1, 0, 0, 1, -16, -80}";
}
);
layerId = "F950428B-3F13-4CD6-A68E-5B8ABB069931";
paths = (
{
closed = 1;
nodes = (
"265 -87 OFFCURVE",
"301 -84 OFFCURVE",
"350 -74 CURVE",
"350 1 OFFCURVE",
"345 59 OFFCURVE",
"340 101 CURVE",
"296 91 OFFCURVE",
"259 88 OFFCURVE",
"227 88 CURVE SMOOTH",
"183 88 OFFCURVE",
"149 97 OFFCURVE",
"149 111 CURVE SMOOTH",
"149 131 OFFCURVE",
"213 149 OFFCURVE",
"328 171 CURVE",
"235 258 LINE",
"92 229 OFFCURVE",
"35 165 OFFCURVE",
"35 82 CURVE SMOOTH",
"35 -6 OFFCURVE",
"85 -87 OFFCURVE",
"223 -87 CURVE SMOOTH"
);
},
{
closed = 1;
nodes = (
"76 182 OFFCURVE",
"145 171 OFFCURVE",
"260 171 CURVE",
"305 199 OFFCURVE",
"322 233 OFFCURVE",
"322 263 CURVE SMOOTH",
"322 347 OFFCURVE",
"267 384 OFFCURVE",
"210 384 CURVE SMOOTH",
"120 384 OFFCURVE",
"76 332 OFFCURVE",
"76 273 CURVE SMOOTH"
);
}
);
vertWidth = 0;
width = 591;
},
{
anchors = (
{
name = b.uni07A8;
position = "{58, -35}";
},
{
name = t.uni07A6;
position = "{233, 414}";
}
);
components = (
{
alignment = -1;
name = _part.jav;
transform = "{1, 0, 0, 1, -58, -89}";
}
);
layerId = "108A7794-AFCA-4739-A8E0-6E5429236965";
paths = (
{
closed = 1;
nodes = (
"236 -87 OFFCURVE",
"273 -83 OFFCURVE",
"320 -73 CURVE",
"318 -11 OFFCURVE",
"315 36 OFFCURVE",
"311 70 CURVE",
"269 60 OFFCURVE",
"232 56 OFFCURVE",
"200 56 CURVE SMOOTH",
"150 56 OFFCURVE",
"112 70 OFFCURVE",
"112 95 CURVE SMOOTH",
"112 120 OFFCURVE",
"164 135 OFFCURVE",
"267 162 CURVE",
"195 242 LINE",
"71 208 OFFCURVE",
"16 148 OFFCURVE",
"16 73 CURVE SMOOTH",
"16 -14 OFFCURVE",
"69 -87 OFFCURVE",
"197 -87 CURVE SMOOTH"
);
},
{
closed = 1;
nodes = (
"77 187 OFFCURVE",
"154 177 OFFCURVE",
"219 177 CURVE",
"246 190 OFFCURVE",
"260 223 OFFCURVE",
"260 244 CURVE SMOOTH",
"260 293 OFFCURVE",
"227 337 OFFCURVE",
"175 337 CURVE SMOOTH",
"127 337 OFFCURVE",
"77 312 OFFCURVE",
"77 256 CURVE SMOOTH"
);
}
);
vertWidth = 0;
width = 510;
},
{
anchors = (
{
name = b.uni07A8;
position = "{36, -26}";
},
{
name = t.uni07A6;
position = "{290, 414}";
}
);
components = (
{
alignment = -1;
name = _part.jav;
transform = "{1, 0, 0, 1, -73, -52}";
}
);
layerId = "3EC9E734-A013-45CB-A1DF-CD633C54F02E";
paths = (
{
closed = 1;
nodes = (
"230 -87 OFFCURVE",
"265 -82 OFFCURVE",
"306 -71 CURVE",
"305 -40 OFFCURVE",
"303 -13 OFFCURVE",
"301 8 CURVE",
"260 -4 OFFCURVE",
"222 -9 OFFCURVE",
"192 -9 CURVE SMOOTH",
"130 -9 OFFCURVE",
"86 18 OFFCURVE",
"86 64 CURVE SMOOTH",
"86 109 OFFCURVE",
"140 166 OFFCURVE",
"240 207 CURVE",
"177 262 LINE",
"85 206 OFFCURVE",
"21 136 OFFCURVE",
"21 59 CURVE SMOOTH",
"21 -26 OFFCURVE",
"79 -87 OFFCURVE",
"190 -87 CURVE SMOOTH"
);
},
{
closed = 1;
nodes = (
"102 201 OFFCURVE",
"157 192 OFFCURVE",
"199 190 CURVE",
"216 208 OFFCURVE",
"224 229 OFFCURVE",
"224 249 CURVE SMOOTH",
"224 288 OFFCURVE",
"198 306 OFFCURVE",
"167 306 CURVE SMOOTH",
"125 306 OFFCURVE",
"102 282 OFFCURVE",
"102 250 CURVE SMOOTH"
);
}
);
vertWidth = 0;
width = 491;
}
);
leftKerningGroup = zaviya;
unicode = 0796;
script = thaana;
category = Letter;
},
{
glyphname = "chaviyani-thaana";
production = chaviyanithaana;
layers = (
{
anchors = (
{
name = b.uni07A8;
position = "{172, 0}";
},
{
name = t.uni07A6;
position = "{214, 414}";
}
);
components = (
{
alignment = -1;
name = "thaa-thaana";
}
);
layerId = "DD221461-5F58-4856-B7A3-0FD42177026D";
paths = (
{
closed = 1;
nodes = (
"258 340 LINE",
"455 530 LINE",
"439 546 LINE",
"233 340 LINE"
);
}
);
vertWidth = 0;
width = 449;
},
{
anchors = (
{
name = b.uni07A8;
position = "{192, 0}";
},
{
name = t.uni07A6;
position = "{196, 414}";
}
);
components = (
{
alignment = -1;
name = "thaa-thaana";
transform = "{1, 0, 0, 1, -6, 0}";
}
);
layerId = "F950428B-3F13-4CD6-A68E-5B8ABB069931";
paths = (
{
closed = 1;
nodes = (
"318 281 LINE",
"549 479 LINE",
"453 586 LINE",
"171 320 LINE"
);
}
);
vertWidth = 0;
width = 532;
},
{
anchors = (
{
name = b.uni07A8;
position = "{179, 0}";
},
{
name = t.uni07A6;
position = "{210, 414}";
}
);
components = (
{
alignment = -1;
name = "thaa-thaana";
transform = "{1, 0, 0, 1, 10, 0}";
}
);
layerId = "108A7794-AFCA-4739-A8E0-6E5429236965";
paths = (
{
closed = 1;
nodes = (
"310 296 LINE",
"543 491 LINE",
"469 574 LINE",
"194 325 LINE"
);
}
);
vertWidth = 0;
width = 504;
},
{
anchors = (
{
name = b.uni07A8;
position = "{175, 0}";
},
{
name = t.uni07A6;
position = "{206, 414}";
}
);
components = (
{
alignment = -1;
name = "thaa-thaana";
transform = "{1, 0, 0, 1, 4, 0}";
}
);
layerId = "3EC9E734-A013-45CB-A1DF-CD633C54F02E";
paths = (
{
closed = 1;
nodes = (
"273 324 LINE",
"474 516 LINE",
"431 564 LINE",
"203 339 LINE"
);
}
);
vertWidth = 0;
width = 489;
}
);
unicode = 0797;
script = thaana;
category = Letter;
},
{
glyphname = "ttaa-thaana";
production = ttaathaana;
layers = (
{
anchors = (
{
name = b.uni07A8;
position = "{182, 0}";
},
{
name = t.uni07A6;
position = "{367, 414}";
}
);
components = (
{
alignment = -1;
name = "thaa-thaana";
transform = "{1, 0, 0, 1, 30, 0}";
}
);
layerId = "DD221461-5F58-4856-B7A3-0FD42177026D";
paths = (
{
closed = 1;
nodes = (
"199 353 OFFCURVE",
"204 364 OFFCURVE",
"194 382 CURVE SMOOTH",
"186 396 OFFCURVE",
"177 397 OFFCURVE",
"160 387 CURVE SMOOTH",
"150 381 OFFCURVE",
"140 370 OFFCURVE",
"156 350 CURVE SMOOTH",
"165 339 OFFCURVE",
"172 337 OFFCURVE",
"188 347 CURVE SMOOTH"
);
},
{
closed = 1;
nodes = (
"197 471 OFFCURVE",
"203 483 OFFCURVE",
"192 500 CURVE SMOOTH",
"183 514 OFFCURVE",
"175 515 OFFCURVE",
"158 505 CURVE SMOOTH",
"148 499 OFFCURVE",
"138 488 OFFCURVE",
"154 468 CURVE SMOOTH",
"162 457 OFFCURVE",
"170 455 OFFCURVE",
"186 464 CURVE SMOOTH"
);
},
{
closed = 1;
nodes = (
"300 437 OFFCURVE",
"307 449 OFFCURVE",
"296 466 CURVE SMOOTH",
"287 480 OFFCURVE",
"278 481 OFFCURVE",
"261 471 CURVE SMOOTH",
"252 464 OFFCURVE",
"242 453 OFFCURVE",
"257 434 CURVE SMOOTH",
"266 423 OFFCURVE",
"274 420 OFFCURVE",
"289 430 CURVE SMOOTH"
);
}
);
vertWidth = 0;
width = 475;
},
{
anchors = (
{
name = b.uni07A8;
position = "{253, 0}";
},
{
name = t.uni07A6;
position = "{409, 414}";
}
);
components = (
{
alignment = -1;
name = "thaa-thaana";
transform = "{1, 0, 0, 1, 55, 0}";
}
);
layerId = "F950428B-3F13-4CD6-A68E-5B8ABB069931";
paths = (
{
closed = 1;
nodes = (
"188 339 OFFCURVE",
"188 364 OFFCURVE",
"165 392 CURVE SMOOTH",
"142 419 OFFCURVE",
"117 411 OFFCURVE",
"90 389 CURVE SMOOTH",
"64 366 OFFCURVE",
"64 341 OFFCURVE",
"87 313 CURVE SMOOTH",
"110 286 OFFCURVE",
"135 294 OFFCURVE",
"162 316 CURVE SMOOTH"
);
},
{
closed = 1;
nodes = (
"172 483 OFFCURVE",
"173 508 OFFCURVE",
"149 536 CURVE SMOOTH",
"126 563 OFFCURVE",
"101 555 OFFCURVE",
"74 532 CURVE SMOOTH",
"48 510 OFFCURVE",
"47 485 OFFCURVE",
"71 457 CURVE SMOOTH",
"94 430 OFFCURVE",
"119 438 OFFCURVE",
"146 461 CURVE SMOOTH"
);
},
{
closed = 1;
nodes = (
"302 435 OFFCURVE",
"302 459 OFFCURVE",
"280 488 CURVE SMOOTH",
"256 515 OFFCURVE",
"231 507 OFFCURVE",
"204 485 CURVE SMOOTH",
"178 462 OFFCURVE",
"178 438 OFFCURVE",
"200 409 CURVE SMOOTH",
"224 382 OFFCURVE",
"249 390 OFFCURVE",
"276 412 CURVE SMOOTH"
);
}
);
vertWidth = 0;
width = 576;
},
{
anchors = (
{
name = b.uni07A8;
position = "{217, 0}";
},
{
name = t.uni07A6;
position = "{392, 414}";
}
);
components = (
{
alignment = -1;
name = "thaa-thaana";
transform = "{1, 0, 0, 1, 30, 0}";
}
);
layerId = "108A7794-AFCA-4739-A8E0-6E5429236965";
paths = (
{
closed = 1;
nodes = (
"176 342 OFFCURVE",
"178 364 OFFCURVE",
"158 389 CURVE SMOOTH",
"140 412 OFFCURVE",
"119 408 OFFCURVE",
"94 388 CURVE SMOOTH",
"73 370 OFFCURVE",
"71 348 OFFCURVE",
"91 323 CURVE SMOOTH",
"109 300 OFFCURVE",
"130 304 OFFCURVE",
"155 324 CURVE SMOOTH"
);
},
{
closed = 1;
nodes = (
"159 471 OFFCURVE",
"161 493 OFFCURVE",
"140 518 CURVE SMOOTH",
"123 541 OFFCURVE",
"102 536 OFFCURVE",
"77 516 CURVE SMOOTH",
"56 499 OFFCURVE",
"54 477 OFFCURVE",
"75 452 CURVE SMOOTH",
"92 429 OFFCURVE",
"113 434 OFFCURVE",
"138 454 CURVE SMOOTH"
);
},
{
closed = 1;
nodes = (
"275 430 OFFCURVE",
"277 451 OFFCURVE",
"257 476 CURVE SMOOTH",
"238 499 OFFCURVE",
"218 494 OFFCURVE",
"195 475 CURVE SMOOTH",
"173 456 OFFCURVE",
"171 435 OFFCURVE",
"191 410 CURVE SMOOTH",
"210 387 OFFCURVE",
"230 392 OFFCURVE",
"253 411 CURVE SMOOTH"
);
}
);
vertWidth = 0;
width = 529;
},
{
anchors = (
{
name = b.uni07A8;
position = "{210, 0}";
},
{
name = t.uni07A6;
position = "{410, 414}";
}
);
components = (
{
alignment = -1;
name = "thaa-thaana";
transform = "{1, 0, 0, 1, 40, 0}";
}
);
layerId = "3EC9E734-A013-45CB-A1DF-CD633C54F02E";
paths = (
{
closed = 1;
nodes = (
"186 342 OFFCURVE",
"189 358 OFFCURVE",
"171 377 CURVE SMOOTH",
"156 393 OFFCURVE",
"142 390 OFFCURVE",
"123 374 CURVE SMOOTH",
"110 360 OFFCURVE",
"107 344 OFFCURVE",
"125 325 CURVE SMOOTH",
"140 309 OFFCURVE",
"154 312 OFFCURVE",
"173 328 CURVE SMOOTH"
);
},
{
closed = 1;
nodes = (
"165 472 OFFCURVE",
"168 489 OFFCURVE",
"150 508 CURVE SMOOTH",
"135 524 OFFCURVE",
"121 520 OFFCURVE",
"102 503 CURVE SMOOTH",
"89 490 OFFCURVE",
"86 473 OFFCURVE",
"104 454 CURVE SMOOTH",
"119 438 OFFCURVE",
"133 442 OFFCURVE",
"152 459 CURVE SMOOTH"
);
},
{
closed = 1;
nodes = (
"283 439 OFFCURVE",
"286 455 OFFCURVE",
"267 474 CURVE SMOOTH",
"252 490 OFFCURVE",
"237 486 OFFCURVE",
"221 469 CURVE SMOOTH",
"206 455 OFFCURVE",
"203 439 OFFCURVE",
"222 420 CURVE SMOOTH",
"237 404 OFFCURVE",
"252 408 OFFCURVE",
"268 425 CURVE SMOOTH"
);
}
);
vertWidth = 0;
width = 499;
}
);
rightMetricsKey = "thaa-thaana";
unicode = 0798;
script = thaana;
category = Letter;
},
{
glyphname = "sheenu-thaana";
production = sheenuthaana;
layers = (
{
anchors = (
{
name = b.uni07A8;
position = "{322, 0}";
},
{
name = t.uni07A6;
position = "{456, 414}";
}
);
components = (
{
alignment = -1;
name = "seenu-thaana";
}
);
layerId = "DD221461-5F58-4856-B7A3-0FD42177026D";
paths = (
{
closed = 1;
nodes = (
"389 349 OFFCURVE",
"397 357 OFFCURVE",
"397 374 CURVE SMOOTH",
"397 394 OFFCURVE",
"387 399 OFFCURVE",
"368 399 CURVE SMOOTH",
"350 399 OFFCURVE",
"343 388 OFFCURVE",
"343 369 CURVE SMOOTH",
"343 353 OFFCURVE",
"356 349 OFFCURVE",
"372 349 CURVE SMOOTH"
);
},
{
closed = 1;
nodes = (
"449 448 OFFCURVE",
"457 454 OFFCURVE",
"457 473 CURVE SMOOTH",
"457 494 OFFCURVE",
"447 498 OFFCURVE",
"429 498 CURVE SMOOTH",
"410 498 OFFCURVE",
"403 487 OFFCURVE",
"403 468 CURVE SMOOTH",
"403 452 OFFCURVE",
"416 448 OFFCURVE",
"433 448 CURVE SMOOTH"
);
},
{
closed = 1;
nodes = (
"517 353 OFFCURVE",
"526 360 OFFCURVE",
"526 379 CURVE SMOOTH",
"526 399 OFFCURVE",
"516 403 OFFCURVE",
"499 403 CURVE SMOOTH",
"479 403 OFFCURVE",
"471 393 OFFCURVE",
"471 373 CURVE SMOOTH",
"471 358 OFFCURVE",
"486 353 OFFCURVE",
"502 353 CURVE SMOOTH"
);
}
);
vertWidth = 0;
width = 728;
},
{
anchors = (
{
name = b.uni07A8;
position = "{417, 0}";
},
{
name = t.uni07A6;
position = "{521, 461}";
}
);
components = (
{
alignment = -1;
name = "seenu-thaana";
}
);
layerId = "F950428B-3F13-4CD6-A68E-5B8ABB069931";
paths = (
{
closed = 1;
nodes = (
"469 314 OFFCURVE",
"487 328 OFFCURVE",
"487 362 CURVE SMOOTH",
"487 403 OFFCURVE",
"470 414 OFFCURVE",
"437 414 CURVE SMOOTH",
"397 414 OFFCURVE",
"379 395 OFFCURVE",
"379 358 CURVE SMOOTH",
"379 324 OFFCURVE",
"401 314 OFFCURVE",
"432 314 CURVE SMOOTH"
);
},
{
closed = 1;
nodes = (
"541 447 OFFCURVE",
"559 461 OFFCURVE",
"559 495 CURVE SMOOTH",
"559 536 OFFCURVE",
"542 547 OFFCURVE",
"509 547 CURVE SMOOTH",
"469 547 OFFCURVE",
"451 528 OFFCURVE",
"451 491 CURVE SMOOTH",
"451 457 OFFCURVE",
"473 447 OFFCURVE",
"504 447 CURVE SMOOTH"
);
},
{
closed = 1;
nodes = (
"626 323 OFFCURVE",
"641 338 OFFCURVE",
"641 370 CURVE SMOOTH",
"641 411 OFFCURVE",
"624 422 OFFCURVE",
"591 422 CURVE SMOOTH",
"548 422 OFFCURVE",
"533 400 OFFCURVE",
"533 359 CURVE SMOOTH",
"533 328 OFFCURVE",
"562 323 OFFCURVE",
"595 323 CURVE SMOOTH"
);
}
);
vertWidth = 0;
width = 842;
},
{
anchors = (
{
name = b.uni07A8;
position = "{393, 0}";
},
{
name = t.uni07A6;
position = "{502, 449}";
}
);
components = (
{
alignment = -1;
name = "seenu-thaana";
}
);
layerId = "108A7794-AFCA-4739-A8E0-6E5429236965";
paths = (
{
closed = 1;
nodes = (
"449 322 OFFCURVE",
"465 333 OFFCURVE",
"465 363 CURVE SMOOTH",
"465 402 OFFCURVE",
"450 408 OFFCURVE",
"418 408 CURVE SMOOTH",
"385 408 OFFCURVE",
"372 387 OFFCURVE",
"372 354 CURVE SMOOTH",
"372 330 OFFCURVE",
"392 322 OFFCURVE",
"416 322 CURVE SMOOTH"
);
},
{
closed = 1;
nodes = (
"518 443 OFFCURVE",
"534 454 OFFCURVE",
"534 484 CURVE SMOOTH",
"534 523 OFFCURVE",
"518 529 OFFCURVE",
"485 529 CURVE SMOOTH",
"453 529 OFFCURVE",
"441 509 OFFCURVE",
"441 479 CURVE SMOOTH",
"441 452 OFFCURVE",
"460 443 OFFCURVE",
"485 443 CURVE SMOOTH"
);
},
{
closed = 1;
nodes = (
"599 330 OFFCURVE",
"612 343 OFFCURVE",
"612 372 CURVE SMOOTH",
"612 410 OFFCURVE",
"594 415 OFFCURVE",
"565 415 CURVE SMOOTH",
"531 415 OFFCURVE",
"518 395 OFFCURVE",
"518 364 CURVE SMOOTH",
"518 335 OFFCURVE",
"542 330 OFFCURVE",
"572 330 CURVE SMOOTH"
);
}
);
vertWidth = 0;
width = 801;
},
{
anchors = (
{
name = b.uni07A8;
position = "{358, 0}";
},
{
name = t.uni07A6;
position = "{474, 432}";
}
);
components = (
{
alignment = -1;
name = "seenu-thaana";
}
);
layerId = "3EC9E734-A013-45CB-A1DF-CD633C54F02E";
paths = (
{
closed = 1;
nodes = (
"434 347 OFFCURVE",
"446 355 OFFCURVE",
"446 378 CURVE SMOOTH",
"446 408 OFFCURVE",
"433 412 OFFCURVE",
"408 412 CURVE SMOOTH",
"385 412 OFFCURVE",
"375 398 OFFCURVE",
"375 375 CURVE SMOOTH",
"375 354 OFFCURVE",
"390 347 OFFCURVE",
"410 347 CURVE SMOOTH"
);
},
{
closed = 1;
nodes = (
"495 452 OFFCURVE",
"507 459 OFFCURVE",
"507 483 CURVE SMOOTH",
"507 513 OFFCURVE",
"494 517 OFFCURVE",
"469 517 CURVE SMOOTH",
"445 517 OFFCURVE",
"436 502 OFFCURVE",
"436 477 CURVE SMOOTH",
"436 458 OFFCURVE",
"451 452 OFFCURVE",
"471 452 CURVE SMOOTH"
);
},
{
closed = 1;
nodes = (
"560 351 OFFCURVE",
"572 359 OFFCURVE",
"572 385 CURVE SMOOTH",
"572 409 OFFCURVE",
"560 416 OFFCURVE",
"538 416 CURVE SMOOTH",
"511 416 OFFCURVE",
"500 404 OFFCURVE",
"500 378 CURVE SMOOTH",
"500 358 OFFCURVE",
"515 351 OFFCURVE",
"536 351 CURVE SMOOTH"
);
}
);
vertWidth = 0;
width = 775;
}
);
leftKerningGroup = seenu;
leftMetricsKey = "seenu-thaana";
rightKerningGroup = seenu;
rightMetricsKey = "seenu-thaana";
unicode = 079D;
script = thaana;
category = Letter;
},
{
glyphname = "qaafu-thaana";
production = qaafuthaana;
layers = (
{
anchors = (
{
name = b.uni07A8;
position = "{144, 0}";
},
{
name = t.uni07A6;
position = "{354, 414}";
}
);
components = (
{
alignment = -1;
name = "gaafu-thaana";
transform = "{1, 0, 0, 1, 41, 0}";
}
);
layerId = "DD221461-5F58-4856-B7A3-0FD42177026D";
paths = (
{
closed = 1;
nodes = (
"179 374 OFFCURVE",
"179 386 OFFCURVE",
"167 399 CURVE SMOOTH",
"156 412 OFFCURVE",
"142 411 OFFCURVE",
"130 398 CURVE SMOOTH",
"117 387 OFFCURVE",
"117 374 OFFCURVE",
"129 361 CURVE SMOOTH",
"140 348 OFFCURVE",
"154 350 OFFCURVE",
"166 363 CURVE SMOOTH"
);
},
{
closed = 1;
nodes = (
"257 461 OFFCURVE",
"257 472 OFFCURVE",
"245 485 CURVE SMOOTH",
"233 499 OFFCURVE",
"220 496 OFFCURVE",
"208 484 CURVE SMOOTH",
"195 472 OFFCURVE",
"195 461 OFFCURVE",
"207 448 CURVE SMOOTH",
"219 434 OFFCURVE",
"232 437 OFFCURVE",
"244 449 CURVE SMOOTH"
);
}
);
vertWidth = 0;
width = 453;
},
{
anchors = (
{
name = b.uni07A8;
position = "{124, 0}";
},
{
name = t.uni07A6;
position = "{324, 414}";
}
);
components = (
{
alignment = -1;
name = "gaafu-thaana";
transform = "{1, 0, 0, 1, 30, 0}";
}
);
layerId = "F950428B-3F13-4CD6-A68E-5B8ABB069931";
paths = (
{
closed = 1;
nodes = (
"161 341 OFFCURVE",
"158 366 OFFCURVE",
"132 388 CURVE SMOOTH",
"105 411 OFFCURVE",
"80 401 OFFCURVE",
"57 374 CURVE SMOOTH",
"35 348 OFFCURVE",
"38 323 OFFCURVE",
"64 301 CURVE SMOOTH",
"91 278 OFFCURVE",
"116 288 OFFCURVE",
"139 315 CURVE SMOOTH"
);
},
{
closed = 1;
nodes = (
"250 440 OFFCURVE",
"247 464 OFFCURVE",
"221 487 CURVE SMOOTH",
"194 510 OFFCURVE",
"169 500 OFFCURVE",
"146 473 CURVE SMOOTH",
"124 447 OFFCURVE",
"127 423 OFFCURVE",
"153 400 CURVE SMOOTH",
"180 377 OFFCURVE",
"205 387 OFFCURVE",
"228 414 CURVE SMOOTH"
);
}
);
vertWidth = 0;
width = 493;
},
{
anchors = (
{
name = b.uni07A8;
position = "{114, 0}";
},
{
name = t.uni07A6;
position = "{298, 414}";
}
);
components = (
{
alignment = -1;
name = "gaafu-thaana";
transform = "{1, 0, 0, 1, 14, 0}";
}
);
layerId = "108A7794-AFCA-4739-A8E0-6E5429236965";
paths = (
{
closed = 1;
nodes = (
"146 330 OFFCURVE",
"145 348 OFFCURVE",
"122 369 CURVE SMOOTH",
"99 390 OFFCURVE",
"79 384 OFFCURVE",
"58 360 CURVE SMOOTH",
"37 337 OFFCURVE",
"42 314 OFFCURVE",
"64 295 CURVE SMOOTH",
"87 275 OFFCURVE",
"108 287 OFFCURVE",
"127 308 CURVE SMOOTH"
);
},
{
closed = 1;
nodes = (
"232 427 OFFCURVE",
"231 446 OFFCURVE",
"208 466 CURVE SMOOTH",
"184 486 OFFCURVE",
"166 481 OFFCURVE",
"144 457 CURVE SMOOTH",
"123 435 OFFCURVE",
"127 411 OFFCURVE",
"150 392 CURVE SMOOTH",
"173 373 OFFCURVE",
"194 384 OFFCURVE",
"213 405 CURVE SMOOTH"
);
}
);
vertWidth = 0;
width = 454;
},
{
anchors = (
{
name = b.uni07A8;
position = "{134, 0}";
},
{
name = t.uni07A6;
position = "{344, 414}";
}
);
components = (
{
alignment = -1;
name = "gaafu-thaana";
transform = "{1, 0, 0, 1, 40, 0}";
}
);
layerId = "3EC9E734-A013-45CB-A1DF-CD633C54F02E";
paths = (
{
closed = 1;
nodes = (
"159 382 OFFCURVE",
"156 398 OFFCURVE",
"138 413 CURVE SMOOTH",
"120 427 OFFCURVE",
"105 420 OFFCURVE",
"90 403 CURVE SMOOTH",
"76 385 OFFCURVE",
"79 369 OFFCURVE",
"97 354 CURVE SMOOTH",
"115 340 OFFCURVE",
"130 347 OFFCURVE",
"145 364 CURVE SMOOTH"
);
},
{
closed = 1;
nodes = (
"240 473 OFFCURVE",
"237 489 OFFCURVE",
"219 505 CURVE SMOOTH",
"201 519 OFFCURVE",
"186 512 OFFCURVE",
"171 494 CURVE SMOOTH",
"157 477 OFFCURVE",
"160 461 OFFCURVE",
"178 445 CURVE SMOOTH",
"196 431 OFFCURVE",
"211 438 OFFCURVE",
"226 456 CURVE SMOOTH"
);
}
);
vertWidth = 0;
width = 457;
}
);
leftKerningGroup = gaafu;
rightMetricsKey = "gaafu-thaana";
unicode = 07A4;
script = thaana;
category = Letter;
},
{
glyphname = "naa-thaana";
production = naathaana;
layers = (
{
anchors = (
{
name = b.uni07A8;
position = "{74, -40}";
},
{
name = t.uni07A6;
position = "{344, 414}";
}
);
layerId = "F950428B-3F13-4CD6-A68E-5B8ABB069931";
paths = (
{
closed = 1;
nodes = (
"25 -23 OFFCURVE",
"81 -87 OFFCURVE",
"230 -87 CURVE SMOOTH",
"267 -87 OFFCURVE",
"299 -83 OFFCURVE",
"340 -73 CURVE",
"340 -24 OFFCURVE",
"336 58 OFFCURVE",
"330 101 CURVE",
"294 93 OFFCURVE",
"256 89 OFFCURVE",
"221 89 CURVE SMOOTH",
"191 89 OFFCURVE",
"183 92 OFFCURVE",
"183 96 CURVE SMOOTH",
"183 101 OFFCURVE",
"196 107 OFFCURVE",
"283 144 CURVE SMOOTH",
"362 178 OFFCURVE",
"394 220 OFFCURVE",
"394 277 CURVE SMOOTH",
"394 368 OFFCURVE",
"312 414 OFFCURVE",
"232 414 CURVE SMOOTH",
"151 414 OFFCURVE",
"68 370 OFFCURVE",
"68 283 CURVE SMOOTH",
"68 218 OFFCURVE",
"123 164 OFFCURVE",
"212 135 CURVE",
"268 177 LINE",
"215 197 OFFCURVE",
"184 219 OFFCURVE",
"184 242 CURVE SMOOTH",
"184 269 OFFCURVE",
"221 286 OFFCURVE",
"256 286 CURVE SMOOTH",
"270 286 OFFCURVE",
"278 281 OFFCURVE",
"278 274 CURVE SMOOTH",
"278 264 OFFCURVE",
"268 242 OFFCURVE",
"162 203 CURVE SMOOTH",
"50 162 OFFCURVE",
"25 110 OFFCURVE",
"25 57 CURVE SMOOTH"
);
}
);
vertWidth = 0;
width = 419;
},
{
anchors = (
{
name = b.uni07A8;
position = "{91, -40}";
},
{
name = t.uni07A6;
position = "{284, 414}";
}
);
layerId = "DD221461-5F58-4856-B7A3-0FD42177026D";
paths = (
{
closed = 1;
nodes = (
"32 -34 OFFCURVE",
"90 -87 OFFCURVE",
"186 -87 CURVE SMOOTH",
"216 -87 OFFCURVE",
"255 -82 OFFCURVE",
"296 -72 CURVE",
"294 -62 OFFCURVE",
"293 -56 OFFCURVE",
"292 -49 CURVE",
"253 -59 OFFCURVE",
"218 -65 OFFCURVE",
"184 -65 CURVE SMOOTH",
"105 -65 OFFCURVE",
"53 -24 OFFCURVE",
"53 31 CURVE SMOOTH",
"53 91 OFFCURVE",
"112 143 OFFCURVE",
"214 211 CURVE SMOOTH",
"283 257 OFFCURVE",
"331 295 OFFCURVE",
"331 344 CURVE SMOOTH",
"331 385 OFFCURVE",
"298 414 OFFCURVE",
"249 414 CURVE SMOOTH",
"178 414 OFFCURVE",
"90 353 OFFCURVE",
"90 283 CURVE SMOOTH",
"90 245 OFFCURVE",
"115 208 OFFCURVE",
"174 190 CURVE",
"188 203 LINE",
"135 220 OFFCURVE",
"111 248 OFFCURVE",
"111 279 CURVE SMOOTH",
"111 334 OFFCURVE",
"186 392 OFFCURVE",
"248 392 CURVE SMOOTH",
"278 392 OFFCURVE",
"310 379 OFFCURVE",
"310 344 CURVE SMOOTH",
"310 308 OFFCURVE",
"275 276 OFFCURVE",
"202 228 CURVE SMOOTH",
"116 171 OFFCURVE",
"32 109 OFFCURVE",
"32 30 CURVE SMOOTH"
);
}
);
vertWidth = 0;
width = 392;
},
{
anchors = (
{
name = b.uni07A8;
position = "{79, -35}";
},
{
name = t.uni07A6;
position = "{333, 414}";
}
);
layerId = "108A7794-AFCA-4739-A8E0-6E5429236965";
paths = (
{
closed = 1;
nodes = (
"25 -25 OFFCURVE",
"81 -87 OFFCURVE",
"208 -87 CURVE SMOOTH",
"242 -87 OFFCURVE",
"280 -83 OFFCURVE",
"327 -72 CURVE",
"327 -32 OFFCURVE",
"323 34 OFFCURVE",
"319 69 CURVE",
"277 60 OFFCURVE",
"236 56 OFFCURVE",
"202 56 CURVE SMOOTH",
"154 56 OFFCURVE",
"134 62 OFFCURVE",
"134 70 CURVE SMOOTH",
"134 81 OFFCURVE",
"162 94 OFFCURVE",
"238 126 CURVE SMOOTH",
"323 162 OFFCURVE",
"386 195 OFFCURVE",
"386 279 CURVE SMOOTH",
"386 367 OFFCURVE",
"315 413 OFFCURVE",
"232 413 CURVE SMOOTH",
"147 413 OFFCURVE",
"68 365 OFFCURVE",
"68 289 CURVE SMOOTH",
"68 232 OFFCURVE",
"112 180 OFFCURVE",
"165 145 CURVE",
"231 173 LINE",
"197 197 OFFCURVE",
"171 219 OFFCURVE",
"171 248 CURVE SMOOTH",
"171 283 OFFCURVE",
"210 309 OFFCURVE",
"255 309 CURVE SMOOTH",
"280 309 OFFCURVE",
"290 301 OFFCURVE",
"290 290 CURVE SMOOTH",
"290 279 OFFCURVE",
"283 266 OFFCURVE",
"137 197 CURVE SMOOTH",
"60 161 OFFCURVE",
"25 117 OFFCURVE",
"25 53 CURVE SMOOTH"
);
}
);
vertWidth = 0;
width = 397;
},
{
anchors = (
{
name = b.uni07A8;
position = "{96, -27}";
},
{
name = t.uni07A6;
position = "{299, 414}";
}
);
layerId = "3EC9E734-A013-45CB-A1DF-CD633C54F02E";
paths = (
{
closed = 1;
nodes = (
"42 -28 OFFCURVE",
"98 -87 OFFCURVE",
"213 -87 CURVE SMOOTH",
"246 -87 OFFCURVE",
"285 -82 OFFCURVE",
"329 -72 CURVE",
"328 -48 OFFCURVE",
"325 -14 OFFCURVE",
"322 6 CURVE",
"282 -4 OFFCURVE",
"243 -9 OFFCURVE",
"205 -9 CURVE SMOOTH",
"144 -9 OFFCURVE",
"107 17 OFFCURVE",
"107 54 CURVE SMOOTH",
"107 88 OFFCURVE",
"143 113 OFFCURVE",
"222 154 CURVE SMOOTH",
"337 214 OFFCURVE",
"368 262 OFFCURVE",
"368 314 CURVE SMOOTH",
"368 375 OFFCURVE",
"321 414 OFFCURVE",
"254 414 CURVE SMOOTH",
"175 414 OFFCURVE",
"93 363 OFFCURVE",
"93 282 CURVE SMOOTH",
"93 242 OFFCURVE",
"112 201 OFFCURVE",
"179 159 CURVE",
"231 185 LINE",
"179 211 OFFCURVE",
"160 239 OFFCURVE",
"160 265 CURVE SMOOTH",
"160 303 OFFCURVE",
"207 341 OFFCURVE",
"261 341 CURVE SMOOTH",
"289 341 OFFCURVE",
"305 329 OFFCURVE",
"305 311 CURVE SMOOTH",
"305 289 OFFCURVE",
"278 264 OFFCURVE",
"214 231 CURVE SMOOTH",
"89 167 OFFCURVE",
"42 119 OFFCURVE",
"42 46 CURVE SMOOTH"
);
}
);
vertWidth = 0;
width = 400;
},
{
anchors = (
{
name = b.uni07A8;
position = "{74, -40}";
},
{
name = t.uni07A6;
position = "{344, 414}";
}
);
associatedMasterId = "F950428B-3F13-4CD6-A68E-5B8ABB069931";
layerId = "6CEFA917-ACA0-496C-81D1-7C674782FD1C";
name = "Sep 5 22, 14:54";
paths = (
{
closed = 1;
nodes = (
"35 -22 OFFCURVE",
"88 -87 OFFCURVE",
"236 -87 CURVE SMOOTH",
"273 -87 OFFCURVE",
"311 -83 OFFCURVE",
"360 -72 CURVE",
"359 -23 OFFCURVE",
"356 59 OFFCURVE",
"350 102 CURVE",
"307 93 OFFCURVE",
"262 89 OFFCURVE",
"223 89 CURVE SMOOTH",
"199 89 OFFCURVE",
"193 92 OFFCURVE",
"193 96 CURVE SMOOTH",
"193 101 OFFCURVE",
"201 107 OFFCURVE",
"245 131 CURVE SMOOTH",
"336 180 OFFCURVE",
"374 224 OFFCURVE",
"374 282 CURVE SMOOTH",
"374 363 OFFCURVE",
"298 414 OFFCURVE",
"216 414 CURVE SMOOTH",
"135 414 OFFCURVE",
"48 370 OFFCURVE",
"48 283 CURVE SMOOTH",
"48 218 OFFCURVE",
"103 164 OFFCURVE",
"192 135 CURVE",
"248 177 LINE",
"195 197 OFFCURVE",
"164 219 OFFCURVE",
"164 242 CURVE SMOOTH",
"164 269 OFFCURVE",
"201 286 OFFCURVE",
"236 286 CURVE SMOOTH",
"250 286 OFFCURVE",
"258 281 OFFCURVE",
"258 274 CURVE SMOOTH",
"258 263 OFFCURVE",
"236 243 OFFCURVE",
"142 191 CURVE SMOOTH",
"66 149 OFFCURVE",
"35 109 OFFCURVE",
"35 62 CURVE SMOOTH"
);
}
);
vertWidth = 0;
width = 419;
}
);
unicode = 07B1;
script = thaana;
category = Letter;
},
{
glyphname = zero;
layers = (
{
layerId = "F950428B-3F13-4CD6-A68E-5B8ABB069931";
paths = (
{
closed = 1;
nodes = (
"551 588 OFFCURVE",
"471 724 OFFCURVE",
"293 724 CURVE SMOOTH",
"102 724 OFFCURVE",
"35 587 OFFCURVE",
"35 356 CURVE SMOOTH",
"35 127 OFFCURVE",
"114 -10 OFFCURVE",
"293 -10 CURVE SMOOTH",
"484 -10 OFFCURVE",
"551 127 OFFCURVE",
"551 356 CURVE SMOOTH"
);
},
{
closed = 1;
nodes = (
"227 497 OFFCURVE",
"239 570 OFFCURVE",
"293 570 CURVE SMOOTH",
"346 570 OFFCURVE",
"359 497 OFFCURVE",
"359 356 CURVE SMOOTH",
"359 215 OFFCURVE",
"346 144 OFFCURVE",
"293 144 CURVE SMOOTH",
"239 144 OFFCURVE",
"227 216 OFFCURVE",
"227 356 CURVE SMOOTH"
);
}
);
vertWidth = 0;
width = 586;
},
{
layerId = "DD221461-5F58-4856-B7A3-0FD42177026D";
paths = (
{
closed = 1;
nodes = (
"507 577 OFFCURVE",
"459 725 OFFCURVE",
"286 725 CURVE SMOOTH",
"118 725 OFFCURVE",
"62 571 OFFCURVE",
"62 360 CURVE SMOOTH",
"62 106 OFFCURVE",
"141 -10 OFFCURVE",
"285 -10 CURVE SMOOTH",
"436 -10 OFFCURVE",
"507 112 OFFCURVE",
"507 360 CURVE SMOOTH"
);
},
{
closed = 1;
nodes = (
"89 557 OFFCURVE",
"136 700 OFFCURVE",
"286 700 CURVE SMOOTH",
"440 700 OFFCURVE",
"480 564 OFFCURVE",
"480 360 CURVE SMOOTH",
"480 127 OFFCURVE",
"422 15 OFFCURVE",
"285 15 CURVE SMOOTH",
"155 15 OFFCURVE",
"89 125 OFFCURVE",
"89 360 CURVE SMOOTH"
);
}
);
vertWidth = 0;
width = 570;
},
{
layerId = "108A7794-AFCA-4739-A8E0-6E5429236965";
paths = (
{
closed = 1;
nodes = (
"540 585 OFFCURVE",
"468 724 OFFCURVE",
"291 724 CURVE SMOOTH",
"106 724 OFFCURVE",
"42 583 OFFCURVE",
"42 357 CURVE SMOOTH",
"42 122 OFFCURVE",
"121 -10 OFFCURVE",
"291 -10 CURVE SMOOTH",
"472 -10 OFFCURVE",
"540 123 OFFCURVE",
"540 357 CURVE SMOOTH"
);
},
{
closed = 1;
nodes = (
"193 512 OFFCURVE",
"213 603 OFFCURVE",
"291 603 CURVE SMOOTH",
"370 603 OFFCURVE",
"389 514 OFFCURVE",
"389 357 CURVE SMOOTH",
"389 193 OFFCURVE",
"365 112 OFFCURVE",
"291 112 CURVE SMOOTH",
"218 112 OFFCURVE",
"193 193 OFFCURVE",
"193 357 CURVE SMOOTH"
);
}
);
vertWidth = 0;
width = 582;
},
{
layerId = "3EC9E734-A013-45CB-A1DF-CD633C54F02E";
paths = (
{
closed = 1;
nodes = (
"524 581 OFFCURVE",
"464 725 OFFCURVE",
"289 725 CURVE SMOOTH",
"112 725 OFFCURVE",
"52 577 OFFCURVE",
"52 359 CURVE SMOOTH",
"52 114 OFFCURVE",
"131 -10 OFFCURVE",
"288 -10 CURVE SMOOTH",
"454 -10 OFFCURVE",
"524 118 OFFCURVE",
"524 359 CURVE SMOOTH"
);
},
{
closed = 1;
nodes = (
"141 535 OFFCURVE",
"175 652 OFFCURVE",
"289 652 CURVE SMOOTH",
"405 652 OFFCURVE",
"435 539 OFFCURVE",
"435 359 CURVE SMOOTH",
"435 160 OFFCURVE",
"394 64 OFFCURVE",
"288 64 CURVE SMOOTH",
"187 64 OFFCURVE",
"141 159 OFFCURVE",
"141 359 CURVE SMOOTH"
);
}
);
vertWidth = 0;
width = 576;
}
);
unicode = 0030;
userData = {
KernOnSpecialSpacing = {
L = NoKerning;
R = NoKerning;
};
};
},
{
glyphname = one;
layers = (
{
layerId = "F950428B-3F13-4CD6-A68E-5B8ABB069931";
paths = (
{
closed = 1;
nodes = (
"460 714 LINE",
"286 714 LINE",
"41 514 LINE",
"141 391 LINE",
"222 458 LINE SMOOTH",
"236 470 OFFCURVE",
"250 484 OFFCURVE",
"267 504 CURVE",
"264 453 OFFCURVE",
"264 372 OFFCURVE",
"264 353 CURVE SMOOTH",
"264 0 LINE",
"460 0 LINE"
);
}
);
vertWidth = 0;
width = 586;
},
{
layerId = "DD221461-5F58-4856-B7A3-0FD42177026D";
paths = (
{
closed = 1;
nodes = (
"320 714 LINE",
"297 714 LINE",
"102 572 LINE",
"118 551 LINE",
"241 642 LINE SMOOTH",
"266 661 OFFCURVE",
"279 671 OFFCURVE",
"295 685 CURVE",
"294 658 OFFCURVE",
"294 620 OFFCURVE",
"294 563 CURVE SMOOTH",
"294 0 LINE",
"320 0 LINE"
);
}
);
vertWidth = 0;
width = 570;
},
{
layerId = "108A7794-AFCA-4739-A8E0-6E5429236965";
paths = (
{
closed = 1;
nodes = (
"425 714 LINE",
"289 714 LINE",
"56 529 LINE",
"135 431 LINE",
"227 504 LINE SMOOTH",
"244 518 OFFCURVE",
"257 531 OFFCURVE",
"274 549 CURVE",
"272 504 OFFCURVE",
"272 434 OFFCURVE",
"272 406 CURVE SMOOTH",
"272 0 LINE",
"425 0 LINE"
);
}
);
vertWidth = 0;
width = 582;
},
{
layerId = "3EC9E734-A013-45CB-A1DF-CD633C54F02E";
paths = (
{
closed = 1;
nodes = (
"373 714 LINE",
"293 714 LINE",
"79 551 LINE",
"127 491 LINE",
"234 573 LINE SMOOTH",
"255 589 OFFCURVE",
"268 601 OFFCURVE",
"285 617 CURVE",
"283 581 OFFCURVE",
"283 527 OFFCURVE",
"283 485 CURVE SMOOTH",
"283 0 LINE",
"373 0 LINE"
);
}
);
vertWidth = 0;
width = 576;
}
);
unicode = 0031;
userData = {
KernOnSpecialSpacing = {
L = NoKerning;
R = NoKerning;
};
};
},
{
glyphname = two;
layers = (
{
layerId = "F950428B-3F13-4CD6-A68E-5B8ABB069931";
paths = (
{
closed = 1;
nodes = (
"548 159 LINE",
"278 159 LINE",
"278 164 LINE",
"330 211 LINE SMOOTH",
"466 334 OFFCURVE",
"534 405 OFFCURVE",
"534 529 CURVE SMOOTH",
"534 641 OFFCURVE",
"441 724 OFFCURVE",
"296 724 CURVE SMOOTH",
"154 724 OFFCURVE",
"86 667 OFFCURVE",
"22 610 CURVE",
"128 486 LINE",
"186 536 OFFCURVE",
"229 562 OFFCURVE",
"274 562 CURVE SMOOTH",
"311 562 OFFCURVE",
"343 544 OFFCURVE",
"343 502 CURVE SMOOTH",
"343 450 OFFCURVE",
"314 415 OFFCURVE",
"204 303 CURVE SMOOTH",
"30 127 LINE",
"30 0 LINE",
"548 0 LINE"
);
}
);
vertWidth = 0;
width = 586;
},
{
layerId = "DD221461-5F58-4856-B7A3-0FD42177026D";
paths = (
{
closed = 1;
nodes = (
"491 25 LINE",
"95 25 LINE",
"95 26 LINE",
"303 246 LINE SMOOTH",
"400 348 OFFCURVE",
"458 419 OFFCURVE",
"458 539 CURVE SMOOTH",
"458 652 OFFCURVE",
"385 724 OFFCURVE",
"270 724 CURVE SMOOTH",
"208 724 OFFCURVE",
"141 705 OFFCURVE",
"80 655 CURVE",
"95 635 LINE",
"148 678 OFFCURVE",
"211 699 OFFCURVE",
"268 699 CURVE SMOOTH",
"370 699 OFFCURVE",
"431 639 OFFCURVE",
"431 539 CURVE SMOOTH",
"431 428 OFFCURVE",
"380 362 OFFCURVE",
"283 260 CURVE SMOOTH",
"59 23 LINE",
"59 0 LINE",
"491 0 LINE"
);
}
);
vertWidth = 0;
width = 570;
},
{
layerId = "108A7794-AFCA-4739-A8E0-6E5429236965";
paths = (
{
closed = 1;
nodes = (
"534 126 LINE",
"232 126 LINE",
"232 130 LINE",
"323 220 LINE SMOOTH",
"446 341 OFFCURVE",
"515 409 OFFCURVE",
"515 532 CURVE SMOOTH",
"515 644 OFFCURVE",
"427 724 OFFCURVE",
"290 724 CURVE SMOOTH",
"168 724 OFFCURVE",
"100 677 OFFCURVE",
"37 621 CURVE",
"120 523 LINE",
"177 572 OFFCURVE",
"225 596 OFFCURVE",
"273 596 CURVE SMOOTH",
"326 596 OFFCURVE",
"365 568 OFFCURVE",
"365 511 CURVE SMOOTH",
"365 445 OFFCURVE",
"330 401 OFFCURVE",
"224 292 CURVE SMOOTH",
"37 101 LINE",
"37 0 LINE",
"534 0 LINE"
);
}
);
vertWidth = 0;
width = 582;
},
{
layerId = "3EC9E734-A013-45CB-A1DF-CD633C54F02E";
paths = (
{
closed = 1;
nodes = (
"513 76 LINE",
"164 76 LINE",
"164 78 LINE",
"313 233 LINE SMOOTH",
"422 346 OFFCURVE",
"487 414 OFFCURVE",
"487 536 CURVE SMOOTH",
"487 648 OFFCURVE",
"406 724 OFFCURVE",
"280 724 CURVE SMOOTH",
"188 724 OFFCURVE",
"121 691 OFFCURVE",
"59 638 CURVE",
"108 579 LINE",
"163 625 OFFCURVE",
"218 648 OFFCURVE",
"271 648 CURVE SMOOTH",
"348 648 OFFCURVE",
"398 604 OFFCURVE",
"398 525 CURVE SMOOTH",
"398 437 OFFCURVE",
"356 381 OFFCURVE",
"254 276 CURVE SMOOTH",
"48 62 LINE",
"48 0 LINE",
"513 0 LINE"
);
}
);
vertWidth = 0;
width = 576;
}
);
unicode = 0032;
userData = {
KernOnSpecialSpacing = {
L = NoKerning;
R = NoKerning;
};
};
},
{
glyphname = three;
layers = (
{
layerId = "F950428B-3F13-4CD6-A68E-5B8ABB069931";
paths = (
{
closed = 1;
nodes = (
"524 662 OFFCURVE",
"434 724 OFFCURVE",
"287 724 CURVE SMOOTH",
"163 724 OFFCURVE",
"94 692 OFFCURVE",
"35 652 CURVE",
"115 523 LINE",
"136 536 OFFCURVE",
"192 569 OFFCURVE",
"257 569 CURVE SMOOTH",
"305 569 OFFCURVE",
"337 551 OFFCURVE",
"337 513 CURVE SMOOTH",
"337 469 OFFCURVE",
"299 438 OFFCURVE",
"190 438 CURVE SMOOTH",
"145 438 LINE",
"145 293 LINE",
"189 293 LINE SMOOTH",
"312 293 OFFCURVE",
"341 264 OFFCURVE",
"341 216 CURVE SMOOTH",
"341 171 OFFCURVE",
"313 142 OFFCURVE",
"219 142 CURVE SMOOTH",
"165 142 OFFCURVE",
"96 157 OFFCURVE",
"34 189 CURVE",
"34 29 LINE",
"95 5 OFFCURVE",
"155 -10 OFFCURVE",
"247 -10 CURVE SMOOTH",
"454 -10 OFFCURVE",
"545 87 OFFCURVE",
"545 204 CURVE SMOOTH",
"545 305 OFFCURVE",
"480 359 OFFCURVE",
"366 373 CURVE",
"366 376 LINE",
"451 399 OFFCURVE",
"524 457 OFFCURVE",
"524 559 CURVE SMOOTH"
);
}
);
vertWidth = 0;
width = 586;
},
{
layerId = "DD221461-5F58-4856-B7A3-0FD42177026D";
paths = (
{
closed = 1;
nodes = (
"470 665 OFFCURVE",
"393 724 OFFCURVE",
"273 724 CURVE SMOOTH",
"185 724 OFFCURVE",
"114 695 OFFCURVE",
"55 650 CURVE",
"69 629 LINE",
"134 676 OFFCURVE",
"198 699 OFFCURVE",
"273 699 CURVE SMOOTH",
"375 699 OFFCURVE",
"443 651 OFFCURVE",
"443 551 CURVE SMOOTH",
"443 435 OFFCURVE",
"345 384 OFFCURVE",
"239 384 CURVE SMOOTH",
"156 384 LINE",
"156 359 LINE",
"239 359 LINE SMOOTH",
"372 359 OFFCURVE",
"465 314 OFFCURVE",
"465 194 CURVE SMOOTH",
"465 85 OFFCURVE",
"391 15 OFFCURVE",
"247 15 CURVE SMOOTH",
"173 15 OFFCURVE",
"97 35 OFFCURVE",
"47 60 CURVE",
"47 32 LINE",
"98 8 OFFCURVE",
"165 -10 OFFCURVE",
"247 -10 CURVE SMOOTH",
"407 -10 OFFCURVE",
"492 72 OFFCURVE",
"492 194 CURVE SMOOTH",
"492 300 OFFCURVE",
"429 358 OFFCURVE",
"318 373 CURVE",
"318 375 LINE",
"405 390 OFFCURVE",
"470 457 OFFCURVE",
"470 551 CURVE SMOOTH"
);
}
);
vertWidth = 0;
width = 570;
},
{
layerId = "108A7794-AFCA-4739-A8E0-6E5429236965";
paths = (
{
closed = 1;
nodes = (
"511 663 OFFCURVE",
"424 724 OFFCURVE",
"284 724 CURVE SMOOTH",
"169 724 OFFCURVE",
"99 693 OFFCURVE",
"40 652 CURVE",
"104 550 LINE",
"136 571 OFFCURVE",
"194 602 OFFCURVE",
"261 602 CURVE SMOOTH",
"323 602 OFFCURVE",
"364 576 OFFCURVE",
"364 523 CURVE SMOOTH",
"364 461 OFFCURVE",
"311 425 OFFCURVE",
"202 425 CURVE SMOOTH",
"148 425 LINE",
"148 310 LINE",
"202 310 LINE SMOOTH",
"327 310 OFFCURVE",
"372 277 OFFCURVE",
"372 211 CURVE SMOOTH",
"372 150 OFFCURVE",
"333 110 OFFCURVE",
"226 110 CURVE SMOOTH",
"167 110 OFFCURVE",
"96 127 OFFCURVE",
"37 157 CURVE",
"37 30 LINE",
"96 6 OFFCURVE",
"158 -10 OFFCURVE",
"247 -10 CURVE SMOOTH",
"442 -10 OFFCURVE",
"532 83 OFFCURVE",
"532 202 CURVE SMOOTH",
"532 304 OFFCURVE",
"467 359 OFFCURVE",
"354 373 CURVE",
"354 376 LINE",
"440 397 OFFCURVE",
"511 457 OFFCURVE",
"511 557 CURVE SMOOTH"
);
}
);
vertWidth = 0;
width = 582;
},
{
layerId = "3EC9E734-A013-45CB-A1DF-CD633C54F02E";
paths = (
{
closed = 1;
nodes = (
"491 664 OFFCURVE",
"409 724 OFFCURVE",
"279 724 CURVE SMOOTH",
"177 724 OFFCURVE",
"107 694 OFFCURVE",
"48 651 CURVE",
"87 590 LINE",
"135 624 OFFCURVE",
"196 651 OFFCURVE",
"267 651 CURVE SMOOTH",
"349 651 OFFCURVE",
"404 614 OFFCURVE",
"404 537 CURVE SMOOTH",
"404 448 OFFCURVE",
"328 405 OFFCURVE",
"221 405 CURVE SMOOTH",
"152 405 LINE",
"152 335 LINE",
"221 335 LINE SMOOTH",
"350 335 OFFCURVE",
"419 296 OFFCURVE",
"419 203 CURVE SMOOTH",
"419 118 OFFCURVE",
"362 63 OFFCURVE",
"237 63 CURVE SMOOTH",
"170 63 OFFCURVE",
"97 81 OFFCURVE",
"42 109 CURVE",
"42 31 LINE",
"97 7 OFFCURVE",
"162 -10 OFFCURVE",
"247 -10 CURVE SMOOTH",
"425 -10 OFFCURVE",
"512 78 OFFCURVE",
"512 198 CURVE SMOOTH",
"512 302 OFFCURVE",
"448 359 OFFCURVE",
"336 373 CURVE",
"336 376 LINE",
"423 394 OFFCURVE",
"491 457 OFFCURVE",
"491 554 CURVE SMOOTH"
);
}
);
vertWidth = 0;
width = 576;
}
);
unicode = 0033;
userData = {
KernOnSpecialSpacing = {
L = NoKerning;
R = NoKerning;
};
};
},
{
glyphname = four;
layers = (
{
layerId = "F950428B-3F13-4CD6-A68E-5B8ABB069931";
paths = (
{
closed = 1;
nodes = (
"571 282 LINE",
"492 282 LINE",
"492 714 LINE",
"314 714 LINE",
"17 280 LINE",
"17 138 LINE",
"302 138 LINE",
"302 0 LINE",
"492 0 LINE",
"492 138 LINE",
"571 138 LINE"
);
},
{
closed = 1;
nodes = (
"184 282 LINE",
"263 400 LINE SMOOTH",
"280 426 OFFCURVE",
"288 441 OFFCURVE",
"301 470 CURVE",
"306 470 LINE",
"305 468 OFFCURVE",
"302 395 OFFCURVE",
"302 365 CURVE SMOOTH",
"302 282 LINE"
);
}
);
vertWidth = 0;
width = 586;
},
{
layerId = "DD221461-5F58-4856-B7A3-0FD42177026D";
paths = (
{
closed = 1;
nodes = (
"560 219 LINE",
"426 219 LINE",
"426 718 LINE",
"398 718 LINE",
"25 212 LINE",
"25 194 LINE",
"400 194 LINE",
"400 0 LINE",
"426 0 LINE",
"426 194 LINE",
"560 194 LINE"
);
},
{
closed = 1;
nodes = (
"61 219 LINE",
"335 592 LINE SMOOTH",
"365 633 OFFCURVE",
"376 650 OFFCURVE",
"399 686 CURVE",
"401 686 LINE",
"400 635 OFFCURVE",
"400 610 OFFCURVE",
"400 524 CURVE SMOOTH",
"400 219 LINE"
);
}
);
vertWidth = 0;
width = 570;
},
{
layerId = "108A7794-AFCA-4739-A8E0-6E5429236965";
paths = (
{
closed = 1;
nodes = (
"568 266 LINE",
"476 266 LINE",
"476 715 LINE",
"335 715 LINE",
"19 263 LINE",
"19 152 LINE",
"327 152 LINE",
"327 0 LINE",
"476 0 LINE",
"476 152 LINE",
"568 152 LINE"
);
},
{
closed = 1;
nodes = (
"153 266 LINE",
"281 448 LINE SMOOTH",
"302 478 OFFCURVE",
"310 493 OFFCURVE",
"326 524 CURVE",
"330 524 LINE",
"329 510 OFFCURVE",
"327 449 OFFCURVE",
"327 405 CURVE SMOOTH",
"327 266 LINE"
);
}
);
vertWidth = 0;
width = 582;
},
{
layerId = "3EC9E734-A013-45CB-A1DF-CD633C54F02E";
paths = (
{
closed = 1;
nodes = (
"564 243 LINE",
"451 243 LINE",
"451 717 LINE",
"367 717 LINE",
"22 238 LINE",
"22 173 LINE",
"364 173 LINE",
"364 0 LINE",
"451 0 LINE",
"451 173 LINE",
"564 173 LINE"
);
},
{
closed = 1;
nodes = (
"107 243 LINE",
"308 520 LINE SMOOTH",
"333 555 OFFCURVE",
"345 572 OFFCURVE",
"363 605 CURVE",
"366 605 LINE",
"364 572 OFFCURVE",
"364 529 OFFCURVE",
"364 465 CURVE SMOOTH",
"364 243 LINE"
);
}
);
vertWidth = 0;
width = 576;
}
);
unicode = 0034;
userData = {
KernOnSpecialSpacing = {
L = NoKerning;
R = NoKerning;
};
};
},
{
glyphname = five;
layers = (
{
layerId = "F950428B-3F13-4CD6-A68E-5B8ABB069931";
paths = (
{
closed = 1;
nodes = (
"277 468 OFFCURVE",
"261 465 OFFCURVE",
"240 459 CURVE",
"249 553 LINE",
"492 553 LINE",
"492 714 LINE",
"85 714 LINE",
"58 337 LINE",
"129 302 LINE",
"155 310 OFFCURVE",
"191 319 OFFCURVE",
"227 319 CURVE SMOOTH",
"306 319 OFFCURVE",
"345 286 OFFCURVE",
"345 232 CURVE SMOOTH",
"345 173 OFFCURVE",
"305 142 OFFCURVE",
"234 142 CURVE SMOOTH",
"175 142 OFFCURVE",
"96 164 OFFCURVE",
"46 187 CURVE",
"46 29 LINE",
"99 3 OFFCURVE",
"167 -10 OFFCURVE",
"250 -10 CURVE SMOOTH",
"445 -10 OFFCURVE",
"540 78 OFFCURVE",
"540 238 CURVE SMOOTH",
"540 385 OFFCURVE",
"443 468 OFFCURVE",
"324 468 CURVE SMOOTH"
);
}
);
vertWidth = 0;
width = 586;
},
{
layerId = "DD221461-5F58-4856-B7A3-0FD42177026D";
paths = (
{
closed = 1;
nodes = (
"206 426 OFFCURVE",
"159 416 OFFCURVE",
"126 408 CURVE",
"151 689 LINE",
"462 689 LINE",
"462 714 LINE",
"128 714 LINE",
"98 393 LINE",
"117 378 LINE",
"166 392 OFFCURVE",
"212 401 OFFCURVE",
"274 401 CURVE SMOOTH",
"408 401 OFFCURVE",
"478 331 OFFCURVE",
"478 217 CURVE SMOOTH",
"478 90 OFFCURVE",
"389 15 OFFCURVE",
"253 15 CURVE SMOOTH",
"180 15 OFFCURVE",
"119 35 OFFCURVE",
"74 62 CURVE",
"74 32 LINE",
"116 8 OFFCURVE",
"174 -10 OFFCURVE",
"253 -10 CURVE SMOOTH",
"406 -10 OFFCURVE",
"505 76 OFFCURVE",
"505 217 CURVE SMOOTH",
"505 354 OFFCURVE",
"420 426 OFFCURVE",
"274 426 CURVE SMOOTH"
);
}
);
vertWidth = 0;
width = 570;
},
{
layerId = "108A7794-AFCA-4739-A8E0-6E5429236965";
paths = (
{
closed = 1;
nodes = (
"259 458 OFFCURVE",
"236 453 OFFCURVE",
"212 446 CURVE",
"225 587 LINE",
"485 587 LINE",
"485 714 LINE",
"96 714 LINE",
"68 351 LINE",
"126 321 LINE",
"158 331 OFFCURVE",
"196 340 OFFCURVE",
"239 340 CURVE SMOOTH",
"332 340 OFFCURVE",
"378 297 OFFCURVE",
"378 228 CURVE SMOOTH",
"378 152 OFFCURVE",
"326 110 OFFCURVE",
"239 110 CURVE SMOOTH",
"176 110 OFFCURVE",
"102 132 OFFCURVE",
"53 156 CURVE",
"53 30 LINE",
"103 4 OFFCURVE",
"169 -10 OFFCURVE",
"251 -10 CURVE SMOOTH",
"435 -10 OFFCURVE",
"531 78 OFFCURVE",
"531 233 CURVE SMOOTH",
"531 377 OFFCURVE",
"437 458 OFFCURVE",
"312 458 CURVE SMOOTH"
);
}
);
vertWidth = 0;
width = 582;
},
{
layerId = "3EC9E734-A013-45CB-A1DF-CD633C54F02E";
paths = (
{
closed = 1;
nodes = (
"233 442 OFFCURVE",
"198 434 OFFCURVE",
"169 427 CURVE",
"188 638 LINE",
"474 638 LINE",
"474 714 LINE",
"112 714 LINE",
"83 372 LINE",
"122 350 LINE",
"162 362 OFFCURVE",
"204 371 OFFCURVE",
"257 371 CURVE SMOOTH",
"370 371 OFFCURVE",
"428 314 OFFCURVE",
"428 223 CURVE SMOOTH",
"428 121 OFFCURVE",
"358 63 OFFCURVE",
"246 63 CURVE SMOOTH",
"178 63 OFFCURVE",
"111 84 OFFCURVE",
"64 109 CURVE",
"64 31 LINE",
"110 6 OFFCURVE",
"172 -10 OFFCURVE",
"252 -10 CURVE SMOOTH",
"421 -10 OFFCURVE",
"518 77 OFFCURVE",
"518 225 CURVE SMOOTH",
"518 366 OFFCURVE",
"429 442 OFFCURVE",
"293 442 CURVE SMOOTH"
);
}
);
vertWidth = 0;
width = 576;
}
);
unicode = 0035;
userData = {
KernOnSpecialSpacing = {
L = NoKerning;
R = NoKerning;
};
};
},
{
glyphname = six;
layers = (
{
layerId = "F950428B-3F13-4CD6-A68E-5B8ABB069931";
paths = (
{
closed = 1;
nodes = (
"34 88 OFFCURVE",
"150 -10 OFFCURVE",
"303 -10 CURVE SMOOTH",
"459 -10 OFFCURVE",
"555 84 OFFCURVE",
"555 244 CURVE SMOOTH",
"555 392 OFFCURVE",
"480 476 OFFCURVE",
"355 476 CURVE SMOOTH",
"279 476 OFFCURVE",
"239 440 OFFCURVE",
"214 393 CURVE",
"208 393 LINE",
"214 506 OFFCURVE",
"259 574 OFFCURVE",
"404 574 CURVE SMOOTH",
"452 574 OFFCURVE",
"483 570 OFFCURVE",
"510 565 CURVE",
"510 716 LINE",
"483 720 OFFCURVE",
"436 724 OFFCURVE",
"408 724 CURVE SMOOTH",
"92 724 OFFCURVE",
"34 507 OFFCURVE",
"34 302 CURVE SMOOTH"
);
},
{
closed = 1;
nodes = (
"248 143 OFFCURVE",
"226 199 OFFCURVE",
"226 250 CURVE SMOOTH",
"226 288 OFFCURVE",
"253 327 OFFCURVE",
"301 327 CURVE SMOOTH",
"348 327 OFFCURVE",
"368 294 OFFCURVE",
"368 240 CURVE SMOOTH",
"368 173 OFFCURVE",
"340 143 OFFCURVE",
"299 143 CURVE SMOOTH"
);
}
);
vertWidth = 0;
width = 586;
},
{
layerId = "DD221461-5F58-4856-B7A3-0FD42177026D";
paths = (
{
closed = 1;
nodes = (
"68 147 OFFCURVE",
"127 -10 OFFCURVE",
"299 -10 CURVE SMOOTH",
"435 -10 OFFCURVE",
"513 86 OFFCURVE",
"513 225 CURVE SMOOTH",
"513 355 OFFCURVE",
"438 439 OFFCURVE",
"306 439 CURVE SMOOTH",
"191 439 OFFCURVE",
"121 378 OFFCURVE",
"95 322 CURVE",
"93 322 LINE",
"103 604 OFFCURVE",
"218 701 OFFCURVE",
"367 701 CURVE SMOOTH",
"407 701 OFFCURVE",
"441 695 OFFCURVE",
"465 686 CURVE",
"465 713 LINE",
"438 721 OFFCURVE",
"407 726 OFFCURVE",
"367 726 CURVE SMOOTH",
"196 726 OFFCURVE",
"68 608 OFFCURVE",
"68 303 CURVE SMOOTH"
);
},
{
closed = 1;
nodes = (
"137 15 OFFCURVE",
"100 179 OFFCURVE",
"100 258 CURVE SMOOTH",
"100 325 OFFCURVE",
"178 414 OFFCURVE",
"304 414 CURVE SMOOTH",
"426 414 OFFCURVE",
"486 342 OFFCURVE",
"486 225 CURVE SMOOTH",
"486 95 OFFCURVE",
"420 15 OFFCURVE",
"299 15 CURVE SMOOTH"
);
}
);
vertWidth = 0;
width = 570;
},
{
layerId = "108A7794-AFCA-4739-A8E0-6E5429236965";
paths = (
{
closed = 1;
nodes = (
"43 103 OFFCURVE",
"144 -10 OFFCURVE",
"302 -10 CURVE SMOOTH",
"453 -10 OFFCURVE",
"545 85 OFFCURVE",
"545 239 CURVE SMOOTH",
"545 383 OFFCURVE",
"470 467 OFFCURVE",
"343 467 CURVE SMOOTH",
"257 467 OFFCURVE",
"210 425 OFFCURVE",
"184 375 CURVE",
"179 375 LINE",
"185 531 OFFCURVE",
"249 606 OFFCURVE",
"395 606 CURVE SMOOTH",
"441 606 OFFCURVE",
"473 601 OFFCURVE",
"499 595 CURVE",
"499 715 LINE",
"472 720 OFFCURVE",
"429 725 OFFCURVE",
"398 725 CURVE SMOOTH",
"118 725 OFFCURVE",
"43 532 OFFCURVE",
"43 302 CURVE SMOOTH"
);
},
{
closed = 1;
nodes = (
"220 111 OFFCURVE",
"195 194 OFFCURVE",
"195 252 CURVE SMOOTH",
"195 297 OFFCURVE",
"234 349 OFFCURVE",
"302 349 CURVE SMOOTH",
"368 349 OFFCURVE",
"398 306 OFFCURVE",
"398 236 CURVE SMOOTH",
"398 154 OFFCURVE",
"360 111 OFFCURVE",
"299 111 CURVE SMOOTH"
);
}
);
vertWidth = 0;
width = 582;
},
{
layerId = "3EC9E734-A013-45CB-A1DF-CD633C54F02E";
paths = (
{
closed = 1;
nodes = (
"56 125 OFFCURVE",
"136 -10 OFFCURVE",
"301 -10 CURVE SMOOTH",
"444 -10 OFFCURVE",
"529 86 OFFCURVE",
"529 232 CURVE SMOOTH",
"529 369 OFFCURVE",
"454 453 OFFCURVE",
"325 453 CURVE SMOOTH",
"224 453 OFFCURVE",
"166 402 OFFCURVE",
"140 349 CURVE",
"136 349 LINE",
"144 568 OFFCURVE",
"234 654 OFFCURVE",
"381 654 CURVE SMOOTH",
"424 654 OFFCURVE",
"457 648 OFFCURVE",
"482 641 CURVE",
"482 714 LINE",
"455 721 OFFCURVE",
"418 726 OFFCURVE",
"383 726 CURVE SMOOTH",
"157 726 OFFCURVE",
"56 570 OFFCURVE",
"56 303 CURVE SMOOTH"
);
},
{
closed = 1;
nodes = (
"179 63 OFFCURVE",
"148 187 OFFCURVE",
"148 255 CURVE SMOOTH",
"148 311 OFFCURVE",
"206 382 OFFCURVE",
"303 382 CURVE SMOOTH",
"397 382 OFFCURVE",
"442 324 OFFCURVE",
"442 231 CURVE SMOOTH",
"442 125 OFFCURVE",
"390 63 OFFCURVE",
"299 63 CURVE SMOOTH"
);
}
);
vertWidth = 0;
width = 576;
}
);
unicode = 0036;
userData = {
KernOnSpecialSpacing = {
L = NoKerning;
R = NoKerning;
};
};
},
{
glyphname = seven;
layers = (
{
layerId = "F950428B-3F13-4CD6-A68E-5B8ABB069931";
paths = (
{
closed = 1;
nodes = (
"302 0 LINE",
"553 600 LINE",
"553 714 LINE",
"38 714 LINE",
"38 554 LINE",
"347 554 LINE",
"102 0 LINE"
);
}
);
vertWidth = 0;
width = 586;
},
{
layerId = "DD221461-5F58-4856-B7A3-0FD42177026D";
paths = (
{
closed = 1;
nodes = (
"212 0 LINE",
"510 697 LINE",
"510 714 LINE",
"58 714 LINE",
"58 689 LINE",
"478 689 LINE",
"183 0 LINE"
);
}
);
vertWidth = 0;
width = 570;
},
{
layerId = "108A7794-AFCA-4739-A8E0-6E5429236965";
paths = (
{
closed = 1;
nodes = (
"280 0 LINE",
"542 624 LINE",
"542 714 LINE",
"43 714 LINE",
"43 588 LINE",
"380 588 LINE",
"122 0 LINE"
);
}
);
vertWidth = 0;
width = 582;
},
{
layerId = "3EC9E734-A013-45CB-A1DF-CD633C54F02E";
paths = (
{
closed = 1;
nodes = (
"246 0 LINE",
"526 661 LINE",
"526 714 LINE",
"51 714 LINE",
"51 639 LINE",
"429 639 LINE",
"153 0 LINE"
);
}
);
vertWidth = 0;
width = 576;
}
);
unicode = 0037;
userData = {
KernOnSpecialSpacing = {
L = NoKerning;
R = NoKerning;
};
};
},
{
glyphname = eight;
layers = (
{
layerId = "F950428B-3F13-4CD6-A68E-5B8ABB069931";
paths = (
{
closed = 1;
nodes = (
"154 724 OFFCURVE",
"54 666 OFFCURVE",
"54 551 CURVE SMOOTH",
"54 468 OFFCURVE",
"103 413 OFFCURVE",
"163 373 CURVE",
"88 335 OFFCURVE",
"33 287 OFFCURVE",
"33 188 CURVE SMOOTH",
"33 71 OFFCURVE",
"112 -10 OFFCURVE",
"293 -10 CURVE SMOOTH",
"473 -10 OFFCURVE",
"554 75 OFFCURVE",
"554 190 CURVE SMOOTH",
"554 284 OFFCURVE",
"477 338 OFFCURVE",
"410 376 CURVE",
"482 411 OFFCURVE",
"533 464 OFFCURVE",
"533 550 CURVE SMOOTH",
"533 667 OFFCURVE",
"436 724 OFFCURVE",
"295 724 CURVE SMOOTH"
);
},
{
closed = 1;
nodes = (
"210 239 OFFCURVE",
"247 268 OFFCURVE",
"291 291 CURVE",
"304 283 LINE SMOOTH",
"329 268 OFFCURVE",
"377 236 OFFCURVE",
"377 192 CURVE SMOOTH",
"377 153 OFFCURVE",
"350 129 OFFCURVE",
"291 129 CURVE SMOOTH",
"240 129 OFFCURVE",
"210 156 OFFCURVE",
"210 196 CURVE SMOOTH"
);
},
{
closed = 1;
nodes = (
"325 585 OFFCURVE",
"352 565 OFFCURVE",
"352 533 CURVE SMOOTH",
"352 495 OFFCURVE",
"320 475 OFFCURVE",
"292 459 CURVE",
"260 477 OFFCURVE",
"235 502 OFFCURVE",
"235 533 CURVE SMOOTH",
"235 565 OFFCURVE",
"262 585 OFFCURVE",
"294 585 CURVE SMOOTH"
);
}
);
vertWidth = 0;
width = 586;
},
{
layerId = "DD221461-5F58-4856-B7A3-0FD42177026D";
paths = (
{
closed = 1;
nodes = (
"168 724 OFFCURVE",
"87 659 OFFCURVE",
"87 559 CURVE SMOOTH",
"87 460 OFFCURVE",
"161 415 OFFCURVE",
"251 381 CURVE",
"138 340 OFFCURVE",
"64 284 OFFCURVE",
"64 175 CURVE SMOOTH",
"64 62 OFFCURVE",
"150 -10 OFFCURVE",
"279 -10 CURVE SMOOTH",
"404 -10 OFFCURVE",
"503 59 OFFCURVE",
"503 181 CURVE SMOOTH",
"503 284 OFFCURVE",
"432 342 OFFCURVE",
"314 382 CURVE",
"415 422 OFFCURVE",
"479 473 OFFCURVE",
"479 561 CURVE SMOOTH",
"479 666 OFFCURVE",
"406 724 OFFCURVE",
"283 724 CURVE SMOOTH"
);
},
{
closed = 1;
nodes = (
"91 282 OFFCURVE",
"175 333 OFFCURVE",
"281 368 CURVE",
"309 358 LINE SMOOTH",
"418 319 OFFCURVE",
"476 268 OFFCURVE",
"476 181 CURVE SMOOTH",
"476 72 OFFCURVE",
"393 15 OFFCURVE",
"279 15 CURVE SMOOTH",
"167 15 OFFCURVE",
"91 76 OFFCURVE",
"91 175 CURVE SMOOTH"
);
},
{
closed = 1;
nodes = (
"389 699 OFFCURVE",
"452 653 OFFCURVE",
"452 561 CURVE SMOOTH",
"452 479 OFFCURVE",
"381 433 OFFCURVE",
"286 394 CURVE",
"182 430 OFFCURVE",
"114 474 OFFCURVE",
"114 559 CURVE SMOOTH",
"114 649 OFFCURVE",
"185 699 OFFCURVE",
"283 699 CURVE SMOOTH"
);
}
);
vertWidth = 0;
width = 570;
},
{
layerId = "108A7794-AFCA-4739-A8E0-6E5429236965";
paths = (
{
closed = 1;
nodes = (
"158 724 OFFCURVE",
"62 664 OFFCURVE",
"62 553 CURVE SMOOTH",
"62 466 OFFCURVE",
"118 414 OFFCURVE",
"185 375 CURVE",
"101 336 OFFCURVE",
"41 286 OFFCURVE",
"41 185 CURVE SMOOTH",
"41 69 OFFCURVE",
"122 -10 OFFCURVE",
"290 -10 CURVE SMOOTH",
"456 -10 OFFCURVE",
"541 71 OFFCURVE",
"541 188 CURVE SMOOTH",
"541 284 OFFCURVE",
"466 339 OFFCURVE",
"386 378 CURVE",
"465 414 OFFCURVE",
"520 466 OFFCURVE",
"520 553 CURVE SMOOTH",
"520 667 OFFCURVE",
"429 724 OFFCURVE",
"292 724 CURVE SMOOTH"
);
},
{
closed = 1;
nodes = (
"180 250 OFFCURVE",
"229 284 OFFCURVE",
"289 310 CURVE",
"305 302 LINE SMOOTH",
"351 279 OFFCURVE",
"402 244 OFFCURVE",
"402 189 CURVE SMOOTH",
"402 133 OFFCURVE",
"361 101 OFFCURVE",
"288 101 CURVE SMOOTH",
"222 101 OFFCURVE",
"180 136 OFFCURVE",
"180 191 CURVE SMOOTH"
);
},
{
closed = 1;
nodes = (
"341 614 OFFCURVE",
"377 587 OFFCURVE",
"377 540 CURVE SMOOTH",
"377 491 OFFCURVE",
"335 465 OFFCURVE",
"291 443 CURVE",
"241 465 OFFCURVE",
"205 495 OFFCURVE",
"205 540 CURVE SMOOTH",
"205 586 OFFCURVE",
"243 614 OFFCURVE",
"291 614 CURVE SMOOTH"
);
}
);
vertWidth = 0;
width = 582;
},
{
layerId = "3EC9E734-A013-45CB-A1DF-CD633C54F02E";
paths = (
{
closed = 1;
nodes = (
"163 724 OFFCURVE",
"75 662 OFFCURVE",
"75 556 CURVE SMOOTH",
"75 463 OFFCURVE",
"140 415 OFFCURVE",
"218 378 CURVE",
"120 338 OFFCURVE",
"53 285 OFFCURVE",
"53 180 CURVE SMOOTH",
"53 66 OFFCURVE",
"136 -10 OFFCURVE",
"285 -10 CURVE SMOOTH",
"430 -10 OFFCURVE",
"522 65 OFFCURVE",
"522 185 CURVE SMOOTH",
"522 284 OFFCURVE",
"449 341 OFFCURVE",
"350 380 CURVE",
"440 418 OFFCURVE",
"500 470 OFFCURVE",
"500 557 CURVE SMOOTH",
"500 667 OFFCURVE",
"418 724 OFFCURVE",
"288 724 CURVE SMOOTH"
);
},
{
closed = 1;
nodes = (
"136 266 OFFCURVE",
"202 309 OFFCURVE",
"285 339 CURVE",
"307 330 LINE SMOOTH",
"385 300 OFFCURVE",
"439 256 OFFCURVE",
"439 185 CURVE SMOOTH",
"439 103 OFFCURVE",
"377 58 OFFCURVE",
"284 58 CURVE SMOOTH",
"195 58 OFFCURVE",
"136 106 OFFCURVE",
"136 183 CURVE SMOOTH"
);
},
{
closed = 1;
nodes = (
"365 657 OFFCURVE",
"415 620 OFFCURVE",
"415 551 CURVE SMOOTH",
"415 485 OFFCURVE",
"358 449 OFFCURVE",
"289 419 CURVE",
"212 448 OFFCURVE",
"160 485 OFFCURVE",
"160 550 CURVE SMOOTH",
"160 618 OFFCURVE",
"214 657 OFFCURVE",
"287 657 CURVE SMOOTH"
);
}
);
vertWidth = 0;
width = 576;
}
);
unicode = 0038;
userData = {
KernOnSpecialSpacing = {
L = NoKerning;
R = NoKerning;
};
};
},
{
glyphname = nine;
layers = (
{
layerId = "F950428B-3F13-4CD6-A68E-5B8ABB069931";
paths = (
{
closed = 1;
nodes = (
"553 624 OFFCURVE",
"432 721 OFFCURVE",
"279 721 CURVE SMOOTH",
"122 721 OFFCURVE",
"26 627 OFFCURVE",
"26 468 CURVE SMOOTH",
"26 319 OFFCURVE",
"103 235 OFFCURVE",
"223 235 CURVE SMOOTH",
"318 235 OFFCURVE",
"347 270 OFFCURVE",
"373 318 CURVE",
"379 318 LINE",
"374 226 OFFCURVE",
"331 140 OFFCURVE",
"158 140 CURVE SMOOTH",
"128 140 OFFCURVE",
"102 143 OFFCURVE",
"74 148 CURVE",
"74 -5 LINE",
"101 -9 OFFCURVE",
"145 -10 OFFCURVE",
"174 -10 CURVE SMOOTH",
"452 -10 OFFCURVE",
"553 122 OFFCURVE",
"553 387 CURVE SMOOTH"
);
},
{
closed = 1;
nodes = (
"333 567 OFFCURVE",
"361 512 OFFCURVE",
"361 461 CURVE SMOOTH",
"361 423 OFFCURVE",
"329 383 OFFCURVE",
"282 383 CURVE SMOOTH",
"236 383 OFFCURVE",
"213 417 OFFCURVE",
"213 470 CURVE SMOOTH",
"213 538 OFFCURVE",
"242 567 OFFCURVE",
"284 567 CURVE SMOOTH"
);
}
);
vertWidth = 0;
width = 586;
},
{
layerId = "DD221461-5F58-4856-B7A3-0FD42177026D";
paths = (
{
closed = 1;
nodes = (
"500 569 OFFCURVE",
"441 726 OFFCURVE",
"269 726 CURVE SMOOTH",
"133 726 OFFCURVE",
"55 630 OFFCURVE",
"55 491 CURVE SMOOTH",
"55 361 OFFCURVE",
"130 277 OFFCURVE",
"262 277 CURVE SMOOTH",
"377 277 OFFCURVE",
"447 338 OFFCURVE",
"473 394 CURVE",
"475 394 LINE",
"465 112 OFFCURVE",
"350 15 OFFCURVE",
"201 15 CURVE SMOOTH",
"159 15 OFFCURVE",
"117 22 OFFCURVE",
"93 31 CURVE",
"93 3 LINE",
"120 -5 OFFCURVE",
"159 -10 OFFCURVE",
"201 -10 CURVE SMOOTH",
"372 -10 OFFCURVE",
"500 108 OFFCURVE",
"500 413 CURVE SMOOTH"
);
},
{
closed = 1;
nodes = (
"431 701 OFFCURVE",
"468 537 OFFCURVE",
"468 458 CURVE SMOOTH",
"468 391 OFFCURVE",
"390 302 OFFCURVE",
"264 302 CURVE SMOOTH",
"142 302 OFFCURVE",
"82 374 OFFCURVE",
"82 491 CURVE SMOOTH",
"82 621 OFFCURVE",
"148 701 OFFCURVE",
"269 701 CURVE SMOOTH"
);
}
);
vertWidth = 0;
width = 570;
},
{
layerId = "108A7794-AFCA-4739-A8E0-6E5429236965";
paths = (
{
closed = 1;
nodes = (
"540 610 OFFCURVE",
"434 722 OFFCURVE",
"277 722 CURVE SMOOTH",
"125 722 OFFCURVE",
"33 628 OFFCURVE",
"33 474 CURVE SMOOTH",
"33 330 OFFCURVE",
"110 246 OFFCURVE",
"233 246 CURVE SMOOTH",
"333 246 OFFCURVE",
"372 287 OFFCURVE",
"398 337 CURVE",
"403 337 LINE",
"398 198 OFFCURVE",
"336 109 OFFCURVE",
"169 109 CURVE SMOOTH",
"136 109 OFFCURVE",
"106 113 OFFCURVE",
"79 119 CURVE",
"79 -3 LINE",
"106 -8 OFFCURVE",
"149 -10 OFFCURVE",
"181 -10 CURVE SMOOTH",
"432 -10 OFFCURVE",
"540 119 OFFCURVE",
"540 394 CURVE SMOOTH"
);
},
{
closed = 1;
nodes = (
"358 601 OFFCURVE",
"388 518 OFFCURVE",
"388 460 CURVE SMOOTH",
"388 415 OFFCURVE",
"344 363 OFFCURVE",
"278 363 CURVE SMOOTH",
"213 363 OFFCURVE",
"180 406 OFFCURVE",
"180 475 CURVE SMOOTH",
"180 559 OFFCURVE",
"219 601 OFFCURVE",
"280 601 CURVE SMOOTH"
);
}
);
vertWidth = 0;
width = 582;
},
{
layerId = "3EC9E734-A013-45CB-A1DF-CD633C54F02E";
paths = (
{
closed = 1;
nodes = (
"520 590 OFFCURVE",
"438 724 OFFCURVE",
"273 724 CURVE SMOOTH",
"129 724 OFFCURVE",
"44 629 OFFCURVE",
"44 483 CURVE SMOOTH",
"44 346 OFFCURVE",
"120 262 OFFCURVE",
"248 262 CURVE SMOOTH",
"355 262 OFFCURVE",
"410 313 OFFCURVE",
"436 366 CURVE",
"439 366 LINE",
"432 156 OFFCURVE",
"343 62 OFFCURVE",
"185 62 CURVE SMOOTH",
"148 62 OFFCURVE",
"112 68 OFFCURVE",
"86 75 CURVE",
"86 0 LINE",
"113 -6 OFFCURVE",
"154 -10 OFFCURVE",
"191 -10 CURVE SMOOTH",
"402 -10 OFFCURVE",
"520 114 OFFCURVE",
"520 404 CURVE SMOOTH"
);
},
{
closed = 1;
nodes = (
"395 651 OFFCURVE",
"428 528 OFFCURVE",
"428 459 CURVE SMOOTH",
"428 403 OFFCURVE",
"367 333 OFFCURVE",
"271 333 CURVE SMOOTH",
"178 333 OFFCURVE",
"131 390 OFFCURVE",
"131 483 CURVE SMOOTH",
"131 590 OFFCURVE",
"184 651 OFFCURVE",
"275 651 CURVE SMOOTH"
);
}
);
vertWidth = 0;
width = 576;
}
);
unicode = 0039;
userData = {
KernOnSpecialSpacing = {
L = NoKerning;
R = NoKerning;
};
};
},
{
glyphname = "zero-ar";
production = uni0660;
layers = (
{
layerId = "DD221461-5F58-4856-B7A3-0FD42177026D";
paths = (
{
closed = 1;
nodes = (
"169 273 LINE",
"153 292 OFFCURVE",
"124 318 OFFCURVE",
"105 333 CURVE",
"70 296 LINE",
"92 278 OFFCURVE",
"114 258 OFFCURVE",
"134 237 CURVE"
);
}
);
vertWidth = 0;
width = 239;
},
{
layerId = "F950428B-3F13-4CD6-A68E-5B8ABB069931";
paths = (
{
closed = 1;
nodes = (
"311 295 LINE",
"275 340 OFFCURVE",
"226 391 OFFCURVE",
"172 431 CURVE",
"50 301 LINE",
"104 256 OFFCURVE",
"134 225 OFFCURVE",
"186 169 CURVE"
);
}
);
vertWidth = 0;
width = 361;
},
{
layerId = "108A7794-AFCA-4739-A8E0-6E5429236965";
paths = (
{
closed = 1;
nodes = (
"276 290 LINE",
"245 328 OFFCURVE",
"201 373 OFFCURVE",
"155 407 CURVE",
"55 300 LINE",
"101 262 OFFCURVE",
"129 233 OFFCURVE",
"173 186 CURVE"
);
}
);
vertWidth = 0;
width = 330.5;
},
{
layerId = "3EC9E734-A013-45CB-A1DF-CD633C54F02E";
paths = (
{
closed = 1;
nodes = (
"223 282 LINE",
"199 310 OFFCURVE",
"163 346 OFFCURVE",
"130 370 CURVE",
"63 298 LINE",
"97 270 OFFCURVE",
"122 246 OFFCURVE",
"154 212 CURVE"
);
}
);
vertWidth = 0;
width = 284.75;
}
);
unicode = 0660;
script = arabic;
category = Number;
subCategory = "Decimal Digit";
},
{
glyphname = "one-ar";
production = uni0661;
layers = (
{
layerId = "DD221461-5F58-4856-B7A3-0FD42177026D";
paths = (
{
closed = 1;
nodes = (
"147 116 OFFCURVE",
"119 447 OFFCURVE",
"59 674 CURVE",
"35 668 LINE",
"94 447 OFFCURVE",
"124 76 OFFCURVE",
"124 0 CURVE",
"147 3 LINE"
);
}
);
vertWidth = 0;
width = 217;
},
{
layerId = "F950428B-3F13-4CD6-A68E-5B8ABB069931";
paths = (
{
closed = 1;
nodes = (
"300 139 OFFCURVE",
"281 471 OFFCURVE",
"211 692 CURVE",
"35 646 LINE",
"94 428 OFFCURVE",
"124 57 OFFCURVE",
"124 -7 CURVE",
"300 0 LINE"
);
}
);
vertWidth = 0;
width = 350;
},
{
layerId = "108A7794-AFCA-4739-A8E0-6E5429236965";
paths = (
{
closed = 1;
nodes = (
"262 133 OFFCURVE",
"241 465 OFFCURVE",
"173 688 CURVE",
"35 652 LINE",
"94 433 OFFCURVE",
"124 62 OFFCURVE",
"124 -5 CURVE",
"262 1 LINE"
);
}
);
vertWidth = 0;
width = 316.75;
},
{
layerId = "3EC9E734-A013-45CB-A1DF-CD633C54F02E";
paths = (
{
closed = 1;
nodes = (
"205 125 OFFCURVE",
"180 456 OFFCURVE",
"116 681 CURVE",
"35 660 LINE",
"94 440 OFFCURVE",
"124 69 OFFCURVE",
"124 -2 CURVE",
"205 2 LINE"
);
}
);
vertWidth = 0;
width = 266.875;
}
);
unicode = 0661;
script = arabic;
category = Number;
subCategory = "Decimal Digit";
},
{
glyphname = "two-ar";
production = uni0662;
layers = (
{
layerId = "DD221461-5F58-4856-B7A3-0FD42177026D";
paths = (
{
closed = 1;
nodes = (
"147 100 OFFCURVE",
"119 447 OFFCURVE",
"58 674 CURVE",
"35 668 LINE",
"94 447 OFFCURVE",
"124 76 OFFCURVE",
"124 0 CURVE",
"147 3 LINE"
);
},
{
closed = 1;
nodes = (
"330 469 OFFCURVE",
"390 509 OFFCURVE",
"400 668 CURVE",
"375 672 LINE",
"364 518 OFFCURVE",
"310 493 OFFCURVE",
"225 493 CURVE SMOOTH",
"160 493 OFFCURVE",
"96 518 OFFCURVE",
"66 538 CURVE",
"81 505 LINE",
"103 492 OFFCURVE",
"162 469 OFFCURVE",
"224 469 CURVE SMOOTH"
);
}
);
vertWidth = 0;
width = 435;
},
{
layerId = "F950428B-3F13-4CD6-A68E-5B8ABB069931";
paths = (
{
closed = 1;
nodes = (
"296 139 OFFCURVE",
"277 471 OFFCURVE",
"207 692 CURVE",
"35 646 LINE",
"94 428 OFFCURVE",
"124 57 OFFCURVE",
"124 -7 CURVE",
"296 0 LINE"
);
},
{
closed = 1;
nodes = (
"483 405 OFFCURVE",
"544 491 OFFCURVE",
"561 658 CURVE",
"407 679 LINE",
"399 602 OFFCURVE",
"380 566 OFFCURVE",
"307 566 CURVE SMOOTH",
"279 566 OFFCURVE",
"232 572 OFFCURVE",
"194 585 CURVE",
"194 426 LINE",
"245 410 OFFCURVE",
"275 405 OFFCURVE",
"315 405 CURVE SMOOTH"
);
}
);
vertWidth = 0;
width = 576;
},
{
layerId = "108A7794-AFCA-4739-A8E0-6E5429236965";
paths = (
{
closed = 1;
nodes = (
"259 129 OFFCURVE",
"238 465 OFFCURVE",
"170 688 CURVE",
"35 652 LINE",
"94 433 OFFCURVE",
"124 62 OFFCURVE",
"124 -5 CURVE",
"259 1 LINE"
);
},
{
closed = 1;
nodes = (
"445 421 OFFCURVE",
"506 496 OFFCURVE",
"521 661 CURVE",
"399 677 LINE",
"390 581 OFFCURVE",
"363 548 OFFCURVE",
"287 548 CURVE SMOOTH",
"249 548 OFFCURVE",
"198 559 OFFCURVE",
"162 573 CURVE",
"162 446 LINE",
"210 431 OFFCURVE",
"247 421 OFFCURVE",
"292 421 CURVE SMOOTH"
);
}
);
vertWidth = 0;
width = 540.75;
},
{
layerId = "3EC9E734-A013-45CB-A1DF-CD633C54F02E";
paths = (
{
closed = 1;
nodes = (
"203 115 OFFCURVE",
"179 456 OFFCURVE",
"114 681 CURVE",
"35 660 LINE",
"94 440 OFFCURVE",
"124 69 OFFCURVE",
"124 -2 CURVE",
"203 2 LINE"
);
},
{
closed = 1;
nodes = (
"388 445 OFFCURVE",
"448 503 OFFCURVE",
"461 665 CURVE",
"387 675 LINE",
"377 550 OFFCURVE",
"337 521 OFFCURVE",
"256 521 CURVE SMOOTH",
"205 521 OFFCURVE",
"147 539 OFFCURVE",
"114 556 CURVE",
"124 476 LINE",
"157 462 OFFCURVE",
"205 445 OFFCURVE",
"258 445 CURVE SMOOTH"
);
}
);
vertWidth = 0;
width = 487.875;
}
);
unicode = 0662;
script = arabic;
category = Number;
subCategory = "Decimal Digit";
},
{
glyphname = "three-ar";
production = uni0663;
layers = (
{
layerId = "DD221461-5F58-4856-B7A3-0FD42177026D";
paths = (
{
closed = 1;
nodes = (
"147 99 OFFCURVE",
"119 447 OFFCURVE",
"58 674 CURVE",
"35 668 LINE",
"94 447 OFFCURVE",
"124 76 OFFCURVE",
"124 0 CURVE",
"147 2 LINE"
);
},
{
closed = 1;
nodes = (
"234 433 OFFCURVE",
"269 466 OFFCURVE",
"279 514 CURVE",
"270 514 LINE",
"274 463 OFFCURVE",
"308 437 OFFCURVE",
"371 437 CURVE SMOOTH",
"457 437 OFFCURVE",
"490 486 OFFCURVE",
"490 545 CURVE SMOOTH",
"490 579 OFFCURVE",
"479 630 OFFCURVE",
"458 675 CURVE",
"436 666 LINE",
"454 624 OFFCURVE",
"466 579 OFFCURVE",
"466 547 CURVE SMOOTH",
"466 509 OFFCURVE",
"449 461 OFFCURVE",
"369 461 CURVE SMOOTH",
"312 461 OFFCURVE",
"292 486 OFFCURVE",
"292 526 CURVE SMOOTH",
"292 544 OFFCURVE",
"296 568 OFFCURVE",
"312 654 CURVE",
"289 657 LINE",
"265 499 OFFCURVE",
"242 457 OFFCURVE",
"187 457 CURVE SMOOTH",
"132 457 OFFCURVE",
"99 501 OFFCURVE",
"94 520 CURVE SMOOTH",
"58 662 LINE",
"78 506 LINE",
"88 477 OFFCURVE",
"127 433 OFFCURVE",
"185 433 CURVE SMOOTH"
);
}
);
vertWidth = 0;
width = 525;
},
{
layerId = "F950428B-3F13-4CD6-A68E-5B8ABB069931";
paths = (
{
closed = 1;
nodes = (
"296 139 OFFCURVE",
"277 471 OFFCURVE",
"207 692 CURVE",
"35 646 LINE",
"94 428 OFFCURVE",
"124 57 OFFCURVE",
"124 -7 CURVE",
"296 0 LINE"
);
},
{
closed = 1;
nodes = (
"349 401 OFFCURVE",
"382 431 OFFCURVE",
"400 487 CURVE",
"380 487 LINE",
"389 441 OFFCURVE",
"424 405 OFFCURVE",
"499 405 CURVE SMOOTH",
"596 405 OFFCURVE",
"656 466 OFFCURVE",
"656 561 CURVE SMOOTH",
"656 589 OFFCURVE",
"651 628 OFFCURVE",
"630 684 CURVE",
"501 648 LINE",
"507 629 OFFCURVE",
"511 611 OFFCURVE",
"511 594 CURVE SMOOTH",
"511 575 OFFCURVE",
"506 559 OFFCURVE",
"474 559 CURVE SMOOTH",
"456 559 OFFCURVE",
"440 564 OFFCURVE",
"440 587 CURVE SMOOTH",
"440 596 OFFCURVE",
"442 613 OFFCURVE",
"446 642 CURVE",
"321 657 LINE",
"311 574 OFFCURVE",
"298 555 OFFCURVE",
"277 555 CURVE SMOOTH",
"258 555 OFFCURVE",
"247 571 OFFCURVE",
"245 577 CURVE SMOOTH",
"207 692 LINE",
"207 477 LINE",
"213 443 OFFCURVE",
"241 401 OFFCURVE",
"300 401 CURVE SMOOTH"
);
}
);
vertWidth = 0;
width = 671;
},
{
layerId = "108A7794-AFCA-4739-A8E0-6E5429236965";
paths = (
{
closed = 1;
nodes = (
"259 129 OFFCURVE",
"238 465 OFFCURVE",
"170 688 CURVE",
"35 652 LINE",
"94 433 OFFCURVE",
"124 62 OFFCURVE",
"124 -5 CURVE",
"259 1 LINE"
);
},
{
closed = 1;
nodes = (
"320 409 OFFCURVE",
"354 440 OFFCURVE",
"370 494 CURVE",
"353 494 LINE",
"360 447 OFFCURVE",
"395 413 OFFCURVE",
"467 413 CURVE SMOOTH",
"561 413 OFFCURVE",
"615 471 OFFCURVE",
"615 557 CURVE SMOOTH",
"615 587 OFFCURVE",
"608 629 OFFCURVE",
"587 682 CURVE",
"485 653 LINE",
"494 628 OFFCURVE",
"500 603 OFFCURVE",
"500 582 CURVE SMOOTH",
"500 559 OFFCURVE",
"492 535 OFFCURVE",
"448 535 CURVE SMOOTH",
"420 535 OFFCURVE",
"403 545 OFFCURVE",
"403 572 CURVE SMOOTH",
"403 583 OFFCURVE",
"406 602 OFFCURVE",
"413 645 CURVE",
"313 657 LINE",
"300 555 OFFCURVE",
"284 531 OFFCURVE",
"255 531 CURVE SMOOTH",
"227 531 OFFCURVE",
"210 554 OFFCURVE",
"207 563 CURVE SMOOTH",
"170 685 LINE",
"177 484 LINE",
"183 452 OFFCURVE",
"213 409 OFFCURVE",
"271 409 CURVE SMOOTH"
);
}
);
vertWidth = 0;
width = 634.5;
},
{
layerId = "3EC9E734-A013-45CB-A1DF-CD633C54F02E";
paths = (
{
closed = 1;
nodes = (
"203 114 OFFCURVE",
"179 456 OFFCURVE",
"114 681 CURVE",
"35 660 LINE",
"94 440 OFFCURVE",
"124 69 OFFCURVE",
"124 -2 CURVE",
"203 2 LINE"
);
},
{
closed = 1;
nodes = (
"277 421 OFFCURVE",
"312 453 OFFCURVE",
"325 504 CURVE",
"312 504 LINE",
"317 455 OFFCURVE",
"352 425 OFFCURVE",
"419 425 CURVE SMOOTH",
"509 425 OFFCURVE",
"553 479 OFFCURVE",
"553 551 CURVE SMOOTH",
"553 583 OFFCURVE",
"544 630 OFFCURVE",
"523 679 CURVE",
"461 660 LINE",
"474 626 OFFCURVE",
"483 591 OFFCURVE",
"483 565 CURVE SMOOTH",
"483 534 OFFCURVE",
"471 498 OFFCURVE",
"409 498 CURVE SMOOTH",
"366 498 OFFCURVE",
"348 516 OFFCURVE",
"348 549 CURVE SMOOTH",
"348 564 OFFCURVE",
"351 585 OFFCURVE",
"363 650 CURVE",
"301 657 LINE",
"283 527 OFFCURVE",
"263 494 OFFCURVE",
"221 494 CURVE SMOOTH",
"180 494 OFFCURVE",
"155 528 OFFCURVE",
"151 542 CURVE SMOOTH",
"114 674 LINE",
"127 495 LINE",
"136 465 OFFCURVE",
"170 421 OFFCURVE",
"228 421 CURVE SMOOTH"
);
}
);
vertWidth = 0;
width = 579.75;
}
);
unicode = 0663;
script = arabic;
category = Number;
subCategory = "Decimal Digit";
},
{
glyphname = "four-ar";
production = uni0664;
layers = (
{
layerId = "DD221461-5F58-4856-B7A3-0FD42177026D";
paths = (
{
closed = 1;
nodes = (
"375 27 OFFCURVE",
"336 18 OFFCURVE",
"264 18 CURVE SMOOTH",
"137 18 OFFCURVE",
"85 67 OFFCURVE",
"85 136 CURVE SMOOTH",
"85 215 OFFCURVE",
"173 297 OFFCURVE",
"298 356 CURVE",
"295 381 LINE",
"215 362 OFFCURVE",
"83 367 OFFCURVE",
"83 441 CURVE SMOOTH",
"83 510 OFFCURVE",
"180 615 OFFCURVE",
"299 652 CURVE",
"292 674 LINE",
"162 632 OFFCURVE",
"60 525 OFFCURVE",
"60 440 CURVE SMOOTH",
"60 366 OFFCURVE",
"152 341 OFFCURVE",
"239 351 CURVE",
"104 273 OFFCURVE",
"61 197 OFFCURVE",
"61 134 CURVE SMOOTH",
"61 45 OFFCURVE",
"130 -6 OFFCURVE",
"264 -6 CURVE SMOOTH",
"330 -6 OFFCURVE",
"381 2 OFFCURVE",
"432 22 CURVE",
"425 43 LINE"
);
}
);
vertWidth = 0;
width = 437;
},
{
layerId = "F950428B-3F13-4CD6-A68E-5B8ABB069931";
paths = (
{
closed = 1;
nodes = (
"417 170 OFFCURVE",
"355 154 OFFCURVE",
"308 154 CURVE SMOOTH",
"269 154 OFFCURVE",
"218 165 OFFCURVE",
"218 196 CURVE SMOOTH",
"218 234 OFFCURVE",
"281 258 OFFCURVE",
"346 282 CURVE",
"329 415 LINE",
"266 399 OFFCURVE",
"206 418 OFFCURVE",
"206 445 CURVE SMOOTH",
"206 478 OFFCURVE",
"276 521 OFFCURVE",
"378 542 CURVE",
"327 696 LINE",
"80 631 OFFCURVE",
"46 504 OFFCURVE",
"46 447 CURVE SMOOTH",
"46 404 OFFCURVE",
"75 354 OFFCURVE",
"135 322 CURVE",
"81 283 OFFCURVE",
"40 233 OFFCURVE",
"40 170 CURVE SMOOTH",
"40 78 OFFCURVE",
"126 -6 OFFCURVE",
"301 -6 CURVE SMOOTH",
"369 -6 OFFCURVE",
"439 9 OFFCURVE",
"489 37 CURVE",
"452 183 LINE"
);
}
);
vertWidth = 0;
width = 509;
},
{
layerId = "108A7794-AFCA-4739-A8E0-6E5429236965";
paths = (
{
closed = 1;
nodes = (
"407 134 OFFCURVE",
"350 120 OFFCURVE",
"297 120 CURVE SMOOTH",
"236 120 OFFCURVE",
"185 141 OFFCURVE",
"185 181 CURVE SMOOTH",
"185 229 OFFCURVE",
"254 267 OFFCURVE",
"334 301 CURVE",
"321 407 LINE",
"253 390 OFFCURVE",
"175 405 OFFCURVE",
"175 444 CURVE SMOOTH",
"175 486 OFFCURVE",
"252 545 OFFCURVE",
"358 570 CURVE",
"318 691 LINE",
"101 631 OFFCURVE",
"50 509 OFFCURVE",
"50 445 CURVE SMOOTH",
"50 395 OFFCURVE",
"94 351 OFFCURVE",
"161 329 CURVE",
"87 281 OFFCURVE",
"45 224 OFFCURVE",
"45 161 CURVE SMOOTH",
"45 70 OFFCURVE",
"127 -6 OFFCURVE",
"292 -6 CURVE SMOOTH",
"359 -6 OFFCURVE",
"425 7 OFFCURVE",
"475 33 CURVE",
"445 148 LINE"
);
}
);
vertWidth = 0;
width = 491;
},
{
layerId = "3EC9E734-A013-45CB-A1DF-CD633C54F02E";
paths = (
{
closed = 1;
nodes = (
"391 81 OFFCURVE",
"343 69 OFFCURVE",
"281 69 CURVE SMOOTH",
"187 69 OFFCURVE",
"135 104 OFFCURVE",
"135 159 CURVE SMOOTH",
"135 222 OFFCURVE",
"214 282 OFFCURVE",
"316 329 CURVE",
"308 394 LINE",
"234 376 OFFCURVE",
"129 386 OFFCURVE",
"129 443 CURVE SMOOTH",
"129 498 OFFCURVE",
"216 580 OFFCURVE",
"329 611 CURVE",
"305 683 LINE",
"132 632 OFFCURVE",
"55 517 OFFCURVE",
"55 443 CURVE SMOOTH",
"55 381 OFFCURVE",
"123 346 OFFCURVE",
"200 340 CURVE",
"96 277 OFFCURVE",
"53 211 OFFCURVE",
"53 148 CURVE SMOOTH",
"53 58 OFFCURVE",
"129 -6 OFFCURVE",
"278 -6 CURVE SMOOTH",
"345 -6 OFFCURVE",
"403 5 OFFCURVE",
"454 28 CURVE",
"435 96 LINE"
);
}
);
vertWidth = 0;
width = 464;
}
);
unicode = 0664;
script = arabic;
category = Number;
subCategory = "Decimal Digit";
},
{
glyphname = "five-ar";
production = uni0665;
layers = (
{
layerId = "DD221461-5F58-4856-B7A3-0FD42177026D";
paths = (
{
closed = 1;
nodes = (
"390 0 OFFCURVE",
"430 94 OFFCURVE",
"430 221 CURVE SMOOTH",
"430 401 OFFCURVE",
"349 495 OFFCURVE",
"263 495 CURVE SMOOTH",
"170 495 OFFCURVE",
"70 386 OFFCURVE",
"70 209 CURVE SMOOTH",
"70 59 OFFCURVE",
"129 0 OFFCURVE",
"246 0 CURVE SMOOTH"
);
},
{
closed = 1;
nodes = (
"145 23 OFFCURVE",
"93 77 OFFCURVE",
"93 202 CURVE SMOOTH",
"93 358 OFFCURVE",
"172 471 OFFCURVE",
"262 471 CURVE SMOOTH",
"355 471 OFFCURVE",
"407 350 OFFCURVE",
"407 214 CURVE SMOOTH",
"407 132 OFFCURVE",
"386 23 OFFCURVE",
"244 23 CURVE SMOOTH"
);
}
);
vertWidth = 0;
width = 500;
},
{
layerId = "F950428B-3F13-4CD6-A68E-5B8ABB069931";
paths = (
{
closed = 1;
nodes = (
"430 0 OFFCURVE",
"517 96 OFFCURVE",
"517 254 CURVE",
"517 398 OFFCURVE",
"440 547 OFFCURVE",
"289 547 CURVE",
"144 547 OFFCURVE",
"50 406 OFFCURVE",
"50 242 CURVE",
"50 69 OFFCURVE",
"136 0 OFFCURVE",
"284 0 CURVE"
);
},
{
closed = 1;
nodes = (
"245 162 OFFCURVE",
"213 181 OFFCURVE",
"213 241 CURVE",
"213 291 OFFCURVE",
"231 381 OFFCURVE",
"283 381 CURVE",
"327 381 OFFCURVE",
"348 307 OFFCURVE",
"348 241 CURVE",
"348 193 OFFCURVE",
"322 162 OFFCURVE",
"281 162 CURVE"
);
}
);
vertWidth = 0;
width = 567;
},
{
layerId = "108A7794-AFCA-4739-A8E0-6E5429236965";
paths = (
{
closed = 1;
nodes = (
"420 0 OFFCURVE",
"495 96 OFFCURVE",
"495 246 CURVE SMOOTH",
"495 399 OFFCURVE",
"417 534 OFFCURVE",
"283 534 CURVE SMOOTH",
"151 534 OFFCURVE",
"55 401 OFFCURVE",
"55 234 CURVE SMOOTH",
"55 67 OFFCURVE",
"134 0 OFFCURVE",
"275 0 CURVE SMOOTH"
);
},
{
closed = 1;
nodes = (
"220 127 OFFCURVE",
"183 155 OFFCURVE",
"183 231 CURVE SMOOTH",
"183 308 OFFCURVE",
"216 404 OFFCURVE",
"278 404 CURVE SMOOTH",
"334 404 OFFCURVE",
"363 318 OFFCURVE",
"363 234 CURVE SMOOTH",
"363 178 OFFCURVE",
"338 127 OFFCURVE",
"272 127 CURVE SMOOTH"
);
}
);
vertWidth = 0;
width = 550.25;
},
{
layerId = "3EC9E734-A013-45CB-A1DF-CD633C54F02E";
paths = (
{
closed = 1;
nodes = (
"405 0 OFFCURVE",
"463 95 OFFCURVE",
"463 234 CURVE SMOOTH",
"463 400 OFFCURVE",
"383 515 OFFCURVE",
"273 515 CURVE SMOOTH",
"161 515 OFFCURVE",
"63 394 OFFCURVE",
"63 222 CURVE SMOOTH",
"63 63 OFFCURVE",
"132 0 OFFCURVE",
"261 0 CURVE SMOOTH"
);
},
{
closed = 1;
nodes = (
"183 75 OFFCURVE",
"138 116 OFFCURVE",
"138 217 CURVE SMOOTH",
"138 333 OFFCURVE",
"194 438 OFFCURVE",
"270 438 CURVE SMOOTH",
"345 438 OFFCURVE",
"385 334 OFFCURVE",
"385 224 CURVE SMOOTH",
"385 155 OFFCURVE",
"362 75 OFFCURVE",
"258 75 CURVE SMOOTH"
);
}
);
vertWidth = 0;
width = 525.125;
}
);
unicode = 0665;
script = arabic;
category = Number;
subCategory = "Decimal Digit";
},
{
glyphname = "six-ar";
production = uni0666;
layers = (
{
layerId = "DD221461-5F58-4856-B7A3-0FD42177026D";
paths = (
{
closed = 1;
nodes = (
"387 5 LINE",
"363 97 OFFCURVE",
"315 378 OFFCURVE",
"320 662 CURVE",
"285 637 LINE",
"296 640 LINE",
"294 349 OFFCURVE",
"346 74 OFFCURVE",
"363 0 CURVE"
);
},
{
closed = 1;
nodes = (
"320 662 LINE",
"258 640 OFFCURVE",
"115 640 OFFCURVE",
"29 672 CURVE",
"25 648 LINE",
"108 617 OFFCURVE",
"227 617 OFFCURVE",
"316 636 CURVE"
);
}
);
vertWidth = 0;
width = 452;
},
{
layerId = "F950428B-3F13-4CD6-A68E-5B8ABB069931";
paths = (
{
closed = 1;
nodes = (
"513 10 LINE",
"473 229 OFFCURVE",
"439 493 OFFCURVE",
"439 683 CURVE",
"299 652 LINE",
"267 604 LINE",
"267 352 OFFCURVE",
"318 77 OFFCURVE",
"335 0 CURVE"
);
},
{
closed = 1;
nodes = (
"439 683 LINE",
"288 657 OFFCURVE",
"135 665 OFFCURVE",
"37 699 CURVE",
"5 531 LINE",
"91 492 OFFCURVE",
"270 479 OFFCURVE",
"343 505 CURVE"
);
}
);
vertWidth = 0;
width = 558;
},
{
layerId = "108A7794-AFCA-4739-A8E0-6E5429236965";
paths = (
{
closed = 1;
nodes = (
"482 9 LINE",
"446 196 OFFCURVE",
"408 464 OFFCURVE",
"409 678 CURVE",
"296 648 LINE",
"274 613 LINE",
"274 351 OFFCURVE",
"325 76 OFFCURVE",
"342 0 CURVE"
);
},
{
closed = 1;
nodes = (
"409 678 LINE",
"281 653 OFFCURVE",
"130 659 OFFCURVE",
"35 692 CURVE",
"10 560 LINE",
"95 523 OFFCURVE",
"259 514 OFFCURVE",
"336 538 CURVE"
);
}
);
vertWidth = 0;
width = 531.5;
},
{
layerId = "3EC9E734-A013-45CB-A1DF-CD633C54F02E";
paths = (
{
closed = 1;
nodes = (
"435 7 LINE",
"405 147 OFFCURVE",
"362 421 OFFCURVE",
"365 670 CURVE",
"291 643 LINE",
"285 627 LINE",
"284 350 OFFCURVE",
"336 75 OFFCURVE",
"353 0 CURVE"
);
},
{
closed = 1;
nodes = (
"365 670 LINE",
"270 647 OFFCURVE",
"123 650 OFFCURVE",
"32 682 CURVE",
"18 604 LINE",
"102 570 OFFCURVE",
"243 566 OFFCURVE",
"326 587 CURVE"
);
}
);
vertWidth = 0;
width = 491.75;
}
);
unicode = 0666;
script = arabic;
category = Number;
subCategory = "Decimal Digit";
},
{
glyphname = "seven-ar";
production = uni0667;
layers = (
{
layerId = "DD221461-5F58-4856-B7A3-0FD42177026D";
paths = (
{
closed = 1;
nodes = (
"275 7 LINE",
"316 213 OFFCURVE",
"414 478 OFFCURVE",
"502 665 CURVE",
"480 675 LINE",
"405 513 OFFCURVE",
"297 236 OFFCURVE",
"259 39 CURVE",
"251 0 LINE"
);
},
{
closed = 1;
nodes = (
"273 13 LINE",
"264 38 LINE",
"224 204 OFFCURVE",
"127 488 OFFCURVE",
"47 673 CURVE",
"25 664 LINE",
"109 476 OFFCURVE",
"199 196 OFFCURVE",
"251 0 CURVE"
);
}
);
vertWidth = 0;
width = 527;
},
{
layerId = "F950428B-3F13-4CD6-A68E-5B8ABB069931";
paths = (
{
closed = 1;
nodes = (
"405 12 LINE",
"447 172 OFFCURVE",
"537 441 OFFCURVE",
"627 633 CURVE",
"471 699 LINE",
"414 569 OFFCURVE",
"342 357 OFFCURVE",
"303 141 CURVE",
"238 -10 LINE"
);
},
{
closed = 1;
nodes = (
"401 12 LINE",
"335 173 LINE",
"282 353 OFFCURVE",
"221 562 OFFCURVE",
"165 699 CURVE",
"5 639 LINE",
"80 472 OFFCURVE",
"188 153 OFFCURVE",
"237 -10 CURVE"
);
}
);
vertWidth = 0;
width = 632;
},
{
layerId = "108A7794-AFCA-4739-A8E0-6E5429236965";
paths = (
{
closed = 1;
nodes = (
"373 11 LINE",
"414 182 OFFCURVE",
"506 450 OFFCURVE",
"596 641 CURVE",
"473 693 LINE",
"412 555 OFFCURVE",
"331 327 OFFCURVE",
"292 116 CURVE",
"241 -7 LINE"
);
},
{
closed = 1;
nodes = (
"369 12 LINE",
"317 139 LINE",
"268 316 OFFCURVE",
"198 544 OFFCURVE",
"136 693 CURVE",
"10 645 LINE",
"87 473 OFFCURVE",
"191 164 OFFCURVE",
"241 -7 CURVE"
);
}
);
vertWidth = 0;
width = 605.75;
},
{
layerId = "3EC9E734-A013-45CB-A1DF-CD633C54F02E";
paths = (
{
closed = 1;
nodes = (
"324 9 LINE",
"365 198 OFFCURVE",
"460 464 OFFCURVE",
"549 653 CURVE",
"477 684 LINE",
"409 534 OFFCURVE",
"314 282 OFFCURVE",
"276 78 CURVE",
"246 -3 LINE"
);
},
{
closed = 1;
nodes = (
"321 13 LINE",
"291 89 LINE",
"246 260 OFFCURVE",
"163 516 OFFCURVE",
"92 683 CURVE",
"18 655 LINE",
"98 475 OFFCURVE",
"195 180 OFFCURVE",
"246 -3 CURVE"
);
}
);
vertWidth = 0;
width = 566.375;
}
);
unicode = 0667;
script = arabic;
category = Number;
subCategory = "Decimal Digit";
},
{
glyphname = "eight-ar";
production = uni0668;
layers = (
{
layerId = "DD221461-5F58-4856-B7A3-0FD42177026D";
paths = (
{
closed = 1;
nodes = (
"122 165 OFFCURVE",
"230 440 OFFCURVE",
"268 635 CURVE",
"276 674 LINE",
"252 667 LINE",
"211 463 OFFCURVE",
"113 200 OFFCURVE",
"25 14 CURVE",
"47 4 LINE"
);
},
{
closed = 1;
nodes = (
"509 7 LINE",
"422 196 OFFCURVE",
"327 468 OFFCURVE",
"276 674 CURVE",
"254 661 LINE",
"264 636 LINE",
"305 469 OFFCURVE",
"404 184 OFFCURVE",
"487 -2 CURVE"
);
}
);
vertWidth = 0;
width = 534;
},
{
layerId = "F950428B-3F13-4CD6-A68E-5B8ABB069931";
paths = (
{
closed = 1;
nodes = (
"219 112 OFFCURVE",
"297 320 OFFCURVE",
"336 538 CURVE",
"396 689 LINE",
"227 656 LINE",
"185 495 OFFCURVE",
"95 240 OFFCURVE",
"5 47 CURVE",
"161 -19 LINE"
);
},
{
closed = 1;
nodes = (
"627 41 LINE",
"553 209 OFFCURVE",
"446 525 OFFCURVE",
"397 689 CURVE",
"231 656 LINE",
"297 506 LINE",
"350 328 OFFCURVE",
"411 116 OFFCURVE",
"467 -19 CURVE"
);
}
);
vertWidth = 0;
width = 632;
},
{
layerId = "108A7794-AFCA-4739-A8E0-6E5429236965";
paths = (
{
closed = 1;
nodes = (
"195 125 OFFCURVE",
"280 350 OFFCURVE",
"319 562 CURVE",
"366 685 LINE",
"233 659 LINE",
"192 487 OFFCURVE",
"100 230 OFFCURVE",
"10 39 CURVE",
"133 -13 LINE"
);
},
{
closed = 1;
nodes = (
"598 33 LINE",
"520 206 OFFCURVE",
"416 511 OFFCURVE",
"367 685 CURVE",
"237 657 LINE",
"289 539 LINE",
"339 363 OFFCURVE",
"409 133 OFFCURVE",
"472 -15 CURVE"
);
}
);
vertWidth = 0;
width = 607.5;
},
{
layerId = "3EC9E734-A013-45CB-A1DF-CD633C54F02E";
paths = (
{
closed = 1;
nodes = (
"159 145 OFFCURVE",
"255 395 OFFCURVE",
"294 599 CURVE",
"321 680 LINE",
"243 663 LINE",
"202 475 OFFCURVE",
"107 215 OFFCURVE",
"18 27 CURVE",
"90 -4 LINE"
);
},
{
closed = 1;
nodes = (
"554 20 LINE",
"471 201 OFFCURVE",
"372 490 OFFCURVE",
"322 680 CURVE",
"246 659 LINE",
"277 588 LINE",
"322 416 OFFCURVE",
"407 159 OFFCURVE",
"480 -8 CURVE"
);
}
);
vertWidth = 0;
width = 570.75;
}
);
unicode = 0668;
script = arabic;
category = Number;
subCategory = "Decimal Digit";
},
{
glyphname = "nine-ar";
production = uni0669;
layers = (
{
layerId = "DD221461-5F58-4856-B7A3-0FD42177026D";
paths = (
{
closed = 1;
nodes = (
"382 6 LINE",
"357 95 OFFCURVE",
"337 245 OFFCURVE",
"329 385 CURVE SMOOTH",
"321 520 OFFCURVE",
"309 675 OFFCURVE",
"188 675 CURVE SMOOTH",
"101 675 OFFCURVE",
"35 603 OFFCURVE",
"35 510 CURVE SMOOTH",
"35 411 OFFCURVE",
"105 353 OFFCURVE",
"204 353 CURVE SMOOTH",
"240 353 OFFCURVE",
"282 358 OFFCURVE",
"320 371 CURVE",
"313 393 LINE",
"285 384 OFFCURVE",
"247 377 OFFCURVE",
"210 376 CURVE SMOOTH",
"97 376 OFFCURVE",
"59 447 OFFCURVE",
"59 513 CURVE SMOOTH",
"59 589 OFFCURVE",
"115 651 OFFCURVE",
"186 651 CURVE SMOOTH",
"294 651 OFFCURVE",
"299 481 OFFCURVE",
"305 379 CURVE SMOOTH",
"308 334 OFFCURVE",
"325 118 OFFCURVE",
"359 0 CURVE"
);
}
);
vertWidth = 0;
width = 447;
},
{
layerId = "F950428B-3F13-4CD6-A68E-5B8ABB069931";
paths = (
{
closed = 1;
nodes = (
"538 28 LINE",
"515 133 OFFCURVE",
"504 273 OFFCURVE",
"496 407 CURVE SMOOTH",
"487 556 OFFCURVE",
"434 685 OFFCURVE",
"268 685 CURVE SMOOTH",
"122 685 OFFCURVE",
"15 567 OFFCURVE",
"15 431 CURVE SMOOTH",
"15 300 OFFCURVE",
"101 231 OFFCURVE",
"241 231 CURVE SMOOTH",
"285 231 OFFCURVE",
"333 241 OFFCURVE",
"382 262 CURVE",
"356 419 LINE",
"323 403 OFFCURVE",
"293 396 OFFCURVE",
"257 396 CURVE SMOOTH",
"219 396 OFFCURVE",
"197 422 OFFCURVE",
"197 458 CURVE SMOOTH",
"197 488 OFFCURVE",
"216 517 OFFCURVE",
"249 517 CURVE SMOOTH",
"294 517 OFFCURVE",
"316 488 OFFCURVE",
"323 403 CURVE SMOOTH",
"337 266 OFFCURVE",
"336 134 OFFCURVE",
"372 0 CURVE"
);
}
);
vertWidth = 0;
width = 583;
},
{
layerId = "108A7794-AFCA-4739-A8E0-6E5429236965";
paths = (
{
closed = 1;
nodes = (
"499 23 LINE",
"476 124 OFFCURVE",
"462 266 OFFCURVE",
"454 402 CURVE SMOOTH",
"446 547 OFFCURVE",
"403 683 OFFCURVE",
"248 683 CURVE SMOOTH",
"117 683 OFFCURVE",
"20 576 OFFCURVE",
"20 451 CURVE SMOOTH",
"20 328 OFFCURVE",
"102 262 OFFCURVE",
"232 262 CURVE SMOOTH",
"274 262 OFFCURVE",
"320 270 OFFCURVE",
"367 289 CURVE",
"345 413 LINE",
"314 398 OFFCURVE",
"282 391 OFFCURVE",
"245 391 CURVE SMOOTH",
"189 391 OFFCURVE",
"163 428 OFFCURVE",
"163 472 CURVE SMOOTH",
"163 513 OFFCURVE",
"191 551 OFFCURVE",
"233 551 CURVE SMOOTH",
"294 551 OFFCURVE",
"312 486 OFFCURVE",
"319 397 CURVE SMOOTH",
"330 283 OFFCURVE",
"333 130 OFFCURVE",
"369 0 CURVE"
);
}
);
vertWidth = 0;
width = 549;
},
{
layerId = "3EC9E734-A013-45CB-A1DF-CD633C54F02E";
paths = (
{
closed = 1;
nodes = (
"441 15 LINE",
"417 110 OFFCURVE",
"400 256 OFFCURVE",
"392 394 CURVE SMOOTH",
"384 534 OFFCURVE",
"356 679 OFFCURVE",
"218 679 CURVE SMOOTH",
"109 679 OFFCURVE",
"28 590 OFFCURVE",
"28 481 CURVE SMOOTH",
"28 370 OFFCURVE",
"104 308 OFFCURVE",
"218 308 CURVE SMOOTH",
"257 308 OFFCURVE",
"301 314 OFFCURVE",
"344 330 CURVE",
"329 403 LINE",
"300 391 OFFCURVE",
"265 384 OFFCURVE",
"228 384 CURVE SMOOTH",
"143 384 OFFCURVE",
"111 438 OFFCURVE",
"111 493 CURVE SMOOTH",
"111 551 OFFCURVE",
"153 601 OFFCURVE",
"210 601 CURVE SMOOTH",
"294 601 OFFCURVE",
"306 484 OFFCURVE",
"312 388 CURVE SMOOTH",
"317 309 OFFCURVE",
"329 124 OFFCURVE",
"364 0 CURVE"
);
}
);
vertWidth = 0;
width = 498;
}
);
unicode = 0669;
script = arabic;
category = Number;
subCategory = "Decimal Digit";
},
{
glyphname = "decimalseparator-ar";
production = uni066B;
layers = (
{
layerId = "DD221461-5F58-4856-B7A3-0FD42177026D";
paths = (
{
closed = 1;
nodes = (
"105 -134 LINE",
"120 -109 OFFCURVE",
"177 -6 OFFCURVE",
"177 31 CURVE SMOOTH",
"177 51 OFFCURVE",
"160 66 OFFCURVE",
"141 66 CURVE SMOOTH",
"120 66 OFFCURVE",
"105 49 OFFCURVE",
"105 30 CURVE SMOOTH",
"105 15 OFFCURVE",
"115 3 OFFCURVE",
"128 0 CURVE",
"78 -134 LINE"
);
}
);
vertWidth = 0;
width = 302;
},
{
layerId = "F950428B-3F13-4CD6-A68E-5B8ABB069931";
paths = (
{
closed = 1;
nodes = (
"138 -155 LINE",
"166 -110 OFFCURVE",
"242 15 OFFCURVE",
"242 83 CURVE SMOOTH",
"242 141 OFFCURVE",
"193 185 OFFCURVE",
"140 185 CURVE SMOOTH",
"85 185 OFFCURVE",
"40 136 OFFCURVE",
"40 84 CURVE SMOOTH",
"40 41 OFFCURVE",
"67 8 OFFCURVE",
"105 0 CURVE",
"48 -155 LINE"
);
}
);
vertWidth = 0;
width = 272;
},
{
layerId = "108A7794-AFCA-4739-A8E0-6E5429236965";
paths = (
{
closed = 1;
nodes = (
"130 -150 LINE",
"154 -110 OFFCURVE",
"226 10 OFFCURVE",
"226 70 CURVE SMOOTH",
"226 119 OFFCURVE",
"185 155 OFFCURVE",
"140 155 CURVE SMOOTH",
"94 155 OFFCURVE",
"56 114 OFFCURVE",
"56 71 CURVE SMOOTH",
"56 35 OFFCURVE",
"79 7 OFFCURVE",
"111 0 CURVE",
"56 -150 LINE"
);
}
);
vertWidth = 0;
width = 279.5;
},
{
layerId = "3EC9E734-A013-45CB-A1DF-CD633C54F02E";
paths = (
{
closed = 1;
nodes = (
"118 -142 LINE",
"138 -109 OFFCURVE",
"202 2 OFFCURVE",
"202 51 CURVE SMOOTH",
"202 85 OFFCURVE",
"173 111 OFFCURVE",
"141 111 CURVE SMOOTH",
"107 111 OFFCURVE",
"81 82 OFFCURVE",
"81 51 CURVE SMOOTH",
"81 25 OFFCURVE",
"97 5 OFFCURVE",
"120 0 CURVE",
"67 -142 LINE"
);
}
);
vertWidth = 0;
width = 290.75;
}
);
unicode = 066B;
script = arabic;
category = Number;
subCategory = "Decimal Digit";
},
{
glyphname = "thousandseparator-ar";
production = uni066C;
layers = (
{
layerId = "DD221461-5F58-4856-B7A3-0FD42177026D";
paths = (
{
closed = 1;
nodes = (
"107 0 OFFCURVE",
"122 17 OFFCURVE",
"122 36 CURVE SMOOTH",
"122 51 OFFCURVE",
"112 63 OFFCURVE",
"99 66 CURVE",
"149 200 LINE",
"122 200 LINE",
"107 175 OFFCURVE",
"50 72 OFFCURVE",
"50 35 CURVE SMOOTH",
"50 15 OFFCURVE",
"67 0 OFFCURVE",
"86 0 CURVE SMOOTH"
);
}
);
vertWidth = 0;
width = 245;
},
{
layerId = "F950428B-3F13-4CD6-A68E-5B8ABB069931";
paths = (
{
closed = 1;
nodes = (
"197 0 OFFCURVE",
"242 49 OFFCURVE",
"242 101 CURVE SMOOTH",
"242 144 OFFCURVE",
"215 177 OFFCURVE",
"177 185 CURVE",
"234 340 LINE",
"144 340 LINE",
"116 295 OFFCURVE",
"40 170 OFFCURVE",
"40 102 CURVE SMOOTH",
"40 44 OFFCURVE",
"89 0 OFFCURVE",
"142 0 CURVE SMOOTH"
);
}
);
vertWidth = 0;
width = 353;
},
{
layerId = "108A7794-AFCA-4739-A8E0-6E5429236965";
paths = (
{
closed = 1;
nodes = (
"175 0 OFFCURVE",
"212 41 OFFCURVE",
"212 85 CURVE SMOOTH",
"212 121 OFFCURVE",
"189 149 OFFCURVE",
"158 155 CURVE",
"213 305 LINE",
"139 305 LINE",
"114 265 OFFCURVE",
"43 146 OFFCURVE",
"43 85 CURVE SMOOTH",
"43 37 OFFCURVE",
"84 0 OFFCURVE",
"128 0 CURVE SMOOTH"
);
}
);
vertWidth = 0;
width = 326;
},
{
layerId = "3EC9E734-A013-45CB-A1DF-CD633C54F02E";
paths = (
{
closed = 1;
nodes = (
"141 0 OFFCURVE",
"167 29 OFFCURVE",
"167 61 CURVE SMOOTH",
"167 86 OFFCURVE",
"151 106 OFFCURVE",
"129 111 CURVE",
"181 253 LINE",
"131 253 LINE",
"110 220 OFFCURVE",
"47 109 OFFCURVE",
"47 60 CURVE SMOOTH",
"47 26 OFFCURVE",
"76 0 OFFCURVE",
"107 0 CURVE SMOOTH"
);
}
);
vertWidth = 0;
width = 285.5;
}
);
unicode = 066C;
script = arabic;
category = Number;
subCategory = "Decimal Digit";
},
{
glyphname = parenleft;
layers = (
{
layerId = "DD221461-5F58-4856-B7A3-0FD42177026D";
paths = (
{
closed = 1;
nodes = (
"216 -158 LINE",
"171 -79 OFFCURVE",
"148 15 OFFCURVE",
"148 118 CURVE SMOOTH",
"148 340 OFFCURVE",
"242 561 OFFCURVE",
"401 714 CURVE",
"367 714 LINE",
"226 577 OFFCURVE",
"122 361 OFFCURVE",
"122 118 CURVE SMOOTH",
"122 11 OFFCURVE",
"145 -83 OFFCURVE",
"187 -158 CURVE"
);
}
);
vertWidth = 0;
width = 468;
},
{
layerId = "F950428B-3F13-4CD6-A68E-5B8ABB069931";
paths = (
{
closed = 1;
nodes = (
"318 -158 LINE",
"282 -66 OFFCURVE",
"261 58 OFFCURVE",
"261 151 CURVE SMOOTH",
"261 394 OFFCURVE",
"367 580 OFFCURVE",
"509 734 CURVE",
"343 734 LINE",
"181 567 OFFCURVE",
"93 386 OFFCURVE",
"93 159 CURVE SMOOTH",
"93 55 OFFCURVE",
"120 -75 OFFCURVE",
"167 -158 CURVE"
);
}
);
vertWidth = 0;
width = 500;
},
{
layerId = "108A7794-AFCA-4739-A8E0-6E5429236965";
paths = (
{
closed = 1;
nodes = (
"293 -158 LINE",
"254 -69 OFFCURVE",
"233 47 OFFCURVE",
"233 143 CURVE SMOOTH",
"233 381 OFFCURVE",
"336 575 OFFCURVE",
"482 729 CURVE",
"349 729 LINE",
"192 570 OFFCURVE",
"100 380 OFFCURVE",
"100 149 CURVE SMOOTH",
"100 44 OFFCURVE",
"126 -77 OFFCURVE",
"172 -158 CURVE"
);
}
);
vertWidth = 0;
width = 492;
},
{
layerId = "3EC9E734-A013-45CB-A1DF-CD633C54F02E";
paths = (
{
closed = 1;
nodes = (
"252 -158 LINE",
"210 -74 OFFCURVE",
"188 31 OFFCURVE",
"188 131 CURVE SMOOTH",
"188 361 OFFCURVE",
"286 568 OFFCURVE",
"439 722 CURVE",
"358 722 LINE",
"209 574 OFFCURVE",
"111 371 OFFCURVE",
"111 134 CURVE SMOOTH",
"111 28 OFFCURVE",
"136 -80 OFFCURVE",
"180 -158 CURVE"
);
}
);
vertWidth = 0;
width = 480;
}
);
unicode = 0028;
category = Punctuation;
subCategory = Parenthesis;
userData = {
KernOnSpecialSpacing = {
R = parenthesis;
};
};
},
{
glyphname = parenright;
layers = (
{
layerId = "DD221461-5F58-4856-B7A3-0FD42177026D";
paths = (
{
closed = 1;
nodes = (
"61 -158 LINE",
"202 -21 OFFCURVE",
"306 195 OFFCURVE",
"306 438 CURVE SMOOTH",
"306 545 OFFCURVE",
"283 639 OFFCURVE",
"241 714 CURVE",
"212 714 LINE",
"257 635 OFFCURVE",
"280 541 OFFCURVE",
"280 438 CURVE SMOOTH",
"280 216 OFFCURVE",
"186 -5 OFFCURVE",
"27 -158 CURVE"
);
}
);
vertWidth = 0;
width = 488;
},
{
layerId = "F950428B-3F13-4CD6-A68E-5B8ABB069931";
paths = (
{
closed = 1;
nodes = (
"164 -158 LINE",
"326 9 OFFCURVE",
"409 190 OFFCURVE",
"409 417 CURVE SMOOTH",
"409 521 OFFCURVE",
"386 645 OFFCURVE",
"335 734 CURVE",
"183 734 LINE",
"219 642 OFFCURVE",
"241 518 OFFCURVE",
"241 425 CURVE SMOOTH",
"241 182 OFFCURVE",
"139 -4 OFFCURVE",
"-3 -158 CURVE"
);
}
);
vertWidth = 0;
width = 520;
},
{
layerId = "108A7794-AFCA-4739-A8E0-6E5429236965";
paths = (
{
closed = 1;
nodes = (
"138 -158 LINE",
"295 2 OFFCURVE",
"383 191 OFFCURVE",
"383 422 CURVE SMOOTH",
"383 527 OFFCURVE",
"360 644 OFFCURVE",
"312 729 CURVE",
"190 729 LINE",
"229 640 OFFCURVE",
"251 524 OFFCURVE",
"251 428 CURVE SMOOTH",
"251 191 OFFCURVE",
"151 -4 OFFCURVE",
"5 -158 CURVE"
);
}
);
vertWidth = 0;
width = 512;
},
{
layerId = "3EC9E734-A013-45CB-A1DF-CD633C54F02E";
paths = (
{
closed = 1;
nodes = (
"100 -158 LINE",
"249 -9 OFFCURVE",
"345 193 OFFCURVE",
"345 430 CURVE SMOOTH",
"345 536 OFFCURVE",
"322 642 OFFCURVE",
"277 722 CURVE",
"204 722 LINE",
"246 638 OFFCURVE",
"269 533 OFFCURVE",
"269 433 CURVE SMOOTH",
"269 204 OFFCURVE",
"172 -4 OFFCURVE",
"19 -158 CURVE"
);
}
);
vertWidth = 0;
width = 500;
}
);
unicode = 0029;
category = Punctuation;
subCategory = Parenthesis;
userData = {
KernOnSpecialSpacing = {
L = parenthesis;
};
};
},
{
glyphname = quoteleft;
layers = (
{
layerId = "DD221461-5F58-4856-B7A3-0FD42177026D";
paths = (
{
closed = 1;
nodes = (
"81 604 OFFCURVE",
"85 614 OFFCURVE",
"85 632 CURVE SMOOTH",
"85 649 OFFCURVE",
"77 652 OFFCURVE",
"53 655 CURVE",
"53 676 OFFCURVE",
"77 737 OFFCURVE",
"109 781 CURVE",
"92 791 LINE",
"62 752 OFFCURVE",
"25 674 OFFCURVE",
"25 631 CURVE SMOOTH",
"25 607 OFFCURVE",
"37 604 OFFCURVE",
"56 604 CURVE SMOOTH"
);
}
);
vertWidth = 0;
width = 149;
},
{
layerId = "F950428B-3F13-4CD6-A68E-5B8ABB069931";
paths = (
{
closed = 1;
nodes = (
"184 515 OFFCURVE",
"212 537 OFFCURVE",
"212 581 CURVE SMOOTH",
"212 624 OFFCURVE",
"202 633 OFFCURVE",
"157 645 CURVE",
"159 657 OFFCURVE",
"186 705 OFFCURVE",
"211 742 CURVE",
"107 791 LINE",
"65 726 OFFCURVE",
"20 634 OFFCURVE",
"20 584 CURVE SMOOTH",
"20 535 OFFCURVE",
"56 515 OFFCURVE",
"114 515 CURVE SMOOTH"
);
}
);
vertWidth = 0;
width = 247;
},
{
layerId = "108A7794-AFCA-4739-A8E0-6E5429236965";
paths = (
{
closed = 1;
nodes = (
"158 537 OFFCURVE",
"180 556 OFFCURVE",
"180 594 CURVE SMOOTH",
"180 630 OFFCURVE",
"171 638 OFFCURVE",
"131 648 CURVE",
"133 662 OFFCURVE",
"159 713 OFFCURVE",
"186 752 CURVE",
"103 791 LINE",
"64 733 OFFCURVE",
"21 644 OFFCURVE",
"21 596 CURVE SMOOTH",
"21 553 OFFCURVE",
"51 537 OFFCURVE",
"100 537 CURVE SMOOTH"
);
}
);
vertWidth = 0;
width = 222.5;
},
{
layerId = "3EC9E734-A013-45CB-A1DF-CD633C54F02E";
paths = (
{
closed = 1;
nodes = (
"120 571 OFFCURVE",
"133 585 OFFCURVE",
"133 613 CURVE SMOOTH",
"133 640 OFFCURVE",
"124 645 OFFCURVE",
"92 652 CURVE",
"93 669 OFFCURVE",
"118 725 OFFCURVE",
"148 767 CURVE",
"98 791 LINE",
"63 743 OFFCURVE",
"23 659 OFFCURVE",
"23 614 CURVE SMOOTH",
"23 580 OFFCURVE",
"44 571 OFFCURVE",
"78 571 CURVE SMOOTH"
);
}
);
vertWidth = 0;
width = 185.75;
}
);
unicode = 2018;
category = Punctuation;
subCategory = Quote;
userData = {
KernOnSpecialSpacing = {
L = quotes;
R = quotes;
};
};
},
{
glyphname = quotedbl;
layers = (
{
layerId = "DD221461-5F58-4856-B7A3-0FD42177026D";
paths = (
{
closed = 1;
nodes = (
"263 482 LINE",
"316 714 LINE",
"291 714 LINE",
"245 482 LINE"
);
},
{
closed = 1;
nodes = (
"139 482 LINE",
"192 714 LINE",
"167 714 LINE",
"121 482 LINE"
);
}
);
vertWidth = 0;
width = 310;
},
{
layerId = "F950428B-3F13-4CD6-A68E-5B8ABB069931";
paths = (
{
closed = 1;
nodes = (
"417 482 LINE",
"486 714 LINE",
"336 714 LINE",
"303 482 LINE"
);
},
{
closed = 1;
nodes = (
"222 482 LINE",
"292 714 LINE",
"141 714 LINE",
"110 482 LINE"
);
}
);
vertWidth = 0;
width = 454;
},
{
layerId = "108A7794-AFCA-4739-A8E0-6E5429236965";
paths = (
{
closed = 1;
nodes = (
"379 482 LINE",
"444 714 LINE",
"325 714 LINE",
"289 482 LINE"
);
},
{
closed = 1;
nodes = (
"201 482 LINE",
"267 714 LINE",
"148 714 LINE",
"113 482 LINE"
);
}
);
vertWidth = 0;
width = 418;
},
{
layerId = "3EC9E734-A013-45CB-A1DF-CD633C54F02E";
paths = (
{
closed = 1;
nodes = (
"321 482 LINE",
"380 714 LINE",
"308 714 LINE",
"267 482 LINE"
);
},
{
closed = 1;
nodes = (
"170 482 LINE",
"230 714 LINE",
"158 714 LINE",
"117 482 LINE"
);
}
);
vertWidth = 0;
width = 364;
}
);
leftKerningGroup = quote.right;
rightKerningGroup = quote.left;
unicode = 0022;
category = Punctuation;
subCategory = Quote;
},
{
glyphname = quotesingle;
layers = (
{
layerId = "DD221461-5F58-4856-B7A3-0FD42177026D";
paths = (
{
closed = 1;
nodes = (
"132 482 LINE",
"185 714 LINE",
"160 714 LINE",
"114 482 LINE"
);
}
);
vertWidth = 0;
width = 172;
},
{
layerId = "F950428B-3F13-4CD6-A68E-5B8ABB069931";
paths = (
{
closed = 1;
nodes = (
"212 482 LINE",
"281 714 LINE",
"131 714 LINE",
"99 482 LINE"
);
}
);
vertWidth = 0;
width = 238;
},
{
layerId = "108A7794-AFCA-4739-A8E0-6E5429236965";
paths = (
{
closed = 1;
nodes = (
"192 482 LINE",
"257 714 LINE",
"138 714 LINE",
"103 482 LINE"
);
}
);
vertWidth = 0;
width = 221.5;
},
{
layerId = "3EC9E734-A013-45CB-A1DF-CD633C54F02E";
paths = (
{
closed = 1;
nodes = (
"162 482 LINE",
"221 714 LINE",
"149 714 LINE",
"109 482 LINE"
);
}
);
vertWidth = 0;
width = 196.75;
}
);
leftKerningGroup = quote.right;
rightKerningGroup = quote.left;
unicode = 0027;
category = Punctuation;
subCategory = Quote;
},
{
glyphname = period;
layers = (
{
layerId = "DD221461-5F58-4856-B7A3-0FD42177026D";
paths = (
{
closed = 1;
nodes = (
"184 -10 OFFCURVE",
"194 -3 OFFCURVE",
"194 25 CURVE SMOOTH",
"194 44 OFFCURVE",
"186 50 OFFCURVE",
"166 50 CURVE SMOOTH",
"142 50 OFFCURVE",
"130 41 OFFCURVE",
"130 16 CURVE SMOOTH",
"130 -3 OFFCURVE",
"137 -10 OFFCURVE",
"156 -10 CURVE SMOOTH"
);
}
);
vertWidth = 0;
width = 364;
},
{
layerId = "F950428B-3F13-4CD6-A68E-5B8ABB069931";
paths = (
{
closed = 1;
nodes = (
"243 -12 OFFCURVE",
"284 18 OFFCURVE",
"284 106 CURVE SMOOTH",
"284 169 OFFCURVE",
"256 189 OFFCURVE",
"193 189 CURVE SMOOTH",
"108 189 OFFCURVE",
"70 161 OFFCURVE",
"70 74 CURVE SMOOTH",
"70 12 OFFCURVE",
"96 -12 OFFCURVE",
"156 -12 CURVE SMOOTH"
);
}
);
vertWidth = 0;
width = 387;
},
{
layerId = "108A7794-AFCA-4739-A8E0-6E5429236965";
paths = (
{
closed = 1;
nodes = (
"228 -11 OFFCURVE",
"262 13 OFFCURVE",
"262 86 CURVE SMOOTH",
"262 138 OFFCURVE",
"239 154 OFFCURVE",
"186 154 CURVE SMOOTH",
"117 154 OFFCURVE",
"85 131 OFFCURVE",
"85 60 CURVE SMOOTH",
"85 8 OFFCURVE",
"106 -11 OFFCURVE",
"156 -11 CURVE SMOOTH"
);
}
);
vertWidth = 0;
width = 381.25;
},
{
layerId = "3EC9E734-A013-45CB-A1DF-CD633C54F02E";
paths = (
{
closed = 1;
nodes = (
"206 -10 OFFCURVE",
"228 5 OFFCURVE",
"228 56 CURVE SMOOTH",
"228 91 OFFCURVE",
"213 102 OFFCURVE",
"176 102 CURVE SMOOTH",
"130 102 OFFCURVE",
"108 86 OFFCURVE",
"108 38 CURVE SMOOTH",
"108 3 OFFCURVE",
"122 -10 OFFCURVE",
"156 -10 CURVE SMOOTH"
);
}
);
vertWidth = 0;
width = 372.625;
}
);
unicode = 002E;
category = Punctuation;
subCategory = Spacing;
userData = {
KernOnSpecialSpacing = {
L = period;
R = period;
};
};
},
{
glyphname = exclam;
layers = (
{
layerId = "DD221461-5F58-4856-B7A3-0FD42177026D";
paths = (
{
closed = 1;
nodes = (
"211 174 LINE",
"329 714 LINE",
"301 714 LINE",
"187 174 LINE"
);
},
{
closed = 1;
nodes = (
"184 -8 OFFCURVE",
"194 14 OFFCURVE",
"194 32 CURVE SMOOTH",
"194 43 OFFCURVE",
"188 54 OFFCURVE",
"172 54 CURVE SMOOTH",
"152 54 OFFCURVE",
"142 32 OFFCURVE",
"142 14 CURVE SMOOTH",
"142 0 OFFCURVE",
"151 -8 OFFCURVE",
"165 -8 CURVE SMOOTH"
);
}
);
vertWidth = 0;
width = 402;
},
{
layerId = "F950428B-3F13-4CD6-A68E-5B8ABB069931";
paths = (
{
closed = 1;
nodes = (
"281 252 LINE",
"405 714 LINE",
"197 714 LINE",
"121 252 LINE"
);
},
{
closed = 1;
nodes = (
"225 -12 OFFCURVE",
"273 25 OFFCURVE",
"273 100 CURVE SMOOTH",
"273 148 OFFCURVE",
"241 176 OFFCURVE",
"185 176 CURVE SMOOTH",
"105 176 OFFCURVE",
"66 126 OFFCURVE",
"66 62 CURVE SMOOTH",
"66 24 OFFCURVE",
"88 -12 OFFCURVE",
"157 -12 CURVE SMOOTH"
);
}
);
vertWidth = 0;
width = 428;
},
{
layerId = "108A7794-AFCA-4739-A8E0-6E5429236965";
paths = (
{
closed = 1;
nodes = (
"264 233 LINE",
"386 714 LINE",
"223 714 LINE",
"138 233 LINE"
);
},
{
closed = 1;
nodes = (
"215 -11 OFFCURVE",
"253 22 OFFCURVE",
"253 83 CURVE SMOOTH",
"253 122 OFFCURVE",
"228 146 OFFCURVE",
"182 146 CURVE SMOOTH",
"117 146 OFFCURVE",
"85 103 OFFCURVE",
"85 50 CURVE SMOOTH",
"85 18 OFFCURVE",
"104 -11 OFFCURVE",
"159 -11 CURVE SMOOTH"
);
}
);
vertWidth = 0;
width = 421.5;
},
{
layerId = "3EC9E734-A013-45CB-A1DF-CD633C54F02E";
paths = (
{
closed = 1;
nodes = (
"238 204 LINE",
"358 714 LINE",
"262 714 LINE",
"163 204 LINE"
);
},
{
closed = 1;
nodes = (
"200 -9 OFFCURVE",
"224 18 OFFCURVE",
"224 58 CURVE SMOOTH",
"224 83 OFFCURVE",
"208 100 OFFCURVE",
"177 100 CURVE SMOOTH",
"135 100 OFFCURVE",
"114 68 OFFCURVE",
"114 32 CURVE SMOOTH",
"114 9 OFFCURVE",
"128 -9 OFFCURVE",
"162 -9 CURVE SMOOTH"
);
}
);
vertWidth = 0;
width = 411.75;
}
);
unicode = 0021;
category = Punctuation;
subCategory = Spacing;
userData = {
KernOnSpecialSpacing = {
L = "spaced-off";
};
};
},
{
glyphname = comma;
layers = (
{
layerId = "DD221461-5F58-4856-B7A3-0FD42177026D";
paths = (
{
closed = 1;
nodes = (
"211 -4 OFFCURVE",
"216 7 OFFCURVE",
"216 27 CURVE SMOOTH",
"216 46 OFFCURVE",
"207 49 OFFCURVE",
"180 53 CURVE",
"180 79 OFFCURVE",
"206 155 OFFCURVE",
"239 212 CURVE",
"220 223 LINE",
"188 175 OFFCURVE",
"149 79 OFFCURVE",
"149 26 CURVE SMOOTH",
"149 0 OFFCURVE",
"163 -4 OFFCURVE",
"184 -4 CURVE SMOOTH"
);
}
);
vertWidth = 0;
width = 364;
},
{
layerId = "F950428B-3F13-4CD6-A68E-5B8ABB069931";
paths = (
{
closed = 1;
nodes = (
"264 -3 OFFCURVE",
"295 22 OFFCURVE",
"295 71 CURVE SMOOTH",
"295 118 OFFCURVE",
"284 128 OFFCURVE",
"234 142 CURVE",
"236 154 OFFCURVE",
"260 201 OFFCURVE",
"282 238 CURVE",
"167 292 LINE",
"125 224 OFFCURVE",
"81 127 OFFCURVE",
"81 74 CURVE SMOOTH",
"81 20 OFFCURVE",
"121 -3 OFFCURVE",
"186 -3 CURVE SMOOTH"
);
}
);
vertWidth = 0;
width = 387;
},
{
layerId = "108A7794-AFCA-4739-A8E0-6E5429236965";
paths = (
{
closed = 1;
nodes = (
"251 -3 OFFCURVE",
"275 18 OFFCURVE",
"275 60 CURVE SMOOTH",
"275 100 OFFCURVE",
"265 108 OFFCURVE",
"221 120 CURVE",
"222 135 OFFCURVE",
"247 190 OFFCURVE",
"271 232 CURVE",
"180 275 LINE",
"141 212 OFFCURVE",
"98 115 OFFCURVE",
"98 62 CURVE SMOOTH",
"98 15 OFFCURVE",
"132 -3 OFFCURVE",
"186 -3 CURVE SMOOTH"
);
}
);
vertWidth = 0;
width = 381.25;
},
{
layerId = "3EC9E734-A013-45CB-A1DF-CD633C54F02E";
paths = (
{
closed = 1;
nodes = (
"231 -3 OFFCURVE",
"246 13 OFFCURVE",
"246 44 CURVE SMOOTH",
"246 73 OFFCURVE",
"236 79 OFFCURVE",
"201 87 CURVE",
"201 107 OFFCURVE",
"227 173 OFFCURVE",
"255 222 CURVE",
"200 249 LINE",
"165 194 OFFCURVE",
"124 97 OFFCURVE",
"124 44 CURVE SMOOTH",
"124 8 OFFCURVE",
"148 -3 OFFCURVE",
"185 -3 CURVE SMOOTH"
);
}
);
vertWidth = 0;
width = 372.625;
}
);
unicode = 002C;
script = thaana;
category = Punctuation;
subCategory = Spacing;
userData = {
KernOnSpecialSpacing = {
L = period;
R = period;
};
};
},
{
glyphname = "question-ar";
production = uni061F;
layers = (
{
layerId = "DD221461-5F58-4856-B7A3-0FD42177026D";
paths = (
{
closed = 1;
nodes = (
"255 177 LINE",
"262 207 LINE SMOOTH",
"281 289 OFFCURVE",
"272 344 OFFCURVE",
"208 398 CURVE SMOOTH",
"175 426 LINE SMOOTH",
"127 467 OFFCURVE",
"110 500 OFFCURVE",
"110 545 CURVE SMOOTH",
"110 644 OFFCURVE",
"189 699 OFFCURVE",
"294 699 CURVE SMOOTH",
"340 699 OFFCURVE",
"393 684 OFFCURVE",
"436 660 CURVE",
"449 686 LINE",
"398 711 OFFCURVE",
"347 724 OFFCURVE",
"294 724 CURVE SMOOTH",
"169 724 OFFCURVE",
"84 654 OFFCURVE",
"84 543 CURVE SMOOTH",
"84 480 OFFCURVE",
"113 443 OFFCURVE",
"165 401 CURVE SMOOTH",
"187 383 LINE SMOOTH",
"234 344 OFFCURVE",
"245 310 OFFCURVE",
"245 267 CURVE SMOOTH",
"245 244 OFFCURVE",
"239 215 OFFCURVE",
"229 177 CURVE"
);
},
{
closed = 1;
nodes = (
"224 -8 OFFCURVE",
"234 14 OFFCURVE",
"234 32 CURVE SMOOTH",
"234 43 OFFCURVE",
"228 54 OFFCURVE",
"212 54 CURVE SMOOTH",
"192 54 OFFCURVE",
"182 32 OFFCURVE",
"182 14 CURVE SMOOTH",
"182 0 OFFCURVE",
"191 -8 OFFCURVE",
"205 -8 CURVE SMOOTH"
);
}
);
vertWidth = 0;
width = 479;
},
{
layerId = "F950428B-3F13-4CD6-A68E-5B8ABB069931";
paths = (
{
closed = 1;
nodes = (
"342 259 LINE",
"348 285 LINE SMOOTH",
"364 355 OFFCURVE",
"352 393 OFFCURVE",
"315 429 CURVE SMOOTH",
"288 455 LINE SMOOTH",
"268 475 OFFCURVE",
"251 495 OFFCURVE",
"251 524 CURVE SMOOTH",
"251 558 OFFCURVE",
"274 578 OFFCURVE",
"311 578 CURVE SMOOTH",
"352 578 OFFCURVE",
"403 552 OFFCURVE",
"446 520 CURVE",
"545 655 LINE",
"487 696 OFFCURVE",
"410 724 OFFCURVE",
"316 724 CURVE SMOOTH",
"147 724 OFFCURVE",
"78 630 OFFCURVE",
"78 526 CURVE SMOOTH",
"78 461 OFFCURVE",
"104 415 OFFCURVE",
"129 390 CURVE SMOOTH",
"156 364 LINE SMOOTH",
"185 336 OFFCURVE",
"193 319 OFFCURVE",
"188 291 CURVE SMOOTH",
"185 277 OFFCURVE",
"183 268 OFFCURVE",
"181 259 CURVE"
);
},
{
closed = 1;
nodes = (
"276 -12 OFFCURVE",
"324 14 OFFCURVE",
"324 100 CURVE SMOOTH",
"324 152 OFFCURVE",
"288 176 OFFCURVE",
"236 176 CURVE SMOOTH",
"172 176 OFFCURVE",
"117 141 OFFCURVE",
"117 62 CURVE SMOOTH",
"117 11 OFFCURVE",
"151 -12 OFFCURVE",
"202 -12 CURVE SMOOTH"
);
}
);
vertWidth = 0;
width = 479;
},
{
layerId = "108A7794-AFCA-4739-A8E0-6E5429236965";
paths = (
{
closed = 1;
nodes = (
"320 239 LINE",
"327 266 LINE SMOOTH",
"346 338 OFFCURVE",
"331 380 OFFCURVE",
"288 421 CURVE SMOOTH",
"260 448 LINE SMOOTH",
"233 474 OFFCURVE",
"216 496 OFFCURVE",
"216 529 CURVE SMOOTH",
"216 580 OFFCURVE",
"253 608 OFFCURVE",
"307 608 CURVE SMOOTH",
"349 608 OFFCURVE",
"401 585 OFFCURVE",
"444 555 CURVE",
"521 663 LINE",
"465 700 OFFCURVE",
"394 724 OFFCURVE",
"311 724 CURVE SMOOTH",
"153 724 OFFCURVE",
"80 636 OFFCURVE",
"80 530 CURVE SMOOTH",
"80 466 OFFCURVE",
"106 422 OFFCURVE",
"138 393 CURVE SMOOTH",
"164 369 LINE SMOOTH",
"197 338 OFFCURVE",
"204 317 OFFCURVE",
"204 285 CURVE SMOOTH",
"204 269 OFFCURVE",
"199 255 OFFCURVE",
"193 239 CURVE"
);
},
{
closed = 1;
nodes = (
"263 -11 OFFCURVE",
"302 14 OFFCURVE",
"302 83 CURVE SMOOTH",
"302 125 OFFCURVE",
"273 146 OFFCURVE",
"230 146 CURVE SMOOTH",
"177 146 OFFCURVE",
"133 114 OFFCURVE",
"133 50 CURVE SMOOTH",
"133 8 OFFCURVE",
"161 -11 OFFCURVE",
"203 -11 CURVE SMOOTH"
);
}
);
vertWidth = 0;
width = 479;
},
{
layerId = "3EC9E734-A013-45CB-A1DF-CD633C54F02E";
paths = (
{
closed = 1;
nodes = (
"288 208 LINE",
"295 237 LINE SMOOTH",
"314 314 OFFCURVE",
"301 362 OFFCURVE",
"248 410 CURVE SMOOTH",
"218 437 LINE SMOOTH",
"181 471 OFFCURVE",
"163 498 OFFCURVE",
"163 537 CURVE SMOOTH",
"163 612 OFFCURVE",
"221 654 OFFCURVE",
"301 654 CURVE SMOOTH",
"345 654 OFFCURVE",
"397 635 OFFCURVE",
"440 608 CURVE",
"485 675 LINE",
"432 706 OFFCURVE",
"371 724 OFFCURVE",
"303 724 CURVE SMOOTH",
"161 724 OFFCURVE",
"82 645 OFFCURVE",
"82 537 CURVE SMOOTH",
"82 473 OFFCURVE",
"110 433 OFFCURVE",
"152 397 CURVE SMOOTH",
"176 376 LINE SMOOTH",
"216 341 OFFCURVE",
"224 314 OFFCURVE",
"224 276 CURVE SMOOTH",
"224 257 OFFCURVE",
"219 235 OFFCURVE",
"211 208 CURVE"
);
},
{
closed = 1;
nodes = (
"244 -9 OFFCURVE",
"268 14 OFFCURVE",
"268 58 CURVE SMOOTH",
"268 84 OFFCURVE",
"251 100 OFFCURVE",
"221 100 CURVE SMOOTH",
"185 100 OFFCURVE",
"158 73 OFFCURVE",
"158 32 CURVE SMOOTH",
"158 4 OFFCURVE",
"176 -9 OFFCURVE",
"204 -9 CURVE SMOOTH"
);
}
);
vertWidth = 0;
width = 479;
}
);
unicode = 061F;
script = arabic;
category = Punctuation;
subCategory = Spacing;
},
